AcariSans-ExtraLight.ufo
<glyph name="exclam" format="2">
  <advance width="631"/>
  <unicode hex="0021"/>
  <outline>
    <contour>
      <point x="355" y="364" type="line"/>
      <point x="275" y="364" type="line"/>
      <point x="247" y="1436" type="line"/>
      <point x="384" y="1436" type="line"/>
    </contour>
    <contour>
      <point x="396" y="0" type="line"/>
      <point x="234" y="0" type="line"/>
      <point x="234" y="160" type="line"/>
      <point x="396" y="160" type="line"/>
    </contour>
  </outline>
</glyph>
<glyph name="quotedbl" format="2">
  <advance width="891"/>
  <unicode hex="0022"/>
  <outline>
    <contour>
      <point x="352" y="1037" type="line"/>
      <point x="253" y="1037" type="line"/>
      <point x="253" y="1413" type="line"/>
      <point x="352" y="1413" type="line"/>
    </contour>
    <contour>
      <point x="638" y="1037" type="line"/>
      <point x="535" y="1037" type="line"/>
      <point x="535" y="1413" type="line"/>
      <point x="638" y="1413" type="line"/>
    </contour>
  </outline>
</glyph>
<glyph name="parenright" format="2">
  <advance width="557"/>
  <unicode hex="0029"/>
  <outline>
    <contour>
      <point x="178" y="7" type="qcurve"/>
      <point x="96" y="7" type="line"/>
      <point x="201" y="149"/>
      <point x="325" y="542"/>
      <point x="325" y="705" type="qcurve" smooth="yes"/>
      <point x="325" y="871"/>
      <point x="195" y="1259"/>
      <point x="94" y="1405" type="qcurve"/>
      <point x="177" y="1405" type="line"/>
      <point x="296" y="1256"/>
      <point x="414" y="872"/>
      <point x="414" y="707" type="qcurve" smooth="yes"/>
      <point x="414" y="549"/>
      <point x="285" y="130"/>
    </contour>
  </outline>
</glyph>
<glyph name="hyphen" format="2">
  <advance width="826"/>
  <unicode hex="002D"/>
  <outline>
    <contour>
      <point x="654" y="610" type="line"/>
      <point x="173" y="610" type="line"/>
      <point x="173" y="689" type="line"/>
      <point x="654" y="689" type="line"/>
    </contour>
  </outline>
</glyph>
<glyph name="period" format="2">
  <advance width="671"/>
  <unicode hex="002E"/>
  <outline>
    <contour>
      <point x="422" y="0" type="line"/>
      <point x="249" y="0" type="line"/>
      <point x="249" y="160" type="line"/>
      <point x="422" y="160" type="line"/>
    </contour>
  </outline>
</glyph>
<glyph name="slash" format="2">
  <advance width="928"/>
  <unicode hex="002F"/>
  <outline>
    <contour>
      <point x="152" y="-432" type="line"/>
      <point x="34" y="-432" type="line"/>
      <point x="778" y="1517" type="line"/>
      <point x="893" y="1517" type="line"/>
    </contour>
  </outline>
</glyph>
<glyph name="zero" format="2">
  <advance width="1200"/>
  <unicode hex="0030"/>
  <outline>
    <contour>
      <point x="608" y="-20" type="qcurve" smooth="yes"/>
      <point x="473" y="-20"/>
      <point x="281" y="108"/>
      <point x="159" y="318"/>
      <point x="102" y="576"/>
      <point x="102" y="707" type="qcurve" smooth="yes"/>
      <point x="102" y="843"/>
      <point x="166" y="1126"/>
      <point x="313" y="1351"/>
      <point x="435" y="1406" type="qcurve"/>
      <point x="505" y="1436"/>
      <point x="594" y="1436" type="qcurve" smooth="yes"/>
      <point x="714" y="1436"/>
      <point x="900" y="1319"/>
      <point x="1029" y="1115"/>
      <point x="1097" y="849"/>
      <point x="1097" y="702" type="qcurve" smooth="yes"/>
      <point x="1097" y="497"/>
      <point x="959" y="138"/>
      <point x="816" y="40" type="qcurve"/>
      <point x="725" y="-20"/>
    </contour>
    <contour>
      <point x="602" y="79" type="qcurve" smooth="yes"/>
      <point x="792" y="79"/>
      <point x="891" y="289" type="qcurve" smooth="yes"/>
      <point x="974" y="466"/>
      <point x="974" y="709" type="qcurve" smooth="yes"/>
      <point x="974" y="788"/>
      <point x="950" y="960"/>
      <point x="897" y="1122"/>
      <point x="808" y="1254"/>
      <point x="680" y="1332"/>
      <point x="594" y="1332" type="qcurve" smooth="yes"/>
      <point x="399" y="1332"/>
      <point x="297" y="1125" type="qcurve" smooth="yes"/>
      <point x="211" y="951"/>
      <point x="211" y="707" type="qcurve" smooth="yes"/>
      <point x="211" y="466"/>
      <point x="297" y="288" type="qcurve" smooth="yes"/>
      <point x="397" y="79"/>
    </contour>
  </outline>
</glyph>
<glyph name="one" format="2">
  <advance width="1200"/>
  <unicode hex="0031"/>
  <outline>
    <contour>
      <point x="737" y="0" type="line"/>
      <point x="623" y="0" type="line"/>
      <point x="623" y="1114" type="line"/>
      <point x="241" y="1114" type="line"/>
      <point x="241" y="1205" type="line"/>
      <point x="449" y="1205" type="line" smooth="yes"/>
      <point x="532" y="1205"/>
      <point x="637" y="1306"/>
      <point x="637" y="1394" type="qcurve" smooth="yes"/>
      <point x="637" y="1413" type="line"/>
      <point x="737" y="1413" type="line"/>
    </contour>
  </outline>
</glyph>
<glyph name="four" format="2">
  <advance width="1200"/>
  <unicode hex="0034"/>
  <outline>
    <contour>
      <point x="852" y="0" type="line"/>
      <point x="741" y="0" type="line"/>
      <point x="741" y="403" type="line"/>
      <point x="86" y="403" type="line"/>
      <point x="86" y="466" type="line"/>
      <point x="743" y="1413" type="line"/>
      <point x="852" y="1413" type="line"/>
      <point x="852" y="493" type="line"/>
      <point x="1077" y="493" type="line"/>
      <point x="1077" y="403" type="line"/>
      <point x="852" y="403" type="line"/>
    </contour>
    <contour>
      <point x="741" y="493" type="line"/>
      <point x="741" y="1245" type="line"/>
      <point x="208" y="493" type="line"/>
    </contour>
  </outline>
</glyph>
<glyph name="five" format="2">
  <advance width="1200"/>
  <unicode hex="0035"/>
  <outline>
    <contour>
      <point x="599" y="-20" type="qcurve" smooth="yes"/>
      <point x="480" y="-20"/>
      <point x="300" y="78"/>
      <point x="181" y="246"/>
      <point x="157" y="353" type="qcurve"/>
      <point x="181" y="363"/>
      <point x="207" y="373" type="qcurve" smooth="yes"/>
      <point x="233" y="382"/>
      <point x="256" y="392" type="qcurve"/>
      <point x="270" y="312"/>
      <point x="355" y="165"/>
      <point x="484" y="79"/>
      <point x="594" y="79" type="qcurve" smooth="yes"/>
      <point x="705" y="79"/>
      <point x="866" y="187"/>
      <point x="942" y="352"/>
      <point x="942" y="453" type="qcurve" smooth="yes"/>
      <point x="942" y="547"/>
      <point x="870" y="713"/>
      <point x="717" y="807"/>
      <point x="612" y="807" type="qcurve" smooth="yes"/>
      <point x="508" y="807"/>
      <point x="348" y="724"/>
      <point x="303" y="651" type="qcurve"/>
      <point x="209" y="716" type="line"/>
      <point x="326" y="1413" type="line"/>
      <point x="986" y="1413" type="line"/>
      <point x="986" y="1319" type="line"/>
      <point x="412" y="1319" type="line"/>
      <point x="323" y="770" type="line"/>
      <point x="436" y="901"/>
      <point x="626" y="901" type="qcurve" smooth="yes"/>
      <point x="758" y="901"/>
      <point x="947" y="777"/>
      <point x="1050" y="574"/>
      <point x="1050" y="453" type="qcurve" smooth="yes"/>
      <point x="1050" y="324"/>
      <point x="936" y="110"/>
      <point x="733" y="-20"/>
    </contour>
  </outline>
</glyph>
<glyph name="seven" format="2">
  <advance width="1200"/>
  <unicode hex="0037"/>
  <outline>
    <contour>
      <point x="441" y="0" type="line"/>
      <point x="315" y="0" type="line"/>
      <point x="921" y="1318" type="line"/>
      <point x="141" y="1318" type="line"/>
      <point x="141" y="1413" type="line"/>
      <point x="1044" y="1413" type="line"/>
      <point x="1044" y="1360" type="line"/>
    </contour>
  </outline>
</glyph>
<glyph name="nine" format="2">
  <advance width="1200"/>
  <unicode hex="0039"/>
  <outline>
    <contour>
      <point x="565" y="0" type="line"/>
      <point x="452" y="0" type="line"/>
      <point x="763" y="554" type="line"/>
      <point x="681" y="533"/>
      <point x="594" y="533" type="qcurve" smooth="yes"/>
      <point x="440" y="533"/>
      <point x="257" y="647"/>
      <point x="146" y="846"/>
      <point x="146" y="972" type="qcurve" smooth="yes"/>
      <point x="146" y="1091"/>
      <point x="258" y="1303"/>
      <point x="460" y="1434"/>
      <point x="596" y="1434" type="qcurve" smooth="yes"/>
      <point x="715" y="1434"/>
      <point x="916" y="1312"/>
      <point x="1039" y="1102"/>
      <point x="1039" y="973" type="qcurve" smooth="yes"/>
      <point x="1039" y="841"/>
      <point x="976" y="731" type="qcurve"/>
    </contour>
    <contour>
      <point x="594" y="632" type="qcurve" smooth="yes"/>
      <point x="686" y="632"/>
      <point x="840" y="708"/>
      <point x="931" y="872"/>
      <point x="931" y="974" type="qcurve" smooth="yes"/>
      <point x="931" y="1069"/>
      <point x="841" y="1234"/>
      <point x="688" y="1336"/>
      <point x="594" y="1336" type="qcurve" smooth="yes"/>
      <point x="497" y="1336"/>
      <point x="343" y="1234"/>
      <point x="253" y="1069"/>
      <point x="253" y="974" type="qcurve" smooth="yes"/>
      <point x="253" y="878"/>
      <point x="342" y="713"/>
      <point x="495" y="632"/>
    </contour>
  </outline>
</glyph>
<glyph name="less" format="2">
  <advance width="1206"/>
  <unicode hex="003C"/>
  <outline>
    <contour>
      <point x="992" y="179" type="line"/>
      <point x="133" y="674" type="line"/>
      <point x="992" y="1169" type="line"/>
      <point x="1044" y="1081" type="line"/>
      <point x="312" y="674" type="line"/>
      <point x="1044" y="266" type="line"/>
    </contour>
  </outline>
</glyph>
<glyph name="greater" format="2">
  <advance width="1206"/>
  <unicode hex="003E"/>
  <outline>
    <contour>
      <point x="213" y="179" type="line"/>
      <point x="163" y="266" type="line"/>
      <point x="894" y="674" type="line"/>
      <point x="163" y="1081" type="line"/>
      <point x="213" y="1169" type="line"/>
      <point x="1073" y="674" type="line"/>
    </contour>
  </outline>
</glyph>
<glyph name="at" format="2">
  <advance width="2097"/>
  <unicode hex="0040"/>
  <outline>
    <contour>
      <point x="1041" y="-349" type="qcurve" smooth="yes"/>
      <point x="863" y="-349"/>
      <point x="549" y="-233"/>
      <point x="312" y="-12"/>
      <point x="174" y="308"/>
      <point x="174" y="512" type="qcurve" smooth="yes"/>
      <point x="174" y="640"/>
      <point x="231" y="875"/>
      <point x="285" y="978" type="qcurve" smooth="yes"/>
      <point x="392" y="1185"/>
      <point x="798" y="1432"/>
      <point x="1063" y="1432" type="qcurve" smooth="yes"/>
      <point x="1310" y="1432"/>
      <point x="1704" y="1209"/>
      <point x="1813" y="1016" type="qcurve" smooth="yes"/>
      <point x="1927" y="812"/>
      <point x="1927" y="565" type="qcurve" smooth="yes"/>
      <point x="1927" y="308"/>
      <point x="1819" y="142" type="qcurve" smooth="yes"/>
      <point x="1700" y="-43"/>
      <point x="1489" y="-43" type="qcurve" smooth="yes"/>
      <point x="1365" y="-43"/>
      <point x="1224" y="78"/>
      <point x="1224" y="180" type="qcurve" smooth="yes"/>
      <point x="1224" y="205"/>
      <point x="1233" y="256" type="qcurve"/>
      <point x="1170" y="166"/>
      <point x="993" y="76"/>
      <point x="898" y="76" type="qcurve" smooth="yes"/>
      <point x="753" y="76"/>
      <point x="597" y="281"/>
      <point x="597" y="438" type="qcurve" smooth="yes"/>
      <point x="597" y="572"/>
      <point x="652" y="706" type="qcurve" smooth="yes"/>
      <point x="712" y="850"/>
      <point x="808" y="932" type="qcurve"/>
      <point x="914" y="1026"/>
      <point x="1048" y="1026" type="qcurve" smooth="yes"/>
      <point x="1152" y="1026"/>
      <point x="1229" y="971" type="qcurve"/>
      <point x="1305" y="911"/>
      <point x="1322" y="800" type="qcurve"/>
      <point x="1356" y="977" type="line"/>
      <point x="1481" y="977" type="line"/>
      <point x="1470" y="925" type="line"/>
      <point x="1387" y="577"/>
      <point x="1359" y="450" type="qcurve" smooth="yes"/>
      <point x="1336" y="348"/>
      <point x="1336" y="245" type="qcurve" smooth="yes"/>
      <point x="1336" y="99"/>
      <point x="1435" y="86" type="qcurve"/>
      <point x="1478" y="83" type="line"/>
      <point x="1648" y="83"/>
      <point x="1734" y="234" type="qcurve" smooth="yes"/>
      <point x="1809" y="364"/>
      <point x="1809" y="567" type="qcurve" smooth="yes"/>
      <point x="1809" y="727"/>
      <point x="1701" y="1001"/>
      <point x="1505" y="1203"/>
      <point x="1230" y="1318"/>
      <point x="1062" y="1318" type="qcurve" smooth="yes"/>
      <point x="889" y="1318"/>
      <point x="605" y="1196"/>
      <point x="403" y="982"/>
      <point x="292" y="688"/>
      <point x="292" y="516" type="qcurve" smooth="yes"/>
      <point x="292" y="343"/>
      <point x="406" y="69"/>
      <point x="608" y="-123"/>
      <point x="883" y="-225"/>
      <point x="1043" y="-225" type="qcurve" smooth="yes"/>
      <point x="1173" y="-225"/>
      <point x="1293" y="-186" type="qcurve"/>
      <point x="1303" y="-214"/>
      <point x="1315" y="-243" type="qcurve" smooth="yes"/>
      <point x="1327" y="-271"/>
      <point x="1338" y="-299" type="qcurve"/>
      <point x="1194" y="-349"/>
    </contour>
    <contour>
      <point x="917" y="200" type="qcurve" smooth="yes"/>
      <point x="1003" y="200"/>
      <point x="1139" y="285"/>
      <point x="1231" y="424"/>
      <point x="1280" y="587"/>
      <point x="1280" y="667" type="qcurve" smooth="yes"/>
      <point x="1280" y="737"/>
      <point x="1238" y="844"/>
      <point x="1146" y="903"/>
      <point x="1073" y="903" type="qcurve" smooth="yes"/>
      <point x="986" y="903"/>
      <point x="851" y="818"/>
      <point x="758" y="679"/>
      <point x="709" y="516"/>
      <point x="709" y="437" type="qcurve" smooth="yes"/>
      <point x="709" y="200"/>
    </contour>
  </outline>
</glyph>
<glyph name="A" format="2">
  <advance width="1295"/>
  <unicode hex="0041"/>
  <outline>
    <contour>
      <point x="1208" y="0" type="line"/>
      <point x="1085" y="0" type="line"/>
      <point x="978" y="308" type="line"/>
      <point x="320" y="308" type="line"/>
      <point x="213" y="0" type="line"/>
      <point x="88" y="0" type="line"/>
      <point x="604" y="1413" type="line"/>
      <point x="694" y="1413" type="line"/>
    </contour>
    <contour>
      <point x="940" y="419" type="line"/>
      <point x="650" y="1247" type="line"/>
      <point x="358" y="419" type="line"/>
    </contour>
  </outline>
</glyph>
<glyph name="F" format="2">
  <advance width="1185"/>
  <unicode hex="0046"/>
  <outline>
    <contour>
      <point x="343" y="0" type="line"/>
      <point x="228" y="0" type="line"/>
      <point x="228" y="1413" type="line"/>
      <point x="1094" y="1413" type="line"/>
      <point x="1094" y="1321" type="line"/>
      <point x="343" y="1321" type="line"/>
      <point x="343" y="751" type="line"/>
      <point x="1006" y="751" type="line"/>
      <point x="1006" y="664" type="line"/>
      <point x="343" y="664" type="line"/>
    </contour>
  </outline>
</glyph>
<glyph name="I" format="2">
  <advance width="569"/>
  <unicode hex="0049"/>
  <outline>
    <contour>
      <point x="342" y="0" type="line"/>
      <point x="228" y="0" type="line"/>
      <point x="228" y="1413" type="line"/>
      <point x="342" y="1413" type="line"/>
    </contour>
  </outline>
</glyph>
<glyph name="L" format="2">
  <advance width="1030"/>
  <unicode hex="004C"/>
  <outline>
    <contour>
      <point x="949" y="0" type="line"/>
      <point x="228" y="0" type="line"/>
      <point x="228" y="1413" type="line"/>
      <point x="343" y="1413" type="line"/>
      <point x="343" y="101" type="line"/>
      <point x="949" y="101" type="line"/>
    </contour>
  </outline>
</glyph>
<glyph name="N" format="2">
  <advance width="1409"/>
  <unicode hex="004E"/>
  <outline>
    <contour>
      <point x="1182" y="0" type="line"/>
      <point x="982" y="0" type="line"/>
      <point x="346" y="1318" type="line"/>
      <point x="346" y="0" type="line"/>
      <point x="228" y="0" type="line"/>
      <point x="228" y="1413" type="line"/>
      <point x="423" y="1413" type="line"/>
      <point x="1066" y="97" type="line"/>
      <point x="1066" y="1413" type="line"/>
      <point x="1182" y="1413" type="line"/>
    </contour>
  </outline>
</glyph>
<glyph name="O" format="2">
  <advance width="1421"/>
  <unicode hex="004F"/>
  <outline>
    <contour>
      <point x="760" y="-20" type="qcurve" smooth="yes"/>
      <point x="463" y="-20"/>
      <point x="300" y="187" type="qcurve" smooth="yes"/>
      <point x="146" y="383"/>
      <point x="146" y="707" type="qcurve" smooth="yes"/>
      <point x="146" y="1018"/>
      <point x="290" y="1213" type="qcurve" smooth="yes"/>
      <point x="454" y="1436"/>
      <point x="762" y="1436" type="qcurve" smooth="yes"/>
      <point x="1067" y="1436"/>
      <point x="1231" y="1213" type="qcurve" smooth="yes"/>
      <point x="1375" y="1018"/>
      <point x="1375" y="707" type="qcurve" smooth="yes"/>
      <point x="1375" y="383"/>
      <point x="1221" y="187" type="qcurve" smooth="yes"/>
      <point x="1058" y="-20"/>
    </contour>
    <contour>
      <point x="757" y="1324" type="line" smooth="yes"/>
      <point x="511" y="1324"/>
      <point x="389" y="1151" type="qcurve"/>
      <point x="269" y="984"/>
      <point x="269" y="717" type="qcurve" smooth="yes"/>
      <point x="269" y="590"/>
      <point x="323" y="363"/>
      <point x="444" y="187"/>
      <point x="533" y="143" type="qcurve"/>
      <point x="628" y="91"/>
      <point x="760" y="91" type="qcurve" smooth="yes"/>
      <point x="893" y="91"/>
      <point x="988" y="143" type="qcurve"/>
      <point x="1077" y="187"/>
      <point x="1198" y="363"/>
      <point x="1252" y="590"/>
      <point x="1252" y="717" type="qcurve" smooth="yes"/>
      <point x="1252" y="984"/>
      <point x="1132" y="1151" type="qcurve"/>
      <point x="1010" y="1324"/>
      <point x="764" y="1324" type="qcurve" smooth="yes"/>
    </contour>
  </outline>
</glyph>
<glyph name="Q" format="2">
  <advance width="1541"/>
  <unicode hex="0051"/>
  <outline>
    <contour>
      <point x="760" y="91" type="qcurve" smooth="yes"/>
      <point x="945" y="91"/>
      <point x="1065" y="194" type="qcurve"/>
      <point x="868" y="398" type="line"/>
      <point x="937" y="479" type="line"/>
      <point x="1136" y="273" type="line"/>
      <point x="1252" y="440"/>
      <point x="1252" y="717" type="qcurve" smooth="yes"/>
      <point x="1252" y="984"/>
      <point x="1132" y="1151" type="qcurve"/>
      <point x="1010" y="1324"/>
      <point x="764" y="1324" type="qcurve" smooth="yes"/>
      <point x="511" y="1324"/>
      <point x="389" y="1151" type="qcurve"/>
      <point x="269" y="984"/>
      <point x="269" y="717" type="qcurve" smooth="yes"/>
      <point x="269" y="590"/>
      <point x="323" y="363"/>
      <point x="444" y="187"/>
      <point x="533" y="143" type="qcurve"/>
      <point x="628" y="91"/>
    </contour>
    <contour>
      <point x="1337" y="-88" type="line"/>
      <point x="1147" y="109" type="line"/>
      <point x="995" y="-20"/>
      <point x="760" y="-20" type="qcurve" smooth="yes"/>
      <point x="463" y="-20"/>
      <point x="300" y="187" type="qcurve" smooth="yes"/>
      <point x="146" y="383"/>
      <point x="146" y="707" type="qcurve" smooth="yes"/>
      <point x="146" y="1018"/>
      <point x="290" y="1213" type="qcurve" smooth="yes"/>
      <point x="454" y="1436"/>
      <point x="762" y="1436" type="qcurve" smooth="yes"/>
      <point x="1067" y="1436"/>
      <point x="1231" y="1213" type="qcurve" smooth="yes"/>
      <point x="1375" y="1018"/>
      <point x="1375" y="707" type="qcurve" smooth="yes"/>
      <point x="1375" y="382"/>
      <point x="1220" y="186" type="qcurve"/>
      <point x="1410" y="-10" type="line"/>
    </contour>
  </outline>
</glyph>
<glyph name="R" format="2">
  <advance width="1205"/>
  <unicode hex="0052"/>
  <outline>
    <contour>
      <point x="1100" y="-2" type="line"/>
      <point x="962" y="-2" type="line"/>
      <point x="606" y="646" type="line"/>
      <point x="343" y="646" type="line"/>
      <point x="343" y="-2" type="line"/>
      <point x="228" y="-2" type="line"/>
      <point x="228" y="1411" type="line"/>
      <point x="609" y="1411" type="line" smooth="yes"/>
      <point x="729" y="1411"/>
      <point x="921" y="1318"/>
      <point x="1033" y="1147"/>
      <point x="1033" y="1028" type="qcurve" smooth="yes"/>
      <point x="1033" y="885"/>
      <point x="865" y="687"/>
      <point x="719" y="665" type="qcurve"/>
    </contour>
    <contour>
      <point x="637" y="762" type="line"/>
      <point x="718" y="766"/>
      <point x="846" y="828"/>
      <point x="922" y="945"/>
      <point x="922" y="1032" type="qcurve" smooth="yes"/>
      <point x="922" y="1122"/>
      <point x="840" y="1247"/>
      <point x="699" y="1311"/>
      <point x="611" y="1311" type="qcurve" smooth="yes"/>
      <point x="345" y="1311" type="line"/>
      <point x="345" y="762" type="line"/>
    </contour>
  </outline>
</glyph>
<glyph name="S" format="2">
  <advance width="1105"/>
  <unicode hex="0053"/>
  <outline>
    <contour>
      <point x="567" y="-16" type="qcurve" smooth="yes"/>
      <point x="459" y="-16"/>
      <point x="258" y="62"/>
      <point x="121" y="222"/>
      <point x="101" y="343" type="qcurve"/>
      <point x="203" y="377" type="line"/>
      <point x="214" y="279"/>
      <point x="320" y="148"/>
      <point x="480" y="85"/>
      <point x="566" y="85" type="qcurve" smooth="yes"/>
      <point x="659" y="85"/>
      <point x="799" y="146"/>
      <point x="877" y="273"/>
      <point x="877" y="372" type="qcurve" smooth="yes"/>
      <point x="877" y="444"/>
      <point x="802" y="560"/>
      <point x="740" y="601" type="qcurve" smooth="yes"/>
      <point x="671" y="646"/>
      <point x="544" y="709" type="qcurve" smooth="yes"/>
      <point x="452" y="755"/>
      <point x="358" y="811" type="qcurve"/>
      <point x="195" y="911"/>
      <point x="195" y="1090" type="qcurve" smooth="yes"/>
      <point x="195" y="1186"/>
      <point x="289" y="1343"/>
      <point x="450" y="1434"/>
      <point x="554" y="1434" type="qcurve" smooth="yes"/>
      <point x="801" y="1434"/>
      <point x="928" y="1228" type="qcurve"/>
      <point x="851" y="1172" type="line"/>
      <point x="803" y="1259"/>
      <point x="645" y="1339"/>
      <point x="555" y="1339" type="qcurve" smooth="yes"/>
      <point x="488" y="1339"/>
      <point x="373" y="1281"/>
      <point x="303" y="1175"/>
      <point x="303" y="1105" type="qcurve" smooth="yes"/>
      <point x="303" y="1027"/>
      <point x="392" y="911"/>
      <point x="541" y="826"/>
      <point x="696" y="748" type="qcurve" smooth="yes"/>
      <point x="785" y="704"/>
      <point x="938" y="585"/>
      <point x="973" y="479" type="qcurve"/>
      <point x="986" y="435"/>
      <point x="986" y="381" type="qcurve" smooth="yes"/>
      <point x="986" y="258"/>
      <point x="874" y="81"/>
      <point x="685" y="-16"/>
    </contour>
  </outline>
</glyph>
<glyph name="W" format="2">
  <advance width="1969"/>
  <unicode hex="0057"/>
  <outline>
    <contour>
      <point x="1485" y="0" type="line"/>
      <point x="1334" y="0" type="line"/>
      <point x="984" y="1219" type="line"/>
      <point x="635" y="0" type="line"/>
      <point x="484" y="0" type="line"/>
      <point x="98" y="1413" type="line"/>
      <point x="213" y="1413" type="line"/>
      <point x="566" y="119" type="line"/>
      <point x="937" y="1413" type="line"/>
      <point x="1032" y="1413" type="line"/>
      <point x="1405" y="119" type="line"/>
      <point x="1756" y="1413" type="line"/>
      <point x="1872" y="1413" type="line"/>
    </contour>
  </outline>
</glyph>
<glyph name="bracketleft" format="2">
  <advance width="633"/>
  <unicode hex="005B"/>
  <outline>
    <contour>
      <point x="548" y="-65" type="line"/>
      <point x="219" y="-65" type="line"/>
      <point x="219" y="1476" type="line"/>
      <point x="548" y="1476" type="line"/>
      <point x="548" y="1419" type="line"/>
      <point x="311" y="1419" type="line"/>
      <point x="311" y="-6" type="line"/>
      <point x="548" y="-6" type="line"/>
    </contour>
  </outline>
</glyph>
<glyph name="a" format="2">
  <advance width="1014"/>
  <unicode hex="0061"/>
  <outline>
    <contour>
      <point x="395" y="-20" type="qcurve" smooth="yes"/>
      <point x="259" y="-20"/>
      <point x="90" y="131"/>
      <point x="90" y="263" type="qcurve" smooth="yes"/>
      <point x="90" y="557"/>
      <point x="544" y="557" type="qcurve" smooth="yes"/>
      <point x="765" y="557" type="line"/>
      <point x="765" y="673"/>
      <point x="712" y="837"/>
      <point x="593" y="924"/>
      <point x="495" y="924" type="qcurve" smooth="yes"/>
      <point x="423" y="924"/>
      <point x="311" y="881"/>
      <point x="227" y="813"/>
      <point x="200" y="774" type="qcurve"/>
      <point x="126" y="833" type="line"/>
      <point x="256" y="1014"/>
      <point x="484" y="1014" type="qcurve" smooth="yes"/>
      <point x="665" y="1014"/>
      <point x="856" y="798"/>
      <point x="856" y="615" type="qcurve" smooth="yes"/>
      <point x="856" y="0" type="line"/>
      <point x="766" y="0" type="line"/>
      <point x="766" y="104"/>
      <point x="768" y="226" type="qcurve"/>
      <point x="709" y="95"/>
      <point x="512" y="-20"/>
    </contour>
    <contour>
      <point x="406" y="67" type="qcurve" smooth="yes"/>
      <point x="566" y="67"/>
      <point x="669" y="197" type="qcurve" smooth="yes"/>
      <point x="765" y="318"/>
      <point x="765" y="475" type="qcurve"/>
      <point x="547" y="475" type="line" smooth="yes"/>
      <point x="369" y="475"/>
      <point x="200" y="378"/>
      <point x="200" y="262" type="qcurve" smooth="yes"/>
      <point x="200" y="161"/>
      <point x="314" y="67"/>
    </contour>
  </outline>
</glyph>
<glyph name="i" format="2">
  <advance width="473"/>
  <unicode hex="0069"/>
  <outline>
    <contour>
      <point x="304" y="1239" type="line"/>
      <point x="171" y="1239" type="line"/>
      <point x="171" y="1413" type="line"/>
      <point x="304" y="1413" type="line"/>
    </contour>
    <contour>
      <point x="291" y="0" type="line"/>
      <point x="182" y="0" type="line"/>
      <point x="182" y="997" type="line"/>
      <point x="291" y="997" type="line"/>
    </contour>
  </outline>
</glyph>
<glyph name="k" format="2">
  <advance width="1023"/>
  <unicode hex="006B"/>
  <outline>
    <contour>
      <point x="963" y="0" type="line"/>
      <point x="838" y="0" type="line"/>
      <point x="523" y="542" type="line"/>
      <point x="291" y="293" type="line"/>
      <point x="291" y="0" type="line"/>
      <point x="184" y="0" type="line"/>
      <point x="184" y="1413" type="line"/>
      <point x="291" y="1413" type="line"/>
      <point x="291" y="441" type="line"/>
      <point x="771" y="997" type="line"/>
      <point x="897" y="997" type="line"/>
      <point x="592" y="630" type="line"/>
    </contour>
  </outline>
</glyph>
<glyph name="l" format="2">
  <advance width="497"/>
  <unicode hex="006C"/>
  <outline>
    <contour>
      <point x="320" y="-20" type="qcurve" smooth="yes"/>
      <point x="189" y="-20"/>
      <point x="182" y="93" type="qcurve" smooth="yes"/>
      <point x="180" y="127"/>
      <point x="180" y="1413" type="qcurve"/>
      <point x="287" y="1413" type="line"/>
      <point x="288" y="107" type="line"/>
      <point x="294" y="94"/>
      <point x="297" y="90" type="qcurve" smooth="yes"/>
      <point x="309" y="72"/>
      <point x="333" y="72" type="qcurve"/>
      <point x="348" y="73"/>
      <point x="362" y="73" type="qcurve" smooth="yes"/>
      <point x="375" y="73"/>
      <point x="425" y="81"/>
      <point x="433" y="84" type="qcurve"/>
      <point x="432" y="-1" type="line"/>
      <point x="385" y="-20"/>
    </contour>
  </outline>
</glyph>
<glyph name="m" format="2">
  <advance width="1689"/>
  <unicode hex="006D"/>
  <outline>
    <contour>
      <point x="1529" y="0" type="line"/>
      <point x="1422" y="0" type="line"/>
      <point x="1422" y="602" type="line" smooth="yes"/>
      <point x="1422" y="735"/>
      <point x="1373" y="824" type="qcurve" smooth="yes"/>
      <point x="1313" y="934"/>
      <point x="1183" y="934" type="qcurve" smooth="yes"/>
      <point x="1093" y="934"/>
      <point x="971" y="829"/>
      <point x="908" y="667"/>
      <point x="908" y="578" type="qcurve" smooth="yes"/>
      <point x="908" y="0" type="line"/>
      <point x="802" y="0" type="line"/>
      <point x="802" y="606" type="line" smooth="yes"/>
      <point x="802" y="687"/>
      <point x="760" y="837"/>
      <point x="657" y="934"/>
      <point x="566" y="934" type="qcurve" smooth="yes"/>
      <point x="474" y="934"/>
      <point x="350" y="829"/>
      <point x="289" y="666"/>
      <point x="289" y="578" type="qcurve" smooth="yes"/>
      <point x="289" y="0" type="line"/>
      <point x="182" y="0" type="line"/>
      <point x="182" y="997" type="line"/>
      <point x="289" y="997" type="line"/>
      <point x="289" y="777" type="line"/>
      <point x="318" y="893"/>
      <point x="469" y="1016"/>
      <point x="573" y="1016" type="qcurve" smooth="yes"/>
      <point x="687" y="1016"/>
      <point x="853" y="906"/>
      <point x="888" y="786" type="qcurve"/>
      <point x="978" y="1014"/>
      <point x="1191" y="1014" type="qcurve" smooth="yes"/>
      <point x="1306" y="1014"/>
      <point x="1455" y="913"/>
      <point x="1529" y="731"/>
      <point x="1529" y="609" type="qcurve" smooth="yes"/>
    </contour>
  </outline>
</glyph>
<glyph name="p" format="2">
  <advance width="1116"/>
  <unicode hex="0070"/>
  <outline>
    <contour>
      <point x="288" y="-440" type="line"/>
      <point x="184" y="-440" type="line"/>
      <point x="184" y="997" type="line"/>
      <point x="288" y="997" type="line"/>
      <point x="288" y="838" type="line"/>
      <point x="402" y="1018"/>
      <point x="614" y="1018" type="qcurve" smooth="yes"/>
      <point x="737" y="1018"/>
      <point x="912" y="879"/>
      <point x="1004" y="643"/>
      <point x="1004" y="499" type="qcurve" smooth="yes"/>
      <point x="1004" y="353"/>
      <point x="911" y="117"/>
      <point x="736" y="-20"/>
      <point x="613" y="-20" type="qcurve" smooth="yes"/>
      <point x="404" y="-20"/>
      <point x="288" y="159" type="qcurve"/>
    </contour>
    <contour>
      <point x="583" y="67" type="qcurve" smooth="yes"/>
      <point x="726" y="67"/>
      <point x="900" y="298"/>
      <point x="900" y="499" type="qcurve" smooth="yes"/>
      <point x="900" y="672"/>
      <point x="827" y="791" type="qcurve" smooth="yes"/>
      <point x="743" y="926"/>
      <point x="583" y="926" type="qcurve" smooth="yes"/>
      <point x="482" y="926"/>
      <point x="346" y="812"/>
      <point x="277" y="619"/>
      <point x="277" y="499" type="qcurve" smooth="yes"/>
      <point x="277" y="378"/>
      <point x="353" y="165"/>
      <point x="444" y="105" type="qcurve" smooth="yes"/>
      <point x="502" y="67"/>
    </contour>
  </outline>
</glyph>
<glyph name="q" format="2">
  <advance width="1118"/>
  <unicode hex="0071"/>
  <outline>
    <contour>
      <point x="934" y="-440" type="line"/>
      <point x="828" y="-440" type="line"/>
      <point x="828" y="159" type="line"/>
      <point x="768" y="68"/>
      <point x="615" y="-20"/>
      <point x="500" y="-20" type="qcurve" smooth="yes"/>
      <point x="376" y="-20"/>
      <point x="203" y="120"/>
      <point x="112" y="356"/>
      <point x="112" y="499" type="qcurve" smooth="yes"/>
      <point x="112" y="716"/>
      <point x="211" y="863" type="qcurve" smooth="yes"/>
      <point x="316" y="1018"/>
      <point x="503" y="1018" type="qcurve" smooth="yes"/>
      <point x="709" y="1018"/>
      <point x="828" y="839" type="qcurve"/>
      <point x="828" y="997" type="line"/>
      <point x="934" y="997" type="line"/>
    </contour>
    <contour>
      <point x="529" y="67" type="qcurve" smooth="yes"/>
      <point x="675" y="67"/>
      <point x="837" y="301"/>
      <point x="837" y="499" type="qcurve" smooth="yes"/>
      <point x="837" y="623"/>
      <point x="758" y="834"/>
      <point x="669" y="891" type="qcurve"/>
      <point x="610" y="927"/>
      <point x="529" y="927" type="qcurve" smooth="yes"/>
      <point x="422" y="927"/>
      <point x="285" y="806"/>
      <point x="220" y="611"/>
      <point x="220" y="499" type="qcurve" smooth="yes"/>
      <point x="220" y="322"/>
      <point x="291" y="202" type="qcurve" smooth="yes"/>
      <point x="372" y="67"/>
    </contour>
  </outline>
</glyph>
<glyph name="r" format="2">
  <advance width="792"/>
  <unicode hex="0072"/>
  <outline>
    <contour>
      <point x="292" y="0" type="line"/>
      <point x="182" y="0" type="line"/>
      <point x="182" y="997" type="line"/>
      <point x="294" y="997" type="line"/>
      <point x="294" y="767" type="line"/>
      <point x="310" y="841"/>
      <point x="368" y="921"/>
      <point x="452" y="980"/>
      <point x="551" y="1012"/>
      <point x="600" y="1012" type="qcurve" smooth="yes"/>
      <point x="630" y="1012"/>
      <point x="679" y="1001" type="qcurve"/>
      <point x="716" y="994"/>
      <point x="748" y="976" type="qcurve"/>
      <point x="723" y="874" type="line"/>
      <point x="706" y="888"/>
      <point x="654" y="913"/>
      <point x="628" y="918" type="qcurve" smooth="yes"/>
      <point x="621" y="920"/>
      <point x="612" y="921" type="qcurve"/>
      <point x="602" y="921"/>
      <point x="591" y="922" type="qcurve"/>
      <point x="446" y="922"/>
      <point x="368" y="779" type="qcurve" smooth="yes"/>
      <point x="292" y="638"/>
      <point x="292" y="409" type="qcurve" smooth="yes"/>
    </contour>
  </outline>
</glyph>
<glyph name="s" format="2">
  <advance width="854"/>
  <unicode hex="0073"/>
  <outline>
    <contour>
      <point x="131" y="766" type="line"/>
      <point x="152" y="890"/>
      <point x="237" y="957" type="qcurve" smooth="yes"/>
      <point x="310" y="1014"/>
      <point x="417" y="1014" type="qcurve" smooth="yes"/>
      <point x="443" y="1014"/>
      <point x="470" y="1011" type="qcurve" smooth="yes"/>
      <point x="539" y="1002"/>
      <point x="647" y="939"/>
      <point x="727" y="844"/>
      <point x="749" y="793" type="qcurve"/>
      <point x="716" y="778" type="line"/>
      <point x="686" y="766"/>
      <point x="658" y="753" type="qcurve"/>
      <point x="596" y="900"/>
      <point x="472" y="915" type="qcurve" smooth="yes"/>
      <point x="450" y="918"/>
      <point x="429" y="918" type="qcurve" smooth="yes"/>
      <point x="356" y="918"/>
      <point x="311" y="884" type="qcurve"/>
      <point x="252" y="842"/>
      <point x="242" y="757" type="qcurve" smooth="yes"/>
      <point x="241" y="749"/>
      <point x="241" y="741" type="qcurve" smooth="yes"/>
      <point x="241" y="706"/>
      <point x="262" y="679" type="qcurve" smooth="yes"/>
      <point x="287" y="645"/>
      <point x="357" y="606"/>
      <point x="457" y="563" type="qcurve"/>
      <point x="624" y="489"/>
      <point x="687" y="425" type="qcurve" smooth="yes"/>
      <point x="752" y="359"/>
      <point x="752" y="274" type="qcurve" smooth="yes"/>
      <point x="752" y="267"/>
      <point x="752" y="260" type="qcurve"/>
      <point x="751" y="246"/>
      <point x="749" y="233" type="qcurve" smooth="yes"/>
      <point x="731" y="134"/>
      <point x="685" y="82" type="qcurve" smooth="yes"/>
      <point x="630" y="20"/>
      <point x="497" y="-21"/>
      <point x="436" y="-21" type="qcurve" smooth="yes"/>
      <point x="408" y="-21"/>
      <point x="379" y="-18" type="qcurve" smooth="yes"/>
      <point x="292" y="-7"/>
      <point x="157" y="76"/>
      <point x="74" y="192"/>
      <point x="61" y="254" type="qcurve"/>
      <point x="161" y="296" type="line"/>
      <point x="175" y="214"/>
      <point x="307" y="91"/>
      <point x="405" y="79" type="qcurve" smooth="yes"/>
      <point x="431" y="76"/>
      <point x="454" y="76" type="qcurve" smooth="yes"/>
      <point x="485" y="76"/>
      <point x="556" y="93"/>
      <point x="593" y="128" type="qcurve" smooth="yes"/>
      <point x="628" y="162"/>
      <point x="639" y="241" type="qcurve"/>
      <point x="639" y="247"/>
      <point x="639" y="254" type="qcurve" smooth="yes"/>
      <point x="639" y="307"/>
      <point x="608" y="346" type="qcurve" smooth="yes"/>
      <point x="573" y="389"/>
      <point x="462" y="443"/>
      <point x="368" y="486" type="qcurve" smooth="yes"/>
      <point x="272" y="530"/>
      <point x="158" y="623"/>
      <point x="130" y="700"/>
      <point x="130" y="735" type="qcurve" smooth="yes"/>
      <point x="130" y="741"/>
      <point x="130" y="748" type="qcurve"/>
    </contour>
  </outline>
</glyph>
<glyph name="t" format="2">
  <advance width="642"/>
  <unicode hex="0074"/>
  <outline>
    <contour>
      <point x="425" y="-20" type="qcurve" smooth="yes"/>
      <point x="345" y="-20"/>
      <point x="251" y="45"/>
      <point x="211" y="170"/>
      <point x="211" y="258" type="qcurve" smooth="yes"/>
      <point x="211" y="914" type="line"/>
      <point x="55" y="914" type="line"/>
      <point x="55" y="997" type="line"/>
      <point x="211" y="997" type="line"/>
      <point x="211" y="1216" type="line"/>
      <point x="321" y="1336" type="line"/>
      <point x="321" y="997" type="line"/>
      <point x="575" y="997" type="line"/>
      <point x="575" y="914" type="line"/>
      <point x="321" y="914" type="line"/>
      <point x="321" y="239" type="line" smooth="yes"/>
      <point x="321" y="149"/>
      <point x="399" y="60"/>
      <point x="457" y="60" type="qcurve" smooth="yes"/>
      <point x="497" y="60"/>
      <point x="538" y="79" type="qcurve"/>
      <point x="538" y="-5" type="line"/>
      <point x="497" y="-20"/>
    </contour>
  </outline>
</glyph>
<glyph name="w" format="2">
  <advance width="1406"/>
  <unicode hex="0077"/>
  <outline>
    <contour>
      <point x="1068" y="0" type="line"/>
      <point x="956" y="0" type="line"/>
      <point x="707" y="846" type="line"/>
      <point x="448" y="0" type="line"/>
      <point x="337" y="0" type="line"/>
      <point x="69" y="997" type="line"/>
      <point x="181" y="997" type="line"/>
      <point x="403" y="153" type="line"/>
      <point x="652" y="997" type="line"/>
      <point x="756" y="997" type="line"/>
      <point x="1005" y="155" type="line"/>
      <point x="1223" y="997" type="line"/>
      <point x="1336" y="997" type="line"/>
    </contour>
  </outline>
</glyph>
<glyph name="y" format="2">
  <advance width="955"/>
  <unicode hex="0079"/>
  <outline>
    <contour>
      <point x="383" y="-432" type="line"/>
      <point x="272" y="-432" type="line"/>
      <point x="438" y="-6" type="line"/>
      <point x="55" y="997" type="line"/>
      <point x="177" y="997" type="line"/>
      <point x="486" y="127" type="line"/>
      <point x="784" y="997" type="line"/>
      <point x="904" y="997" type="line"/>
    </contour>
  </outline>
</glyph>
<glyph name="z" format="2">
  <advance width="902"/>
  <unicode hex="007A"/>
  <outline>
    <contour>
      <point x="818" y="0" type="line"/>
      <point x="75" y="0" type="line"/>
      <point x="75" y="98" type="line"/>
      <point x="710" y="904" type="line"/>
      <point x="103" y="904" type="line"/>
      <point x="103" y="997" type="line"/>
      <point x="818" y="997" type="line"/>
      <point x="818" y="889" type="line"/>
      <point x="190" y="92" type="line"/>
      <point x="818" y="92" type="line"/>
    </contour>
  </outline>
</glyph>
<glyph name="braceleft" format="2">
  <advance width="593"/>
  <unicode hex="007B"/>
  <outline>
    <contour>
      <point x="485" y="-107" type="line"/>
      <point x="473" y="-107"/>
      <point x="462" y="-106" type="qcurve" smooth="yes"/>
      <point x="450" y="-105"/>
      <point x="403" y="-105" type="qcurve" smooth="yes"/>
      <point x="340" y="-105"/>
      <point x="268" y="-56" type="qcurve"/>
      <point x="232" y="-16"/>
      <point x="232" y="85" type="qcurve"/>
      <point x="226" y="462" type="line"/>
      <point x="226" y="461"/>
      <point x="234" y="453" type="qcurve"/>
      <point x="234" y="464" type="line" smooth="yes"/>
      <point x="234" y="548"/>
      <point x="100" y="596" type="qcurve"/>
      <point x="100" y="689" type="line"/>
      <point x="163" y="702"/>
      <point x="232" y="785"/>
      <point x="232" y="850" type="qcurve" smooth="yes"/>
      <point x="232" y="1280" type="line" smooth="yes"/>
      <point x="232" y="1376"/>
      <point x="319" y="1473"/>
      <point x="424" y="1473" type="qcurve" smooth="yes"/>
      <point x="476" y="1473"/>
      <point x="507" y="1475" type="qcurve"/>
      <point x="509" y="1474" type="line"/>
      <point x="509" y="1420" type="line"/>
      <point x="493" y="1422"/>
      <point x="473" y="1423" type="qcurve"/>
      <point x="414" y="1420"/>
      <point x="404" y="1417" type="qcurve" smooth="yes"/>
      <point x="334" y="1400"/>
      <point x="334" y="1346" type="qcurve" smooth="yes"/>
      <point x="334" y="838" type="line" smooth="yes"/>
      <point x="334" y="769"/>
      <point x="243" y="676"/>
      <point x="133" y="635" type="qcurve"/>
      <point x="241" y="600"/>
      <point x="334" y="528"/>
      <point x="334" y="470" type="qcurve" smooth="yes"/>
      <point x="334" y="104" type="line" smooth="yes"/>
      <point x="334" y="-57"/>
      <point x="484" y="-57" type="qcurve" smooth="yes"/>
      <point x="502" y="-57"/>
      <point x="509" y="-53" type="qcurve"/>
      <point x="509" y="-106" type="line"/>
    </contour>
  </outline>
</glyph>
<glyph name="asciitilde" format="2">
  <advance width="1166"/>
  <unicode hex="007E"/>
  <outline>
    <contour>
      <point x="742" y="381" type="qcurve" smooth="yes"/>
      <point x="668" y="381"/>
      <point x="599" y="445" type="qcurve" smooth="yes"/>
      <point x="572" y="470"/>
      <point x="534" y="511" type="qcurve" smooth="yes"/>
      <point x="503" y="546"/>
      <point x="480" y="562" type="qcurve" smooth="yes"/>
      <point x="449" y="583"/>
      <point x="409" y="583" type="qcurve" smooth="yes"/>
      <point x="348" y="583"/>
      <point x="318" y="528" type="qcurve"/>
      <point x="294" y="487"/>
      <point x="294" y="408" type="qcurve"/>
      <point x="229" y="408" type="line"/>
      <point x="229" y="510"/>
      <point x="274" y="577" type="qcurve" smooth="yes"/>
      <point x="321" y="648"/>
      <point x="405" y="648" type="qcurve" smooth="yes"/>
      <point x="495" y="648"/>
      <point x="564" y="580" type="qcurve"/>
      <point x="639" y="500"/>
      <point x="659" y="484" type="qcurve"/>
      <point x="698" y="450"/>
      <point x="748" y="450" type="qcurve" smooth="yes"/>
      <point x="809" y="450"/>
      <point x="867" y="556"/>
      <point x="867" y="642" type="qcurve"/>
      <point x="940" y="642" type="line"/>
      <point x="940" y="518"/>
      <point x="834" y="381"/>
    </contour>
  </outline>
</glyph>
<glyph name="exclamdown" format="2">
  <advance width="629"/>
  <unicode hex="00A1"/>
  <outline>
    <contour>
      <point x="394" y="838" type="line"/>
      <point x="232" y="838" type="line"/>
      <point x="232" y="997" type="line"/>
      <point x="394" y="997" type="line"/>
    </contour>
    <contour>
      <point x="382" y="-438" type="line"/>
      <point x="245" y="-438" type="line"/>
      <point x="273" y="635" type="line"/>
      <point x="353" y="635" type="line"/>
    </contour>
  </outline>
</glyph>
<glyph name="section" format="2">
  <advance width="1135"/>
  <unicode hex="00A7"/>
  <outline>
    <contour>
      <point x="573" y="-18" type="qcurve" smooth="yes"/>
      <point x="430" y="-18"/>
      <point x="225" y="117"/>
      <point x="179" y="256" type="qcurve"/>
      <point x="273" y="292" type="line"/>
      <point x="325" y="80"/>
      <point x="571" y="80" type="qcurve" smooth="yes"/>
      <point x="828" y="80"/>
      <point x="828" y="270" type="qcurve" smooth="yes"/>
      <point x="828" y="326"/>
      <point x="767" y="389"/>
      <point x="652" y="428"/>
      <point x="568" y="445" type="qcurve"/>
      <point x="461" y="465"/>
      <point x="308" y="525"/>
      <point x="227" y="632"/>
      <point x="227" y="727" type="qcurve" smooth="yes"/>
      <point x="227" y="789"/>
      <point x="283" y="904"/>
      <point x="339" y="948" type="qcurve"/>
      <point x="285" y="983"/>
      <point x="229" y="1088"/>
      <point x="229" y="1147" type="qcurve" smooth="yes"/>
      <point x="229" y="1235"/>
      <point x="321" y="1365"/>
      <point x="471" y="1434"/>
      <point x="559" y="1434" type="qcurve" smooth="yes"/>
      <point x="824" y="1434"/>
      <point x="922" y="1167" type="qcurve"/>
      <point x="814" y="1150" type="line"/>
      <point x="763" y="1334"/>
      <point x="558" y="1334" type="qcurve" smooth="yes"/>
      <point x="505" y="1334"/>
      <point x="399" y="1295"/>
      <point x="328" y="1211"/>
      <point x="328" y="1143" type="qcurve" smooth="yes"/>
      <point x="328" y="1086"/>
      <point x="397" y="1025"/>
      <point x="512" y="990"/>
      <point x="581" y="976" type="qcurve"/>
      <point x="771" y="940"/>
      <point x="842" y="886" type="qcurve"/>
      <point x="928" y="817"/>
      <point x="928" y="688" type="qcurve" smooth="yes"/>
      <point x="928" y="551"/>
      <point x="822" y="471" type="qcurve"/>
      <point x="928" y="396"/>
      <point x="928" y="268" type="qcurve" smooth="yes"/>
      <point x="928" y="167"/>
      <point x="827" y="41"/>
      <point x="664" y="-18"/>
    </contour>
    <contour>
      <point x="705" y="512" type="qcurve"/>
      <point x="828" y="562"/>
      <point x="828" y="698" type="qcurve" smooth="yes"/>
      <point x="828" y="795"/>
      <point x="730" y="844" type="qcurve" smooth="yes"/>
      <point x="668" y="876"/>
      <point x="535" y="900" type="qcurve" smooth="yes"/>
      <point x="496" y="907"/>
      <point x="461" y="915" type="qcurve"/>
      <point x="399" y="890"/>
      <point x="328" y="794"/>
      <point x="328" y="728" type="qcurve" smooth="yes"/>
      <point x="328" y="607"/>
      <point x="511" y="558" type="qcurve" smooth="yes"/>
      <point x="561" y="545"/>
      <point x="611" y="533" type="qcurve"/>
      <point x="642" y="527"/>
    </contour>
  </outline>
</glyph>
<glyph name="dieresis" format="2">
  <advance width="830"/>
  <unicode hex="00A8"/>
  <outline>
    <contour>
      <point x="323" y="1239" type="line"/>
      <point x="174" y="1239" type="line"/>
      <point x="174" y="1413" type="line"/>
      <point x="323" y="1413" type="line"/>
    </contour>
    <contour>
      <point x="654" y="1239" type="line"/>
      <point x="505" y="1239" type="line"/>
      <point x="505" y="1413" type="line"/>
      <point x="654" y="1413" type="line"/>
    </contour>
  </outline>
</glyph>
<glyph name="ordfeminine" format="2">
  <advance width="810"/>
  <unicode hex="00AA"/>
  <outline>
    <contour>
      <point x="321" y="712" type="qcurve" smooth="yes"/>
      <point x="264" y="712"/>
      <point x="163" y="760"/>
      <point x="100" y="851"/>
      <point x="100" y="918" type="qcurve" smooth="yes"/>
      <point x="100" y="1020"/>
      <point x="234" y="1120"/>
      <point x="351" y="1120" type="qcurve" smooth="yes"/>
      <point x="575" y="1120" type="line"/>
      <point x="575" y="1358"/>
      <point x="390" y="1358" type="qcurve" smooth="yes"/>
      <point x="330" y="1358"/>
      <point x="231" y="1298"/>
      <point x="205" y="1259" type="qcurve"/>
      <point x="131" y="1305" type="line"/>
      <point x="221" y="1434"/>
      <point x="394" y="1434" type="qcurve" smooth="yes"/>
      <point x="524" y="1434"/>
      <point x="662" y="1281"/>
      <point x="662" y="1155" type="qcurve" smooth="yes"/>
      <point x="662" y="726" type="line"/>
      <point x="586" y="726" type="line"/>
      <point x="578" y="864" type="line"/>
      <point x="491" y="712"/>
    </contour>
    <contour>
      <point x="347" y="792" type="qcurve" smooth="yes"/>
      <point x="440" y="792"/>
      <point x="575" y="943"/>
      <point x="575" y="1044" type="qcurve"/>
      <point x="362" y="1044" type="line" smooth="yes"/>
      <point x="296" y="1044"/>
      <point x="203" y="976"/>
      <point x="203" y="918" type="qcurve" smooth="yes"/>
      <point x="203" y="861"/>
      <point x="293" y="792"/>
    </contour>
  </outline>
</glyph>
<glyph name="guillemotleft" format="2">
  <advance width="970"/>
  <unicode hex="00AB"/>
  <outline>
    <contour>
      <point x="426" y="203" type="line"/>
      <point x="87" y="511" type="line"/>
      <point x="426" y="818" type="line"/>
      <point x="426" y="684" type="line"/>
      <point x="225" y="511" type="line"/>
      <point x="426" y="336" type="line"/>
    </contour>
    <contour>
      <point x="793" y="203" type="line"/>
      <point x="451" y="511" type="line"/>
      <point x="793" y="818" type="line"/>
      <point x="793" y="684" type="line"/>
      <point x="589" y="511" type="line"/>
      <point x="793" y="336" type="line"/>
    </contour>
  </outline>
</glyph>
<glyph name="logicalnot" format="2">
  <advance width="1282"/>
  <unicode hex="00AC"/>
  <outline>
    <contour>
      <point x="1011" y="292" type="line"/>
      <point x="914" y="292" type="line"/>
      <point x="914" y="700" type="line"/>
      <point x="165" y="700" type="line"/>
      <point x="165" y="794" type="line"/>
      <point x="1011" y="794" type="line"/>
    </contour>
  </outline>
</glyph>
<glyph name="macron" format="2">
  <advance width="872"/>
  <unicode hex="00AF"/>
  <outline>
    <contour>
      <point x="694" y="1203" type="line"/>
      <point x="165" y="1203" type="line"/>
      <point x="165" y="1316" type="line"/>
      <point x="694" y="1316" type="line"/>
    </contour>
  </outline>
</glyph>
<glyph name="degree" format="2">
  <advance width="984"/>
  <unicode hex="00B0"/>
  <outline>
    <contour>
      <point x="493" y="852" type="qcurve" smooth="yes"/>
      <point x="417" y="852"/>
      <point x="284" y="927"/>
      <point x="203" y="1058"/>
      <point x="203" y="1143" type="qcurve" smooth="yes"/>
      <point x="203" y="1220"/>
      <point x="278" y="1352"/>
      <point x="409" y="1434"/>
      <point x="493" y="1434" type="qcurve" smooth="yes"/>
      <point x="569" y="1434"/>
      <point x="701" y="1357"/>
      <point x="782" y="1224"/>
      <point x="782" y="1143" type="qcurve" smooth="yes"/>
      <point x="782" y="1059"/>
      <point x="701" y="927"/>
      <point x="569" y="852"/>
    </contour>
    <contour>
      <point x="493" y="911" type="qcurve" smooth="yes"/>
      <point x="538" y="911"/>
      <point x="645" y="961"/>
      <point x="722" y="1064"/>
      <point x="722" y="1143" type="qcurve" smooth="yes"/>
      <point x="722" y="1236"/>
      <point x="586" y="1375"/>
      <point x="493" y="1375" type="qcurve" smooth="yes"/>
      <point x="397" y="1375"/>
      <point x="261" y="1235"/>
      <point x="261" y="1143" type="qcurve" smooth="yes"/>
      <point x="261" y="1049"/>
      <point x="397" y="911"/>
    </contour>
  </outline>
</glyph>
<glyph name="plusminus" format="2">
  <advance width="1321"/>
  <unicode hex="00B1"/>
  <outline>
    <contour>
      <point x="701" y="107" type="line"/>
      <point x="621" y="107" type="line"/>
      <point x="621" y="587" type="line"/>
      <point x="163" y="587" type="line"/>
      <point x="163" y="666" type="line"/>
      <point x="621" y="666" type="line"/>
      <point x="621" y="1142" type="line"/>
      <point x="701" y="1142" type="line"/>
      <point x="701" y="666" type="line"/>
      <point x="1159" y="666" type="line"/>
      <point x="1159" y="587" type="line"/>
      <point x="701" y="587" type="line"/>
    </contour>
    <contour>
      <point x="1159" y="-85" type="line"/>
      <point x="162" y="-85" type="line"/>
      <point x="162" y="-6" type="line"/>
      <point x="1159" y="-6" type="line"/>
    </contour>
  </outline>
</glyph>
<glyph name="threesuperior" format="2">
  <advance width="906"/>
  <unicode hex="00B3"/>
  <outline>
    <contour>
      <point x="429" y="477" type="qcurve" smooth="yes"/>
      <point x="345" y="477"/>
      <point x="206" y="535"/>
      <point x="122" y="654"/>
      <point x="122" y="746" type="qcurve"/>
      <point x="139" y="749"/>
      <point x="157" y="751" type="qcurve" smooth="yes"/>
      <point x="175" y="752"/>
      <point x="192" y="754" type="qcurve"/>
      <point x="192" y="687"/>
      <point x="257" y="593"/>
      <point x="365" y="543"/>
      <point x="429" y="543" type="qcurve" smooth="yes"/>
      <point x="492" y="543"/>
      <point x="610" y="601"/>
      <point x="644" y="663" type="qcurve"/>
      <point x="664" y="703"/>
      <point x="664" y="755" type="qcurve" smooth="yes"/>
      <point x="664" y="822"/>
      <point x="603" y="913"/>
      <point x="501" y="958"/>
      <point x="440" y="958" type="qcurve" smooth="yes"/>
      <point x="390" y="958" type="line"/>
      <point x="390" y="1031" type="line"/>
      <point x="440" y="1031" type="line" smooth="yes"/>
      <point x="486" y="1031"/>
      <point x="564" y="1068"/>
      <point x="612" y="1144"/>
      <point x="612" y="1205" type="qcurve" smooth="yes"/>
      <point x="612" y="1261"/>
      <point x="560" y="1343"/>
      <point x="475" y="1386"/>
      <point x="426" y="1386" type="qcurve" smooth="yes"/>
      <point x="344" y="1386"/>
      <point x="237" y="1284"/>
      <point x="237" y="1208" type="qcurve"/>
      <point x="166" y="1219" type="line"/>
      <point x="166" y="1327"/>
      <point x="312" y="1455"/>
      <point x="426" y="1455" type="qcurve" smooth="yes"/>
      <point x="494" y="1455"/>
      <point x="612" y="1399"/>
      <point x="685" y="1291"/>
      <point x="685" y="1214" type="qcurve" smooth="yes"/>
      <point x="685" y="1143"/>
      <point x="619" y="1033"/>
      <point x="561" y="1001" type="qcurve"/>
      <point x="729" y="949"/>
      <point x="735" y="755" type="qcurve"/>
      <point x="735" y="664"/>
      <point x="655" y="540"/>
      <point x="518" y="477"/>
    </contour>
  </outline>
</glyph>
<glyph name="acute" format="2">
  <advance width="529"/>
  <unicode hex="00B4"/>
  <outline>
    <contour>
      <point x="192" y="1129" type="line"/>
      <point x="83" y="1129" type="line"/>
      <point x="293" y="1413" type="line"/>
      <point x="451" y="1413" type="line"/>
    </contour>
  </outline>
</glyph>
<glyph name="cedilla" format="2">
  <advance width="584"/>
  <unicode hex="00B8"/>
  <anchor x="272" y="-500" name="b.uni0326_2"/>
  <outline>
    <contour>
      <point x="268" y="-499" type="qcurve" smooth="yes"/>
      <point x="208" y="-499"/>
      <point x="160" y="-462" type="qcurve"/>
      <point x="114" y="-431"/>
      <point x="96" y="-381" type="qcurve"/>
      <point x="174" y="-336" type="line"/>
      <point x="178" y="-365"/>
      <point x="206" y="-389" type="qcurve" smooth="yes"/>
      <point x="238" y="-417"/>
      <point x="274" y="-417" type="qcurve" smooth="yes"/>
      <point x="322" y="-417"/>
      <point x="383" y="-353"/>
      <point x="383" y="-309" type="qcurve" smooth="yes"/>
      <point x="383" y="-255"/>
      <point x="333" y="-215" type="qcurve"/>
      <point x="277" y="-175"/>
      <point x="185" y="-175" type="qcurve" smooth="yes"/>
      <point x="161" y="-175" type="line"/>
      <point x="246" y="-6" type="line"/>
      <point x="348" y="-6" type="line"/>
      <point x="342" y="-18" type="line"/>
      <point x="332" y="-35"/>
      <point x="324" y="-53" type="qcurve"/>
      <point x="312" y="-76" type="line"/>
      <point x="304" y="-93"/>
      <point x="294" y="-110" type="qcurve"/>
      <point x="284" y="-130" type="line"/>
      <point x="298" y="-130" type="line" smooth="yes"/>
      <point x="375" y="-130"/>
      <point x="470" y="-228"/>
      <point x="470" y="-301" type="qcurve" smooth="yes"/>
      <point x="470" y="-377"/>
      <point x="417" y="-435" type="qcurve"/>
      <point x="356" y="-499"/>
    </contour>
  </outline>
</glyph>
<glyph name="onesuperior" format="2">
  <advance width="1042"/>
  <unicode hex="00B9"/>
  <outline>
    <contour>
      <point x="579" y="490" type="line"/>
      <point x="498" y="490" type="line"/>
      <point x="498" y="1236" type="line"/>
      <point x="242" y="1236" type="line"/>
      <point x="242" y="1301" type="line"/>
      <point x="384" y="1301" type="line" smooth="yes"/>
      <point x="439" y="1301"/>
      <point x="508" y="1368"/>
      <point x="508" y="1426" type="qcurve" smooth="yes"/>
      <point x="508" y="1441" type="line"/>
      <point x="579" y="1441" type="line"/>
    </contour>
  </outline>
</glyph>
<glyph name="Aring" format="2">
  <advance width="1295"/>
  <unicode hex="00C5"/>
  <outline>
    <contour>
      <point x="1208" y="0" type="line"/>
      <point x="1085" y="0" type="line"/>
      <point x="978" y="308" type="line"/>
      <point x="320" y="308" type="line"/>
      <point x="213" y="0" type="line"/>
      <point x="88" y="0" type="line"/>
      <point x="578" y="1345" type="line"/>
      <point x="525" y="1368"/>
      <point x="459" y="1461"/>
      <point x="459" y="1527" type="qcurve" smooth="yes"/>
      <point x="459" y="1576"/>
      <point x="505" y="1663"/>
      <point x="590" y="1716"/>
      <point x="646" y="1716" type="qcurve" smooth="yes"/>
      <point x="695" y="1716"/>
      <point x="784" y="1669"/>
      <point x="839" y="1583"/>
      <point x="839" y="1527" type="qcurve" smooth="yes"/>
      <point x="839" y="1469"/>
      <point x="773" y="1370"/>
      <point x="719" y="1350" type="qcurve"/>
    </contour>
    <contour>
      <point x="646" y="1422" type="qcurve" smooth="yes"/>
      <point x="688" y="1422"/>
      <point x="751" y="1482"/>
      <point x="751" y="1526" type="qcurve" smooth="yes"/>
      <point x="751" y="1568"/>
      <point x="693" y="1628"/>
      <point x="646" y="1628" type="qcurve" smooth="yes"/>
      <point x="599" y="1628"/>
      <point x="545" y="1571"/>
      <point x="545" y="1526" type="qcurve" smooth="yes"/>
      <point x="545" y="1483"/>
      <point x="599" y="1422"/>
    </contour>
    <contour>
      <point x="940" y="419" type="line"/>
      <point x="650" y="1247" type="line"/>
      <point x="358" y="419" type="line"/>
    </contour>
  </outline>
</glyph>
<glyph name="AE" format="2">
  <advance width="1804"/>
  <unicode hex="00C6"/>
  <outline>
    <contour>
      <point x="1690" y="0" type="line"/>
      <point x="821" y="0" type="line"/>
      <point x="821" y="308" type="line"/>
      <point x="321" y="308" type="line"/>
      <point x="209" y="0" type="line"/>
      <point x="88" y="0" type="line"/>
      <point x="601" y="1413" type="line"/>
      <point x="1690" y="1413" type="line"/>
      <point x="1690" y="1324" type="line"/>
      <point x="939" y="1324" type="line"/>
      <point x="939" y="755" type="line"/>
      <point x="1601" y="755" type="line"/>
      <point x="1601" y="658" type="line"/>
      <point x="939" y="658" type="line"/>
      <point x="939" y="97" type="line"/>
      <point x="1690" y="97" type="line"/>
    </contour>
    <contour>
      <point x="821" y="421" type="line"/>
      <point x="821" y="1324" type="line"/>
      <point x="676" y="1324" type="line"/>
      <point x="355" y="421" type="line"/>
    </contour>
  </outline>
</glyph>
<glyph name="multiply" format="2">
  <advance width="1115"/>
  <unicode hex="00D7"/>
  <outline>
    <contour>
      <point x="896" y="229" type="line"/>
      <point x="559" y="569" type="line"/>
      <point x="233" y="243" type="line"/>
      <point x="176" y="299" type="line"/>
      <point x="501" y="625" type="line"/>
      <point x="164" y="961" type="line"/>
      <point x="219" y="1019" type="line"/>
      <point x="559" y="680" type="line"/>
      <point x="882" y="1005" type="line"/>
      <point x="940" y="949" type="line"/>
      <point x="615" y="625" type="line"/>
      <point x="951" y="287" type="line"/>
    </contour>
  </outline>
</glyph>
<glyph name="Oslash" format="2">
  <advance width="1516"/>
  <unicode hex="00D8"/>
  <outline>
    <contour>
      <point x="757" y="-20" type="qcurve" smooth="yes"/>
      <point x="581" y="-20"/>
      <point x="447" y="57" type="qcurve"/>
      <point x="415" y="0" type="line"/>
      <point x="316" y="0" type="line"/>
      <point x="345" y="52"/>
      <point x="376" y="109" type="qcurve"/>
      <point x="260" y="210"/>
      <point x="143" y="522"/>
      <point x="143" y="707" type="qcurve" smooth="yes"/>
      <point x="143" y="956"/>
      <point x="354" y="1335"/>
      <point x="568" y="1407" type="qcurve"/>
      <point x="654" y="1434"/>
      <point x="757" y="1434" type="qcurve" smooth="yes"/>
      <point x="929" y="1434"/>
      <point x="1064" y="1358" type="qcurve"/>
      <point x="1096" y="1413" type="line"/>
      <point x="1195" y="1413" type="line"/>
      <point x="1136" y="1307" type="line"/>
      <point x="1253" y="1205"/>
      <point x="1372" y="893"/>
      <point x="1372" y="707" type="qcurve" smooth="yes"/>
      <point x="1372" y="563"/>
      <point x="1301" y="303"/>
      <point x="1147" y="99"/>
      <point x="1026" y="38" type="qcurve" smooth="yes"/>
      <point x="911" y="-20"/>
    </contour>
    <contour>
      <point x="429" y="206" type="qcurve"/>
      <point x="1013" y="1262" type="line"/>
      <point x="899" y="1325"/>
      <point x="757" y="1325" type="qcurve" smooth="yes"/>
      <point x="505" y="1325"/>
      <point x="370" y="1137" type="qcurve" smooth="yes"/>
      <point x="247" y="965"/>
      <point x="247" y="707" type="qcurve" smooth="yes"/>
      <point x="247" y="550"/>
      <point x="338" y="292"/>
    </contour>
    <contour>
      <point x="757" y="88" type="qcurve" smooth="yes"/>
      <point x="1008" y="88"/>
      <point x="1145" y="272" type="qcurve" smooth="yes"/>
      <point x="1271" y="441"/>
      <point x="1271" y="707" type="qcurve" smooth="yes"/>
      <point x="1271" y="860"/>
      <point x="1179" y="1122"/>
      <point x="1085" y="1210" type="qcurve"/>
      <point x="500" y="154" type="line"/>
      <point x="605" y="88"/>
    </contour>
  </outline>
</glyph>
<glyph name="divide" format="2">
  <advance width="837"/>
  <unicode hex="00F7"/>
  <outline>
    <contour>
      <point x="493" y="935" type="line"/>
      <point x="332" y="935" type="line"/>
      <point x="332" y="1095" type="line"/>
      <point x="493" y="1095" type="line"/>
    </contour>
    <contour>
      <point x="679" y="588" type="line"/>
      <point x="145" y="588" type="line"/>
      <point x="145" y="667" type="line"/>
      <point x="679" y="667" type="line"/>
    </contour>
    <contour>
      <point x="493" y="142" type="line"/>
      <point x="332" y="142" type="line"/>
      <point x="332" y="301" type="line"/>
      <point x="493" y="301" type="line"/>
    </contour>
  </outline>
</glyph>
<glyph name="thorn" format="2">
  <advance width="1140"/>
  <unicode hex="00FE"/>
  <outline>
    <contour>
      <point x="310" y="-440" type="line"/>
      <point x="186" y="-440" type="line"/>
      <point x="186" y="1413" type="line"/>
      <point x="310" y="1413" type="line"/>
      <point x="310" y="826" type="line"/>
      <point x="417" y="1018"/>
      <point x="644" y="1018" type="qcurve" smooth="yes"/>
      <point x="767" y="1018"/>
      <point x="937" y="880"/>
      <point x="1026" y="644"/>
      <point x="1026" y="499" type="qcurve" smooth="yes"/>
      <point x="1026" y="352"/>
      <point x="936" y="117"/>
      <point x="765" y="-20"/>
      <point x="644" y="-20" type="qcurve" smooth="yes"/>
      <point x="420" y="-20"/>
      <point x="310" y="172" type="qcurve"/>
    </contour>
    <contour>
      <point x="603" y="83" type="qcurve" smooth="yes"/>
      <point x="708" y="83"/>
      <point x="844" y="199"/>
      <point x="908" y="388"/>
      <point x="908" y="499" type="qcurve" smooth="yes"/>
      <point x="908" y="667"/>
      <point x="839" y="782" type="qcurve" smooth="yes"/>
      <point x="760" y="914"/>
      <point x="603" y="914" type="qcurve" smooth="yes"/>
      <point x="500" y="914"/>
      <point x="363" y="800"/>
      <point x="295" y="612"/>
      <point x="295" y="499" type="qcurve" smooth="yes"/>
      <point x="295" y="390"/>
      <point x="359" y="201"/>
      <point x="495" y="83"/>
    </contour>
  </outline>
</glyph>
<glyph name="Amacron" format="2">
  <advance width="1290"/>
  <unicode hex="0100"/>
  <outline>
    <contour>
      <point x="911" y="1617" type="line"/>
      <point x="382" y="1617" type="line"/>
      <point x="382" y="1730" type="line"/>
      <point x="911" y="1730" type="line"/>
    </contour>
    <contour>
      <point x="1208" y="0" type="line"/>
      <point x="1085" y="0" type="line"/>
      <point x="978" y="308" type="line"/>
      <point x="320" y="308" type="line"/>
      <point x="213" y="0" type="line"/>
      <point x="88" y="0" type="line"/>
      <point x="604" y="1413" type="line"/>
      <point x="694" y="1413" type="line"/>
    </contour>
    <contour>
      <point x="940" y="419" type="line"/>
      <point x="650" y="1247" type="line"/>
      <point x="358" y="419" type="line"/>
    </contour>
  </outline>
</glyph>
<glyph name="Abreve" format="2">
  <advance width="1290"/>
  <unicode hex="0102"/>
  <outline>
    <contour>
      <point x="644" y="1562" type="qcurve" smooth="yes"/>
      <point x="567" y="1562"/>
      <point x="429" y="1620"/>
      <point x="343" y="1739"/>
      <point x="343" y="1827" type="qcurve"/>
      <point x="459" y="1827" type="line"/>
      <point x="459" y="1758"/>
      <point x="567" y="1657"/>
      <point x="644" y="1657" type="qcurve" smooth="yes"/>
      <point x="719" y="1657"/>
      <point x="828" y="1748"/>
      <point x="828" y="1827" type="qcurve"/>
      <point x="945" y="1827" type="line"/>
      <point x="945" y="1742"/>
      <point x="863" y="1623"/>
      <point x="727" y="1562"/>
    </contour>
    <contour>
      <point x="1208" y="0" type="line"/>
      <point x="1085" y="0" type="line"/>
      <point x="978" y="308" type="line"/>
      <point x="320" y="308" type="line"/>
      <point x="213" y="0" type="line"/>
      <point x="88" y="0" type="line"/>
      <point x="604" y="1413" type="line"/>
      <point x="694" y="1413" type="line"/>
    </contour>
    <contour>
      <point x="940" y="419" type="line"/>
      <point x="650" y="1247" type="line"/>
      <point x="358" y="419" type="line"/>
    </contour>
  </outline>
</glyph>
<glyph name="Aogonek" format="2">
  <advance width="1290"/>
  <unicode hex="0104"/>
  <outline>
    <contour>
      <point x="1208" y="0" type="line"/>
      <point x="1085" y="0" type="line"/>
      <point x="978" y="308" type="line"/>
      <point x="320" y="308" type="line"/>
      <point x="213" y="0" type="line"/>
      <point x="88" y="0" type="line"/>
      <point x="604" y="1413" type="line"/>
      <point x="694" y="1413" type="line"/>
    </contour>
    <contour>
      <point x="940" y="419" type="line"/>
      <point x="650" y="1247" type="line"/>
      <point x="358" y="419" type="line"/>
    </contour>
    <contour>
      <point x="1075" y="-453" type="qcurve" smooth="yes"/>
      <point x="1024" y="-453"/>
      <point x="935" y="-405"/>
      <point x="880" y="-314"/>
      <point x="880" y="-250" type="qcurve" smooth="yes"/>
      <point x="880" y="-103"/>
      <point x="1051" y="-30" type="qcurve"/>
      <point x="1076" y="-16"/>
      <point x="1102" y="-6" type="qcurve"/>
      <point x="1202" y="0" type="line"/>
      <point x="1171" y="-13" type="line" smooth="yes"/>
      <point x="1089" y="-49"/>
      <point x="969" y="-174"/>
      <point x="969" y="-240" type="qcurve" smooth="yes"/>
      <point x="969" y="-294"/>
      <point x="1026" y="-359"/>
      <point x="1065" y="-359" type="qcurve" smooth="yes"/>
      <point x="1153" y="-359"/>
      <point x="1196" y="-294" type="qcurve"/>
      <point x="1272" y="-347" type="line"/>
      <point x="1203" y="-453"/>
    </contour>
  </outline>
</glyph>
<glyph name="aogonek" format="2">
  <advance width="1013"/>
  <unicode hex="0105"/>
  <outline>
    <contour>
      <point x="728" y="-453" type="qcurve" smooth="yes"/>
      <point x="646" y="-453"/>
      <point x="533" y="-343"/>
      <point x="533" y="-250" type="qcurve" smooth="yes"/>
      <point x="533" y="-77"/>
      <point x="766" y="-5" type="qcurve"/>
      <point x="766" y="104"/>
      <point x="768" y="226" type="qcurve"/>
      <point x="709" y="95"/>
      <point x="512" y="-20"/>
      <point x="395" y="-20" type="qcurve" smooth="yes"/>
      <point x="259" y="-20"/>
      <point x="90" y="131"/>
      <point x="90" y="263" type="qcurve" smooth="yes"/>
      <point x="90" y="415"/>
      <point x="321" y="557"/>
      <point x="544" y="557" type="qcurve" smooth="yes"/>
      <point x="765" y="557" type="line"/>
      <point x="765" y="673"/>
      <point x="712" y="837"/>
      <point x="593" y="924"/>
      <point x="495" y="924" type="qcurve" smooth="yes"/>
      <point x="423" y="924"/>
      <point x="311" y="881"/>
      <point x="227" y="813"/>
      <point x="200" y="774" type="qcurve"/>
      <point x="126" y="833" type="line"/>
      <point x="256" y="1014"/>
      <point x="484" y="1014" type="qcurve" smooth="yes"/>
      <point x="665" y="1014"/>
      <point x="856" y="798"/>
      <point x="856" y="615" type="qcurve" smooth="yes"/>
      <point x="856" y="0" type="line"/>
      <point x="824" y="-14" type="line" smooth="yes"/>
      <point x="621" y="-105"/>
      <point x="621" y="-240" type="qcurve" smooth="yes"/>
      <point x="621" y="-288"/>
      <point x="672" y="-359"/>
      <point x="717" y="-359" type="qcurve" smooth="yes"/>
      <point x="805" y="-359"/>
      <point x="848" y="-294" type="qcurve"/>
      <point x="925" y="-347" type="line"/>
      <point x="888" y="-399"/>
      <point x="794" y="-453"/>
    </contour>
    <contour>
      <point x="406" y="67" type="qcurve" smooth="yes"/>
      <point x="566" y="67"/>
      <point x="669" y="197" type="qcurve" smooth="yes"/>
      <point x="765" y="318"/>
      <point x="765" y="475" type="qcurve"/>
      <point x="547" y="475" type="line" smooth="yes"/>
      <point x="369" y="475"/>
      <point x="200" y="378"/>
      <point x="200" y="262" type="qcurve" smooth="yes"/>
      <point x="200" y="161"/>
      <point x="314" y="67"/>
    </contour>
  </outline>
</glyph>
<glyph name="cdot" format="2">
  <advance width="966"/>
  <unicode hex="010B"/>
  <outline>
    <contour>
      <point x="586" y="1239" type="line"/>
      <point x="452" y="1239" type="line"/>
      <point x="452" y="1413" type="line"/>
      <point x="586" y="1413" type="line"/>
    </contour>
    <contour>
      <point x="524" y="-20" type="qcurve" smooth="yes"/>
      <point x="389" y="-20"/>
      <point x="205" y="120"/>
      <point x="110" y="356"/>
      <point x="110" y="497" type="qcurve" smooth="yes"/>
      <point x="110" y="641"/>
      <point x="221" y="900"/>
      <point x="343" y="972" type="qcurve"/>
      <point x="419" y="1014"/>
      <point x="522" y="1014" type="qcurve" smooth="yes"/>
      <point x="655" y="1014"/>
      <point x="842" y="877"/>
      <point x="891" y="769" type="qcurve"/>
      <point x="792" y="722" type="line"/>
      <point x="768" y="799"/>
      <point x="616" y="913"/>
      <point x="522" y="913" type="qcurve" smooth="yes"/>
      <point x="367" y="913"/>
      <point x="291" y="788" type="qcurve" smooth="yes"/>
      <point x="219" y="670"/>
      <point x="219" y="497" type="qcurve" smooth="yes"/>
      <point x="219" y="326"/>
      <point x="287" y="208" type="qcurve" smooth="yes"/>
      <point x="361" y="80"/>
      <point x="522" y="80" type="qcurve" smooth="yes"/>
      <point x="621" y="80"/>
      <point x="770" y="197"/>
      <point x="792" y="272" type="qcurve"/>
      <point x="880" y="230" type="line"/>
      <point x="834" y="107"/>
      <point x="647" y="-20"/>
    </contour>
  </outline>
</glyph>
<glyph name="Ccaron" format="2">
  <advance width="1415"/>
  <unicode hex="010C"/>
  <outline>
    <contour>
      <point x="718" y="1501" type="line"/>
      <point x="390" y="1827" type="line"/>
      <point x="534" y="1827" type="line"/>
      <point x="718" y="1626" type="line"/>
      <point x="904" y="1827" type="line"/>
      <point x="1046" y="1827" type="line"/>
    </contour>
    <contour>
      <point x="761" y="-20" type="qcurve" smooth="yes"/>
      <point x="463" y="-20"/>
      <point x="300" y="187" type="qcurve" smooth="yes"/>
      <point x="146" y="383"/>
      <point x="146" y="707" type="qcurve" smooth="yes"/>
      <point x="146" y="1018"/>
      <point x="290" y="1213" type="qcurve" smooth="yes"/>
      <point x="454" y="1436"/>
      <point x="759" y="1436" type="qcurve" smooth="yes"/>
      <point x="959" y="1436"/>
      <point x="1237" y="1244"/>
      <point x="1313" y="1075" type="qcurve"/>
      <point x="1210" y="1027" type="line"/>
      <point x="1156" y="1182"/>
      <point x="920" y="1324"/>
      <point x="757" y="1324" type="qcurve" smooth="yes"/>
      <point x="511" y="1324"/>
      <point x="389" y="1151" type="qcurve"/>
      <point x="269" y="984"/>
      <point x="269" y="717" type="qcurve" smooth="yes"/>
      <point x="269" y="590"/>
      <point x="323" y="363"/>
      <point x="444" y="187"/>
      <point x="533" y="143" type="qcurve"/>
      <point x="628" y="91"/>
      <point x="761" y="91" type="qcurve" smooth="yes"/>
      <point x="1097" y="91"/>
      <point x="1211" y="391" type="qcurve"/>
      <point x="1315" y="342" type="line"/>
      <point x="1236" y="168"/>
      <point x="949" y="-20"/>
    </contour>
  </outline>
</glyph>
<glyph name="dcaron" format="2">
  <advance width="1161"/>
  <unicode hex="010F"/>
  <outline>
    <contour>
      <point x="499" y="-20" type="qcurve" smooth="yes"/>
      <point x="376" y="-20"/>
      <point x="203" y="120"/>
      <point x="112" y="356"/>
      <point x="112" y="499" type="qcurve" smooth="yes"/>
      <point x="112" y="640"/>
      <point x="203" y="877"/>
      <point x="376" y="1018"/>
      <point x="500" y="1018" type="qcurve" smooth="yes"/>
      <point x="709" y="1018"/>
      <point x="828" y="839" type="qcurve"/>
      <point x="828" y="1413" type="line"/>
      <point x="932" y="1413" type="line"/>
      <point x="932" y="0" type="line"/>
      <point x="828" y="0" type="line"/>
      <point x="828" y="159" type="line"/>
      <point x="767" y="68"/>
      <point x="615" y="-20"/>
    </contour>
    <contour>
      <point x="1137" y="1046" type="line"/>
      <point x="1050" y="1046" type="line"/>
      <point x="1074" y="1137"/>
      <point x="1099" y="1229" type="qcurve" smooth="yes"/>
      <point x="1124" y="1320"/>
      <point x="1147" y="1413" type="qcurve"/>
      <point x="1335" y="1413" type="line"/>
    </contour>
    <contour>
      <point x="528" y="74" type="qcurve" smooth="yes"/>
      <point x="632" y="74"/>
      <point x="769" y="185"/>
      <point x="837" y="377"/>
      <point x="837" y="499" type="qcurve" smooth="yes"/>
      <point x="837" y="674"/>
      <point x="767" y="788" type="qcurve" smooth="yes"/>
      <point x="687" y="920"/>
      <point x="528" y="920" type="qcurve" smooth="yes"/>
      <point x="423" y="920"/>
      <point x="286" y="804"/>
      <point x="220" y="613"/>
      <point x="220" y="499" type="qcurve" smooth="yes"/>
      <point x="220" y="328"/>
      <point x="288" y="211" type="qcurve" smooth="yes"/>
      <point x="367" y="74"/>
    </contour>
  </outline>
</glyph>
<glyph name="eogonek" format="2">
  <advance width="1029"/>
  <unicode hex="0119"/>
  <outline>
    <contour>
      <point x="643" y="-408" type="qcurve" smooth="yes"/>
      <point x="559" y="-408"/>
      <point x="448" y="-295"/>
      <point x="448" y="-205" type="qcurve" smooth="yes"/>
      <point x="448" y="-90"/>
      <point x="566" y="-12" type="qcurve"/>
      <point x="343" y="-12"/>
      <point x="109" y="259"/>
      <point x="109" y="493" type="qcurve" smooth="yes"/>
      <point x="109" y="592"/>
      <point x="160" y="779"/>
      <point x="263" y="924"/>
      <point x="417" y="1010"/>
      <point x="520" y="1010" type="qcurve" smooth="yes"/>
      <point x="630" y="1010"/>
      <point x="707" y="971" type="qcurve"/>
      <point x="926" y="854"/>
      <point x="926" y="480" type="qcurve"/>
      <point x="925" y="480"/>
      <point x="925" y="475" type="qcurve" smooth="yes"/>
      <point x="925" y="470"/>
      <point x="922" y="464" type="qcurve"/>
      <point x="218" y="464" type="line"/>
      <point x="218" y="439" type="line" smooth="yes"/>
      <point x="218" y="289"/>
      <point x="293" y="191" type="qcurve" smooth="yes"/>
      <point x="381" y="75"/>
      <point x="535" y="75" type="qcurve" smooth="yes"/>
      <point x="639" y="75"/>
      <point x="704" y="100" type="qcurve"/>
      <point x="777" y="124"/>
      <point x="831" y="184" type="qcurve"/>
      <point x="902" y="131" type="line"/>
      <point x="803" y="32"/>
      <point x="690" y="6" type="qcurve"/>
      <point x="538" y="-81"/>
      <point x="538" y="-195" type="qcurve" smooth="yes"/>
      <point x="538" y="-245"/>
      <point x="592" y="-314"/>
      <point x="633" y="-314" type="qcurve" smooth="yes"/>
      <point x="717" y="-314"/>
      <point x="765" y="-249" type="qcurve"/>
      <point x="841" y="-302" type="line"/>
      <point x="806" y="-353"/>
      <point x="714" y="-408"/>
    </contour>
    <contour>
      <point x="827" y="557" type="line"/>
      <point x="827" y="582" type="line" smooth="yes"/>
      <point x="827" y="724"/>
      <point x="757" y="813" type="qcurve"/>
      <point x="677" y="912"/>
      <point x="520" y="912" type="qcurve" smooth="yes"/>
      <point x="378" y="912"/>
      <point x="296" y="809" type="qcurve" smooth="yes"/>
      <point x="221" y="715"/>
      <point x="218" y="557" type="qcurve"/>
    </contour>
  </outline>
</glyph>
<glyph name="Iogonek" format="2">
  <advance width="567"/>
  <unicode hex="012E"/>
  <outline>
    <contour>
      <point x="342" y="0" type="line"/>
      <point x="228" y="0" type="line"/>
      <point x="228" y="1413" type="line"/>
      <point x="342" y="1413" type="line"/>
    </contour>
    <contour>
      <point x="211" y="-453" type="qcurve" smooth="yes"/>
      <point x="160" y="-453"/>
      <point x="71" y="-405"/>
      <point x="16" y="-314"/>
      <point x="16" y="-250" type="qcurve" smooth="yes"/>
      <point x="16" y="-103"/>
      <point x="187" y="-30" type="qcurve"/>
      <point x="212" y="-16"/>
      <point x="238" y="-6" type="qcurve"/>
      <point x="338" y="0" type="line"/>
      <point x="307" y="-13" type="line" smooth="yes"/>
      <point x="225" y="-49"/>
      <point x="105" y="-174"/>
      <point x="105" y="-240" type="qcurve" smooth="yes"/>
      <point x="105" y="-294"/>
      <point x="162" y="-359"/>
      <point x="201" y="-359" type="qcurve" smooth="yes"/>
      <point x="289" y="-359"/>
      <point x="332" y="-294" type="qcurve"/>
      <point x="408" y="-347" type="line"/>
      <point x="339" y="-453"/>
    </contour>
  </outline>
</glyph>
<glyph name="Idotaccent" format="2">
  <advance width="567"/>
  <unicode hex="0130"/>
  <outline>
    <contour>
      <point x="346" y="1653" type="line"/>
      <point x="212" y="1653" type="line"/>
      <point x="212" y="1827" type="line"/>
      <point x="346" y="1827" type="line"/>
    </contour>
    <contour>
      <point x="342" y="0" type="line"/>
      <point x="228" y="0" type="line"/>
      <point x="228" y="1413" type="line"/>
      <point x="342" y="1413" type="line"/>
    </contour>
  </outline>
</glyph>
<glyph name="IJ" format="2">
  <advance width="1678"/>
  <unicode hex="0132"/>
  <outline>
    <contour>
      <point x="342" y="0" type="line"/>
      <point x="228" y="0" type="line"/>
      <point x="228" y="1413" type="line"/>
      <point x="342" y="1413" type="line"/>
    </contour>
    <contour>
      <point x="1062" y="-20" type="qcurve" smooth="yes"/>
      <point x="936" y="-20"/>
      <point x="761" y="89"/>
      <point x="666" y="267"/>
      <point x="658" y="374" type="qcurve"/>
      <point x="685" y="379"/>
      <point x="714" y="383" type="qcurve" smooth="yes"/>
      <point x="742" y="386"/>
      <point x="768" y="390" type="qcurve"/>
      <point x="773" y="312"/>
      <point x="838" y="168"/>
      <point x="965" y="75"/>
      <point x="1062" y="75" type="qcurve" smooth="yes"/>
      <point x="1178" y="75"/>
      <point x="1243" y="127" type="qcurve" smooth="yes"/>
      <point x="1361" y="220"/>
      <point x="1361" y="464" type="qcurve" smooth="yes"/>
      <point x="1361" y="1321" type="line"/>
      <point x="826" y="1321" type="line"/>
      <point x="826" y="1413" type="line"/>
      <point x="1477" y="1413" type="line"/>
      <point x="1477" y="498" type="line" smooth="yes"/>
      <point x="1477" y="-20"/>
    </contour>
  </outline>
</glyph>
<glyph name="ij" format="2">
  <advance width="943"/>
  <unicode hex="0133"/>
  <outline>
    <contour>
      <point x="773" y="1253" type="line"/>
      <point x="638" y="1253" type="line"/>
      <point x="638" y="1420" type="line"/>
      <point x="773" y="1420" type="line"/>
    </contour>
    <contour>
      <point x="304" y="1239" type="line"/>
      <point x="171" y="1239" type="line"/>
      <point x="171" y="1413" type="line"/>
      <point x="304" y="1413" type="line"/>
    </contour>
    <contour>
      <point x="291" y="0" type="line"/>
      <point x="182" y="0" type="line"/>
      <point x="182" y="997" type="line"/>
      <point x="291" y="997" type="line"/>
    </contour>
    <contour>
      <point x="522" y="-440" type="qcurve" smooth="yes"/>
      <point x="496" y="-440"/>
      <point x="413" y="-422"/>
      <point x="384" y="-411" type="qcurve"/>
      <point x="403" y="-323" type="line"/>
      <point x="419" y="-328"/>
      <point x="498" y="-338"/>
      <point x="527" y="-338" type="qcurve" smooth="yes"/>
      <point x="591" y="-338"/>
      <point x="654" y="-258"/>
      <point x="654" y="-201" type="qcurve" smooth="yes"/>
      <point x="654" y="997" type="line"/>
      <point x="763" y="997" type="line"/>
      <point x="763" y="-180" type="line" smooth="yes"/>
      <point x="763" y="-257"/>
      <point x="713" y="-374"/>
      <point x="608" y="-440"/>
    </contour>
  </outline>
</glyph>
<glyph name="lcaron" format="2">
  <advance width="530"/>
  <unicode hex="013E"/>
  <outline>
    <contour>
      <point x="319" y="-20" type="qcurve" smooth="yes"/>
      <point x="189" y="-20"/>
      <point x="182" y="93" type="qcurve" smooth="yes"/>
      <point x="180" y="127"/>
      <point x="180" y="1413" type="qcurve"/>
      <point x="286" y="1413" type="line"/>
      <point x="286" y="102" type="line"/>
      <point x="292" y="89"/>
      <point x="295" y="85" type="qcurve" smooth="yes"/>
      <point x="308" y="67"/>
      <point x="332" y="67" type="qcurve"/>
      <point x="347" y="68"/>
      <point x="361" y="68" type="qcurve" smooth="yes"/>
      <point x="374" y="68"/>
      <point x="423" y="76"/>
      <point x="432" y="79" type="qcurve"/>
      <point x="432" y="-1" type="line"/>
      <point x="384" y="-20"/>
    </contour>
    <contour>
      <point x="504" y="1046" type="line"/>
      <point x="418" y="1046" type="line"/>
      <point x="441" y="1137"/>
      <point x="466" y="1229" type="qcurve" smooth="yes"/>
      <point x="491" y="1320"/>
      <point x="515" y="1413" type="qcurve"/>
      <point x="702" y="1413" type="line"/>
    </contour>
  </outline>
</glyph>
<glyph name="ldot" format="2">
  <advance width="581"/>
  <unicode hex="0140"/>
  <outline>
    <contour>
      <point x="320" y="-20" type="qcurve" smooth="yes"/>
      <point x="189" y="-20"/>
      <point x="182" y="93" type="qcurve" smooth="yes"/>
      <point x="180" y="127"/>
      <point x="180" y="1413" type="qcurve"/>
      <point x="287" y="1413" type="line"/>
      <point x="288" y="107" type="line"/>
      <point x="294" y="94"/>
      <point x="297" y="90" type="qcurve" smooth="yes"/>
      <point x="309" y="72"/>
      <point x="333" y="72" type="qcurve"/>
      <point x="348" y="73"/>
      <point x="362" y="73" type="qcurve" smooth="yes"/>
      <point x="375" y="73"/>
      <point x="425" y="81"/>
      <point x="433" y="84" type="qcurve"/>
      <point x="432" y="-1" type="line"/>
      <point x="385" y="-20"/>
    </contour>
    <contour>
      <point x="468" y="585" type="qcurve" smooth="yes"/>
      <point x="421" y="585"/>
      <point x="356" y="652"/>
      <point x="356" y="697" type="qcurve" smooth="yes"/>
      <point x="356" y="746"/>
      <point x="419" y="810"/>
      <point x="468" y="810" type="qcurve" smooth="yes"/>
      <point x="516" y="810"/>
      <point x="580" y="744"/>
      <point x="580" y="697" type="qcurve" smooth="yes"/>
      <point x="580" y="652"/>
      <point x="515" y="585"/>
    </contour>
  </outline>
</glyph>
<glyph name="lslash" format="2">
  <advance width="497"/>
  <unicode hex="0142"/>
  <outline>
    <contour>
      <point x="180" y="530" type="qcurve"/>
      <point x="-15" y="310" type="line"/>
      <point x="-15" y="416" type="line"/>
      <point x="180" y="636" type="line"/>
      <point x="180" y="1413" type="line"/>
      <point x="287" y="1413" type="line"/>
      <point x="288" y="758" type="line"/>
      <point x="498" y="994" type="line"/>
      <point x="498" y="889" type="line"/>
      <point x="288" y="652" type="line"/>
      <point x="288" y="107" type="line"/>
      <point x="294" y="94"/>
      <point x="297" y="90" type="qcurve" smooth="yes"/>
      <point x="309" y="72"/>
      <point x="333" y="72" type="qcurve"/>
      <point x="348" y="73"/>
      <point x="362" y="73" type="qcurve" smooth="yes"/>
      <point x="375" y="73"/>
      <point x="425" y="81"/>
      <point x="433" y="84" type="qcurve"/>
      <point x="432" y="-1" type="line"/>
      <point x="385" y="-20"/>
      <point x="320" y="-20" type="qcurve" smooth="yes"/>
      <point x="189" y="-20"/>
      <point x="182" y="93" type="qcurve" smooth="yes"/>
      <point x="181" y="112"/>
    </contour>
  </outline>
</glyph>
<glyph name="Eng" format="2">
  <advance width="1412"/>
  <unicode hex="014A"/>
  <outline>
    <contour>
      <point x="921" y="-370" type="qcurve" smooth="yes"/>
      <point x="860" y="-370" type="line"/>
      <point x="860" y="-271" type="line"/>
      <point x="955" y="-271"/>
      <point x="1010" y="-232" type="qcurve"/>
      <point x="1013" y="-212"/>
      <point x="1025" y="-203" type="qcurve"/>
      <point x="1039" y="-176"/>
      <point x="1039" y="-148" type="qcurve" smooth="yes"/>
      <point x="1039" y="-113"/>
      <point x="1024" y="-82" type="qcurve" smooth="yes"/>
      <point x="345" y="1338" type="line"/>
      <point x="345" y="0" type="line"/>
      <point x="228" y="0" type="line"/>
      <point x="228" y="1413" type="line"/>
      <point x="434" y="1413" type="line"/>
      <point x="1066" y="75" type="line"/>
      <point x="1066" y="1413" type="line"/>
      <point x="1182" y="1413" type="line"/>
      <point x="1182" y="-3" type="line" smooth="yes"/>
      <point x="1182" y="-194"/>
      <point x="1060" y="-370"/>
    </contour>
  </outline>
</glyph>
<glyph name="eng" format="2">
  <advance width="1109"/>
  <unicode hex="014B"/>
  <outline>
    <contour>
      <point x="702" y="-370" type="qcurve" smooth="yes"/>
      <point x="636" y="-370" type="line"/>
      <point x="636" y="-276" type="line"/>
      <point x="681" y="-276" type="line" smooth="yes"/>
      <point x="839" y="-276"/>
      <point x="839" y="-100" type="qcurve" smooth="yes"/>
      <point x="839" y="601" type="line" smooth="yes"/>
      <point x="839" y="904"/>
      <point x="614" y="904" type="qcurve" smooth="yes"/>
      <point x="524" y="904"/>
      <point x="378" y="813"/>
      <point x="292" y="663"/>
      <point x="292" y="576" type="qcurve" smooth="yes"/>
      <point x="292" y="0" type="line"/>
      <point x="182" y="0" type="line"/>
      <point x="182" y="997" type="line"/>
      <point x="292" y="997" type="line"/>
      <point x="292" y="818" type="line"/>
      <point x="341" y="907"/>
      <point x="516" y="1014"/>
      <point x="617" y="1014" type="qcurve" smooth="yes"/>
      <point x="733" y="1014"/>
      <point x="880" y="909"/>
      <point x="949" y="726"/>
      <point x="949" y="609" type="qcurve" smooth="yes"/>
      <point x="949" y="-94" type="line" smooth="yes"/>
      <point x="949" y="-206"/>
      <point x="905" y="-286" type="qcurve"/>
      <point x="857" y="-370"/>
    </contour>
  </outline>
</glyph>
<glyph name="OE" format="2">
  <advance width="2249"/>
  <unicode hex="0152"/>
  <outline>
    <contour>
      <point x="757" y="-20" type="qcurve" smooth="yes"/>
      <point x="465" y="-20"/>
      <point x="300" y="188" type="qcurve" smooth="yes"/>
      <point x="143" y="387"/>
      <point x="143" y="707" type="qcurve" smooth="yes"/>
      <point x="143" y="1011"/>
      <point x="288" y="1209" type="qcurve" smooth="yes"/>
      <point x="454" y="1434"/>
      <point x="757" y="1434" type="qcurve" smooth="yes"/>
      <point x="955" y="1434"/>
      <point x="1193" y="1268"/>
      <point x="1258" y="1099" type="qcurve"/>
      <point x="1258" y="1413" type="line"/>
      <point x="2139" y="1413" type="line"/>
      <point x="2139" y="1321" type="line"/>
      <point x="1372" y="1321" type="line"/>
      <point x="1372" y="751" type="line"/>
      <point x="2040" y="751" type="line"/>
      <point x="2040" y="664" type="line"/>
      <point x="1372" y="664" type="line"/>
      <point x="1372" y="101" type="line"/>
      <point x="2139" y="101" type="line"/>
      <point x="2139" y="0" type="line"/>
      <point x="1258" y="0" type="line"/>
      <point x="1258" y="316" type="line"/>
      <point x="1200" y="151"/>
      <point x="957" y="-20"/>
    </contour>
    <contour>
      <point x="757" y="79" type="qcurve" smooth="yes"/>
      <point x="1007" y="79"/>
      <point x="1138" y="265" type="qcurve" smooth="yes"/>
      <point x="1258" y="435"/>
      <point x="1258" y="707" type="qcurve" smooth="yes"/>
      <point x="1258" y="970"/>
      <point x="1144" y="1138" type="qcurve" smooth="yes"/>
      <point x="1012" y="1334"/>
      <point x="757" y="1334" type="qcurve" smooth="yes"/>
      <point x="509" y="1334"/>
      <point x="377" y="1145" type="qcurve" smooth="yes"/>
      <point x="258" y="974"/>
      <point x="258" y="707" type="qcurve" smooth="yes"/>
      <point x="258" y="442"/>
      <point x="375" y="271" type="qcurve" smooth="yes"/>
      <point x="508" y="79"/>
    </contour>
  </outline>
</glyph>
<glyph name="oe" format="2">
  <advance width="1774"/>
  <unicode hex="0153"/>
  <outline>
    <contour>
      <point x="949" y="751" type="qcurve"/>
      <point x="972" y="804"/>
      <point x="1005" y="852" type="qcurve"/>
      <point x="1119" y="1010"/>
      <point x="1313" y="1010" type="qcurve" smooth="yes"/>
      <point x="1536" y="1010"/>
      <point x="1641" y="866" type="qcurve" smooth="yes"/>
      <point x="1719" y="759"/>
      <point x="1719" y="599" type="qcurve" smooth="yes"/>
      <point x="1719" y="473"/>
      <point x="1717" y="470" type="qcurve" smooth="yes"/>
      <point x="1714" y="466"/>
      <point x="1714" y="464" type="qcurve"/>
      <point x="1016" y="464" type="line"/>
      <point x="1016" y="439" type="line" smooth="yes"/>
      <point x="1016" y="289"/>
      <point x="1091" y="191" type="qcurve"/>
      <point x="1179" y="80"/>
      <point x="1328" y="80" type="qcurve" smooth="yes"/>
      <point x="1432" y="80"/>
      <point x="1498" y="103" type="qcurve" smooth="yes"/>
      <point x="1570" y="129"/>
      <point x="1624" y="184" type="qcurve"/>
      <point x="1695" y="131" type="line"/>
      <point x="1611" y="52"/>
      <point x="1532" y="22" type="qcurve"/>
      <point x="1449" y="-12"/>
      <point x="1330" y="-12" type="qcurve" smooth="yes"/>
      <point x="1127" y="-12"/>
      <point x="1011" y="133" type="qcurve" smooth="yes"/>
      <point x="974" y="180"/>
      <point x="949" y="237" type="qcurve"/>
      <point x="948" y="236"/>
      <point x="947" y="234" type="qcurve" smooth="yes"/>
      <point x="887" y="117"/>
      <point x="681" y="-20"/>
      <point x="550" y="-20" type="qcurve" smooth="yes"/>
      <point x="419" y="-20"/>
      <point x="213" y="117"/>
      <point x="93" y="351"/>
      <point x="93" y="495" type="qcurve" smooth="yes"/>
      <point x="93" y="639"/>
      <point x="213" y="873"/>
      <point x="419" y="1010"/>
      <point x="550" y="1010" type="qcurve" smooth="yes"/>
      <point x="681" y="1010"/>
      <point x="887" y="873"/>
      <point x="947" y="756" type="qcurve" smooth="yes"/>
      <point x="948" y="754"/>
    </contour>
    <contour>
      <point x="1614" y="562" type="line"/>
      <point x="1614" y="582" type="line" smooth="yes"/>
      <point x="1614" y="724"/>
      <point x="1544" y="813" type="qcurve"/>
      <point x="1464" y="912"/>
      <point x="1313" y="912" type="qcurve" smooth="yes"/>
      <point x="1176" y="912"/>
      <point x="1094" y="809" type="qcurve" smooth="yes"/>
      <point x="1019" y="715"/>
      <point x="1016" y="562" type="qcurve"/>
    </contour>
    <contour>
      <point x="894" y="495" type="qcurve" smooth="yes"/>
      <point x="894" y="678"/>
      <point x="803" y="789" type="qcurve" smooth="yes"/>
      <point x="706" y="908"/>
      <point x="550" y="908" type="qcurve" smooth="yes"/>
      <point x="404" y="908"/>
      <point x="300" y="788" type="qcurve" smooth="yes"/>
      <point x="206" y="678"/>
      <point x="206" y="495" type="qcurve" smooth="yes"/>
      <point x="206" y="312"/>
      <point x="300" y="202" type="qcurve" smooth="yes"/>
      <point x="404" y="82"/>
      <point x="550" y="82" type="qcurve" smooth="yes"/>
      <point x="706" y="82"/>
      <point x="803" y="201" type="qcurve" smooth="yes"/>
      <point x="894" y="312"/>
    </contour>
  </outline>
</glyph>
<glyph name="uogonek" format="2">
  <advance width="1100"/>
  <unicode hex="0173"/>
  <outline>
    <contour>
      <point x="791" y="-453" type="qcurve" smooth="yes"/>
      <point x="709" y="-453"/>
      <point x="596" y="-343"/>
      <point x="596" y="-250" type="qcurve" smooth="yes"/>
      <point x="596" y="-77"/>
      <point x="847" y="0" type="qcurve"/>
      <point x="818" y="0" type="line"/>
      <point x="818" y="206" type="line"/>
      <point x="797" y="145"/>
      <point x="710" y="48"/>
      <point x="575" y="-23"/>
      <point x="490" y="-23" type="qcurve" smooth="yes"/>
      <point x="377" y="-23"/>
      <point x="230" y="83"/>
      <point x="158" y="276"/>
      <point x="158" y="404" type="qcurve" smooth="yes"/>
      <point x="158" y="997" type="line"/>
      <point x="262" y="997" type="line"/>
      <point x="262" y="390" type="line" smooth="yes"/>
      <point x="262" y="308"/>
      <point x="302" y="156"/>
      <point x="401" y="58"/>
      <point x="489" y="58" type="qcurve" smooth="yes"/>
      <point x="573" y="58"/>
      <point x="724" y="159"/>
      <point x="818" y="319"/>
      <point x="818" y="408" type="qcurve" smooth="yes"/>
      <point x="818" y="997" type="line"/>
      <point x="919" y="997" type="line"/>
      <point x="919" y="0" type="line"/>
      <point x="888" y="-14" type="line" smooth="yes"/>
      <point x="685" y="-107"/>
      <point x="685" y="-240" type="qcurve" smooth="yes"/>
      <point x="685" y="-288"/>
      <point x="738" y="-359"/>
      <point x="781" y="-359" type="qcurve" smooth="yes"/>
      <point x="867" y="-359"/>
      <point x="912" y="-294" type="qcurve"/>
      <point x="988" y="-347" type="line"/>
      <point x="915" y="-453"/>
    </contour>
  </outline>
</glyph>
<glyph name="florin" format="2">
  <advance width="1059"/>
  <unicode hex="0192"/>
  <outline>
    <contour>
      <point x="139" y="-459" type="qcurve"/>
      <point x="139" y="-358" type="line"/>
      <point x="305" y="-358"/>
      <point x="478" y="-194"/>
      <point x="478" y="-29" type="qcurve" smooth="yes"/>
      <point x="478" y="900" type="line"/>
      <point x="300" y="900" type="line"/>
      <point x="300" y="997" type="line"/>
      <point x="478" y="997" type="line"/>
      <point x="478" y="1177" type="line" smooth="yes"/>
      <point x="478" y="1291"/>
      <point x="621" y="1450"/>
      <point x="729" y="1450" type="qcurve" smooth="yes"/>
      <point x="794" y="1450"/>
      <point x="867" y="1414" type="qcurve"/>
      <point x="887" y="1402"/>
      <point x="902" y="1390" type="qcurve"/>
      <point x="837" y="1312" type="line"/>
      <point x="809" y="1333"/>
      <point x="750" y="1349" type="qcurve"/>
      <point x="730" y="1350" type="line"/>
      <point x="665" y="1350"/>
      <point x="579" y="1257"/>
      <point x="579" y="1177" type="qcurve" smooth="yes"/>
      <point x="579" y="997" type="line"/>
      <point x="885" y="997" type="line"/>
      <point x="885" y="900" type="line"/>
      <point x="579" y="900" type="line"/>
      <point x="579" y="-23" type="line" smooth="yes"/>
      <point x="579" y="-229"/>
      <point x="339" y="-459"/>
    </contour>
  </outline>
</glyph>
<glyph name="eturned" format="2">
  <advance width="1021"/>
  <unicode hex="01DD"/>
  <outline>
    <contour>
      <point x="504" y="-12" type="qcurve" smooth="yes"/>
      <point x="295" y="-12"/>
      <point x="194" y="136" type="qcurve" smooth="yes"/>
      <point x="102" y="272"/>
      <point x="102" y="521" type="qcurve"/>
      <point x="104" y="528"/>
      <point x="104" y="534" type="qcurve"/>
      <point x="807" y="534" type="line"/>
      <point x="807" y="709"/>
      <point x="724" y="814" type="qcurve" smooth="yes"/>
      <point x="638" y="924"/>
      <point x="489" y="924" type="qcurve" smooth="yes"/>
      <point x="394" y="924"/>
      <point x="251" y="873"/>
      <point x="192" y="813" type="qcurve"/>
      <point x="123" y="863" type="line"/>
      <point x="196" y="940"/>
      <point x="367" y="1010"/>
      <point x="485" y="1010" type="qcurve" smooth="yes"/>
      <point x="686" y="1010"/>
      <point x="806" y="865" type="qcurve" smooth="yes"/>
      <point x="918" y="728"/>
      <point x="918" y="505" type="qcurve" smooth="yes"/>
      <point x="918" y="281"/>
      <point x="815" y="142" type="qcurve" smooth="yes"/>
      <point x="700" y="-12"/>
    </contour>
    <contour>
      <point x="504" y="85" type="qcurve" smooth="yes"/>
      <point x="648" y="85"/>
      <point x="729" y="186" type="qcurve" smooth="yes"/>
      <point x="807" y="283"/>
      <point x="807" y="438" type="qcurve"/>
      <point x="198" y="438" type="line"/>
      <point x="198" y="423" type="line" smooth="yes"/>
      <point x="198" y="275"/>
      <point x="271" y="186" type="qcurve"/>
      <point x="351" y="85"/>
    </contour>
  </outline>
</glyph>
<glyph name="Dz" format="2">
  <advance width="2304"/>
  <unicode hex="01F2"/>
  <outline>
    <contour>
      <point x="565" y="0" type="qcurve" smooth="yes"/>
      <point x="228" y="0" type="line"/>
      <point x="228" y="1413" type="line"/>
      <point x="567" y="1413" type="line" smooth="yes"/>
      <point x="901" y="1413"/>
      <point x="1270" y="1045"/>
      <point x="1270" y="696" type="qcurve" smooth="yes"/>
      <point x="1270" y="360"/>
      <point x="900" y="0"/>
    </contour>
    <contour>
      <point x="541" y="104" type="line" smooth="yes"/>
      <point x="659" y="104"/>
      <point x="880" y="173"/>
      <point x="1053" y="319"/>
      <point x="1155" y="548"/>
      <point x="1155" y="707" type="qcurve" smooth="yes"/>
      <point x="1155" y="994"/>
      <point x="849" y="1314"/>
      <point x="563" y="1314" type="qcurve" smooth="yes"/>
      <point x="343" y="1314" type="line"/>
      <point x="343" y="104" type="line"/>
    </contour>
    <contour>
      <point x="2222" y="0" type="line"/>
      <point x="1479" y="0" type="line"/>
      <point x="1479" y="98" type="line"/>
      <point x="2114" y="904" type="line"/>
      <point x="1507" y="904" type="line"/>
      <point x="1507" y="997" type="line"/>
      <point x="2222" y="997" type="line"/>
      <point x="2222" y="889" type="line"/>
      <point x="1594" y="92" type="line"/>
      <point x="2222" y="92" type="line"/>
    </contour>
  </outline>
</glyph>
<glyph name="dz" format="2">
  <advance width="2011"/>
  <unicode hex="01F3"/>
  <outline>
    <contour>
      <point x="500" y="-20" type="qcurve" smooth="yes"/>
      <point x="376" y="-20"/>
      <point x="203" y="120"/>
      <point x="112" y="356"/>
      <point x="112" y="499" type="qcurve" smooth="yes"/>
      <point x="112" y="640"/>
      <point x="203" y="877"/>
      <point x="376" y="1018"/>
      <point x="501" y="1018" type="qcurve" smooth="yes"/>
      <point x="709" y="1018"/>
      <point x="828" y="839" type="qcurve"/>
      <point x="828" y="1413" type="line"/>
      <point x="932" y="1413" type="line"/>
      <point x="932" y="0" type="line"/>
      <point x="825" y="0" type="line"/>
      <point x="827" y="158" type="line"/>
      <point x="766" y="68"/>
      <point x="614" y="-20"/>
    </contour>
    <contour>
      <point x="1929" y="0" type="line"/>
      <point x="1186" y="0" type="line"/>
      <point x="1186" y="98" type="line"/>
      <point x="1821" y="904" type="line"/>
      <point x="1214" y="904" type="line"/>
      <point x="1214" y="997" type="line"/>
      <point x="1929" y="997" type="line"/>
      <point x="1929" y="889" type="line"/>
      <point x="1301" y="92" type="line"/>
      <point x="1929" y="92" type="line"/>
    </contour>
    <contour>
      <point x="529" y="74" type="qcurve" smooth="yes"/>
      <point x="632" y="74"/>
      <point x="769" y="185"/>
      <point x="837" y="377"/>
      <point x="837" y="499" type="qcurve" smooth="yes"/>
      <point x="837" y="674"/>
      <point x="767" y="788" type="qcurve" smooth="yes"/>
      <point x="687" y="920"/>
      <point x="529" y="920" type="qcurve" smooth="yes"/>
      <point x="423" y="920"/>
      <point x="286" y="804"/>
      <point x="220" y="613"/>
      <point x="220" y="499" type="qcurve" smooth="yes"/>
      <point x="220" y="328"/>
      <point x="288" y="211" type="qcurve" smooth="yes"/>
      <point x="367" y="74"/>
    </contour>
  </outline>
</glyph>
<glyph name="oopen" format="2">
  <advance width="965"/>
  <unicode hex="0254"/>
  <outline>
    <contour>
      <point x="475" y="-20" type="qcurve" smooth="yes"/>
      <point x="352" y="-20"/>
      <point x="165" y="107"/>
      <point x="119" y="230" type="qcurve"/>
      <point x="207" y="272" type="line"/>
      <point x="229" y="197"/>
      <point x="378" y="80"/>
      <point x="477" y="80" type="qcurve" smooth="yes"/>
      <point x="638" y="80"/>
      <point x="712" y="208" type="qcurve" smooth="yes"/>
      <point x="780" y="326"/>
      <point x="780" y="497" type="qcurve" smooth="yes"/>
      <point x="780" y="670"/>
      <point x="708" y="788" type="qcurve" smooth="yes"/>
      <point x="632" y="913"/>
      <point x="477" y="913" type="qcurve" smooth="yes"/>
      <point x="383" y="913"/>
      <point x="231" y="799"/>
      <point x="207" y="722" type="qcurve"/>
      <point x="108" y="769" type="line"/>
      <point x="157" y="877"/>
      <point x="344" y="1014"/>
      <point x="477" y="1014" type="qcurve" smooth="yes"/>
      <point x="580" y="1014"/>
      <point x="656" y="972" type="qcurve"/>
      <point x="778" y="900"/>
      <point x="889" y="641"/>
      <point x="889" y="497" type="qcurve" smooth="yes"/>
      <point x="889" y="356"/>
      <point x="794" y="120"/>
      <point x="610" y="-20"/>
    </contour>
  </outline>
</glyph>
<glyph name="caron" format="2">
  <advance width="788"/>
  <unicode hex="02C7"/>
  <outline>
    <contour>
      <point x="392" y="1087" type="line"/>
      <point x="64" y="1413" type="line"/>
      <point x="208" y="1413" type="line"/>
      <point x="392" y="1212" type="line"/>
      <point x="578" y="1413" type="line"/>
      <point x="720" y="1413" type="line"/>
    </contour>
  </outline>
</glyph>
<glyph name="colontriangularmod" format="2">
  <advance width="520"/>
  <unicode hex="02D0"/>
  <outline>
    <contour>
      <point x="288" y="690" type="line"/>
      <point x="70" y="998" type="line"/>
      <point x="423" y="1051" type="line"/>
    </contour>
    <contour>
      <point x="98" y="-52" type="line"/>
      <point x="234" y="308" type="line"/>
      <point x="450" y="-1" type="line"/>
    </contour>
  </outline>
</glyph>
<glyph name="breve" format="2">
  <advance width="839"/>
  <unicode hex="02D8"/>
  <outline>
    <contour>
      <point x="413" y="1148" type="qcurve" smooth="yes"/>
      <point x="336" y="1148"/>
      <point x="198" y="1206"/>
      <point x="112" y="1325"/>
      <point x="112" y="1413" type="qcurve"/>
      <point x="228" y="1413" type="line"/>
      <point x="228" y="1344"/>
      <point x="336" y="1243"/>
      <point x="413" y="1243" type="qcurve" smooth="yes"/>
      <point x="488" y="1243"/>
      <point x="597" y="1334"/>
      <point x="597" y="1413" type="qcurve"/>
      <point x="714" y="1413" type="line"/>
      <point x="714" y="1328"/>
      <point x="632" y="1209"/>
      <point x="496" y="1148"/>
    </contour>
  </outline>
</glyph>
<glyph name="ring" format="2">
  <advance width="635"/>
  <unicode hex="02DA"/>
  <outline>
    <contour>
      <point x="311" y="1087" type="qcurve" smooth="yes"/>
      <point x="232" y="1087"/>
      <point x="122" y="1195"/>
      <point x="122" y="1278" type="qcurve" smooth="yes"/>
      <point x="122" y="1354"/>
      <point x="230" y="1468"/>
      <point x="311" y="1468" type="qcurve" smooth="yes"/>
      <point x="391" y="1468"/>
      <point x="502" y="1356"/>
      <point x="502" y="1278" type="qcurve" smooth="yes"/>
      <point x="502" y="1199"/>
      <point x="392" y="1087"/>
    </contour>
    <contour>
      <point x="311" y="1174" type="qcurve" smooth="yes"/>
      <point x="353" y="1174"/>
      <point x="416" y="1234"/>
      <point x="416" y="1278" type="qcurve" smooth="yes"/>
      <point x="416" y="1318"/>
      <point x="355" y="1379"/>
      <point x="311" y="1379" type="qcurve" smooth="yes"/>
      <point x="266" y="1379"/>
      <point x="210" y="1323"/>
      <point x="210" y="1278" type="qcurve" smooth="yes"/>
      <point x="210" y="1228"/>
      <point x="271" y="1174"/>
    </contour>
  </outline>
</glyph>
<glyph name="tilde" format="2">
  <advance width="854"/>
  <unicode hex="02DC"/>
  <outline>
    <contour>
      <point x="585" y="1164" type="qcurve" smooth="yes"/>
      <point x="538" y="1164"/>
      <point x="508" y="1186" type="qcurve"/>
      <point x="479" y="1204"/>
      <point x="432" y="1256" type="qcurve" smooth="yes"/>
      <point x="401" y="1291"/>
      <point x="358" y="1327"/>
      <point x="331" y="1327" type="qcurve" smooth="yes"/>
      <point x="293" y="1327"/>
      <point x="273" y="1284" type="qcurve" smooth="yes"/>
      <point x="256" y="1248"/>
      <point x="256" y="1189" type="qcurve"/>
      <point x="179" y="1189" type="line"/>
      <point x="179" y="1293"/>
      <point x="221" y="1359" type="qcurve" smooth="yes"/>
      <point x="261" y="1421"/>
      <point x="332" y="1421" type="qcurve"/>
      <point x="394" y="1413"/>
      <point x="439" y="1377" type="qcurve"/>
      <point x="466" y="1351" type="line"/>
      <point x="532" y="1276" type="line" smooth="yes"/>
      <point x="555" y="1251"/>
      <point x="588" y="1251" type="qcurve" smooth="yes"/>
      <point x="666" y="1251"/>
      <point x="666" y="1413" type="qcurve"/>
      <point x="751" y="1413" type="line"/>
      <point x="751" y="1164"/>
    </contour>
  </outline>
</glyph>
<glyph name="hungarumlaut" format="2">
  <advance width="857"/>
  <unicode hex="02DD"/>
  <outline>
    <contour>
      <point x="193" y="1139" type="line"/>
      <point x="84" y="1139" type="line"/>
      <point x="295" y="1413" type="line"/>
      <point x="462" y="1413" type="line"/>
    </contour>
    <contour>
      <point x="517" y="1139" type="line"/>
      <point x="408" y="1139" type="line"/>
      <point x="618" y="1413" type="line"/>
      <point x="776" y="1413" type="line"/>
    </contour>
  </outline>
</glyph>
<glyph name="gravecmb" format="2">
  <unicode hex="0300"/>
  <anchor x="-212" y="999" name="_t.ringcmb_1"/>
  <outline>
    <contour>
      <point x="-198" y="1129" type="line"/>
      <point x="-457" y="1413" type="line"/>
      <point x="-299" y="1413" type="line"/>
      <point x="-89" y="1129" type="line"/>
    </contour>
  </outline>
</glyph>
<glyph name="circumflexcmb" format="2">
  <unicode hex="0302"/>
  <anchor x="-396" y="999" name="_t.ringcmb_1"/>
  <outline>
    <contour>
      <point x="-68" y="1103" type="line"/>
      <point x="-209" y="1103" type="line"/>
      <point x="-396" y="1307" type="line"/>
      <point x="-580" y="1103" type="line"/>
      <point x="-725" y="1103" type="line"/>
      <point x="-396" y="1453" type="line"/>
    </contour>
  </outline>
</glyph>
<glyph name="dieresiscmb" format="2">
  <unicode hex="0308"/>
  <anchor x="-416" y="999" name="_t.ringcmb_1"/>
  <outline>
    <contour>
      <point x="-507" y="1239" type="line"/>
      <point x="-656" y="1239" type="line"/>
      <point x="-656" y="1413" type="line"/>
      <point x="-507" y="1413" type="line"/>
    </contour>
    <contour>
      <point x="-176" y="1239" type="line"/>
      <point x="-325" y="1239" type="line"/>
      <point x="-325" y="1413" type="line"/>
      <point x="-176" y="1413" type="line"/>
    </contour>
  </outline>
</glyph>
<glyph name="hungarumlautcmb" format="2">
  <unicode hex="030B"/>
  <anchor x="-533" y="999" name="_t.ringcmb_1"/>
  <outline>
    <contour>
      <point x="-664" y="1139" type="line"/>
      <point x="-773" y="1139" type="line"/>
      <point x="-562" y="1413" type="line"/>
      <point x="-395" y="1413" type="line"/>
    </contour>
    <contour>
      <point x="-340" y="1139" type="line"/>
      <point x="-449" y="1139" type="line"/>
      <point x="-239" y="1413" type="line"/>
      <point x="-81" y="1413" type="line"/>
    </contour>
  </outline>
</glyph>
<glyph name="dblgravecmb" format="2">
  <unicode hex="030F"/>
  <anchor x="-533" y="999" name="_t.ringcmb_1"/>
  <outline>
    <contour>
      <point x="-190" y="1139" type="line"/>
      <point x="-459" y="1413" type="line"/>
      <point x="-292" y="1413" type="line"/>
      <point x="-81" y="1139" type="line"/>
    </contour>
    <contour>
      <point x="-514" y="1139" type="line"/>
      <point x="-773" y="1413" type="line"/>
      <point x="-615" y="1413" type="line"/>
      <point x="-405" y="1139" type="line"/>
    </contour>
  </outline>
</glyph>
<glyph name="uni0326" format="2">
  <unicode hex="0326"/>
  <anchor x="-173" y="0" name="_b.uni0326"/>
  <anchor x="-173" y="0" name="_b.uni0326_2"/>
  <anchor x="-233" y="-442" name="b.uni0326_2"/>
  <outline>
    <contour>
      <point x="-303" y="-442" type="line"/>
      <point x="-390" y="-442" type="line"/>
      <point x="-273" y="-120" type="line"/>
      <point x="-86" y="-120" type="line"/>
    </contour>
  </outline>
</glyph>
<glyph name="cedillacmb" format="2">
  <unicode hex="0327"/>
  <anchor x="-301" y="0" name="_b.uni0326"/>
  <anchor x="-301" y="0" name="_b.uni0326_2"/>
  <anchor x="-301" y="-483" name="b.uni0326_2"/>
  <outline>
    <contour>
      <point x="-316" y="-499" type="qcurve" smooth="yes"/>
      <point x="-376" y="-499"/>
      <point x="-470" y="-428"/>
      <point x="-489" y="-381" type="qcurve"/>
      <point x="-410" y="-336" type="line"/>
      <point x="-404" y="-369"/>
      <point x="-376" y="-390" type="qcurve" smooth="yes"/>
      <point x="-342" y="-417"/>
      <point x="-310" y="-417" type="qcurve" smooth="yes"/>
      <point x="-260" y="-417"/>
      <point x="-200" y="-354"/>
      <point x="-200" y="-309" type="qcurve" smooth="yes"/>
      <point x="-200" y="-256"/>
      <point x="-249" y="-215" type="qcurve"/>
      <point x="-303" y="-175"/>
      <point x="-398" y="-175" type="qcurve" smooth="yes"/>
      <point x="-423" y="-175" type="line"/>
      <point x="-338" y="-6" type="line"/>
      <point x="-236" y="-6" type="line"/>
      <point x="-299" y="-130" type="line"/>
      <point x="-286" y="-130" type="line" smooth="yes"/>
      <point x="-206" y="-130"/>
      <point x="-114" y="-229"/>
      <point x="-114" y="-301" type="qcurve" smooth="yes"/>
      <point x="-114" y="-379"/>
      <point x="-165" y="-435" type="qcurve" smooth="yes"/>
      <point x="-223" y="-499"/>
    </contour>
  </outline>
</glyph>
<glyph name="pi" format="2">
  <advance width="988"/>
  <unicode hex="03C0"/>
  <outline>
    <contour>
      <point x="828" y="-20" type="qcurve" smooth="yes"/>
      <point x="771" y="-20"/>
      <point x="684" y="43"/>
      <point x="634" y="143"/>
      <point x="634" y="197" type="qcurve" smooth="yes"/>
      <point x="634" y="874" type="line"/>
      <point x="324" y="874" type="line"/>
      <point x="324" y="0" type="line"/>
      <point x="200" y="0" type="line"/>
      <point x="200" y="874" type="line"/>
      <point x="118" y="874" type="line"/>
      <point x="118" y="997" type="line"/>
      <point x="840" y="997" type="line"/>
      <point x="840" y="874" type="line"/>
      <point x="758" y="874" type="line"/>
      <point x="758" y="193" type="line" smooth="yes"/>
      <point x="758" y="143"/>
      <point x="800" y="77"/>
      <point x="845" y="77" type="qcurve" smooth="yes"/>
      <point x="873" y="77"/>
      <point x="903" y="96" type="qcurve"/>
      <point x="930" y="8" type="line"/>
      <point x="880" y="-20"/>
    </contour>
  </outline>
</glyph>
<glyph name="afii10053" format="2">
  <advance width="1421"/>
  <unicode hex="0404"/>
  <outline>
    <contour>
      <point x="721" y="-20" type="qcurve" smooth="yes"/>
      <point x="413" y="-20"/>
      <point x="253" y="198" type="qcurve" smooth="yes"/>
      <point x="106" y="398"/>
      <point x="106" y="707" type="qcurve" smooth="yes"/>
      <point x="106" y="1028"/>
      <point x="260" y="1226" type="qcurve" smooth="yes"/>
      <point x="422" y="1436"/>
      <point x="718" y="1436" type="qcurve" smooth="yes"/>
      <point x="908" y="1436"/>
      <point x="1193" y="1254"/>
      <point x="1273" y="1075" type="qcurve"/>
      <point x="1223" y="1052"/>
      <point x="1170" y="1032" type="qcurve"/>
      <point x="1139" y="1137"/>
      <point x="1006" y="1271"/>
      <point x="822" y="1334"/>
      <point x="716" y="1334" type="qcurve" smooth="yes"/>
      <point x="474" y="1334"/>
      <point x="342" y="1153" type="qcurve" smooth="yes"/>
      <point x="226" y="994"/>
      <point x="219" y="767" type="qcurve"/>
      <point x="877" y="767" type="line"/>
      <point x="877" y="683" type="line"/>
      <point x="216" y="683" type="line"/>
      <point x="221" y="508"/>
      <point x="335" y="238"/>
      <point x="557" y="81"/>
      <point x="721" y="81" type="qcurve" smooth="yes"/>
      <point x="1058" y="81"/>
      <point x="1169" y="386" type="qcurve"/>
      <point x="1275" y="342" type="line"/>
      <point x="1194" y="157"/>
      <point x="907" y="-20"/>
    </contour>
  </outline>
</glyph>
<glyph name="afii10058" format="2">
  <advance width="2065"/>
  <unicode hex="0409"/>
  <outline>
    <contour>
      <point x="1148" y="1325" type="line"/>
      <point x="564" y="1325" type="line"/>
      <point x="564" y="1058"/>
      <point x="563" y="972" type="qcurve" smooth="yes"/>
      <point x="558" y="491"/>
      <point x="497" y="257" type="qcurve" smooth="yes"/>
      <point x="425" y="-20"/>
      <point x="239" y="-20" type="qcurve" smooth="yes"/>
      <point x="202" y="-20"/>
      <point x="116" y="-1"/>
      <point x="88" y="14" type="qcurve"/>
      <point x="114" y="73"/>
      <point x="142" y="129" type="qcurve"/>
      <point x="186" y="98"/>
      <point x="235" y="98" type="qcurve" smooth="yes"/>
      <point x="293" y="98"/>
      <point x="330" y="149" type="qcurve" smooth="yes"/>
      <point x="397" y="241"/>
      <point x="426" y="473" type="qcurve"/>
      <point x="451" y="712"/>
      <point x="451" y="961" type="qcurve" smooth="yes"/>
      <point x="451" y="1413" type="line"/>
      <point x="1263" y="1413" type="line"/>
      <point x="1263" y="753" type="line"/>
      <point x="1524" y="753" type="line" smooth="yes"/>
      <point x="1655" y="753"/>
      <point x="1849" y="668"/>
      <point x="1956" y="501"/>
      <point x="1956" y="380" type="qcurve" smooth="yes"/>
      <point x="1956" y="201"/>
      <point x="1726" y="0"/>
      <point x="1524" y="0" type="qcurve" smooth="yes"/>
      <point x="1148" y="0" type="line"/>
    </contour>
    <contour>
      <point x="1263" y="97" type="line"/>
      <point x="1524" y="97" type="line" smooth="yes"/>
      <point x="1671" y="97"/>
      <point x="1845" y="244"/>
      <point x="1845" y="380" type="qcurve" smooth="yes"/>
      <point x="1845" y="519"/>
      <point x="1669" y="657"/>
      <point x="1524" y="657" type="qcurve" smooth="yes"/>
      <point x="1263" y="657" type="line"/>
    </contour>
  </outline>
</glyph>
<glyph name="afii10059" format="2">
  <advance width="2022"/>
  <unicode hex="040A"/>
  <outline>
    <contour>
      <point x="1484" y="0" type="qcurve" smooth="yes"/>
      <point x="1105" y="0" type="line"/>
      <point x="1105" y="662" type="line"/>
      <point x="340" y="662" type="line"/>
      <point x="340" y="0" type="line"/>
      <point x="228" y="0" type="line"/>
      <point x="228" y="1413" type="line"/>
      <point x="340" y="1413" type="line"/>
      <point x="340" y="751" type="line"/>
      <point x="1105" y="751" type="line"/>
      <point x="1105" y="1413" type="line"/>
      <point x="1219" y="1413" type="line"/>
      <point x="1219" y="753" type="line"/>
      <point x="1484" y="753" type="line" smooth="yes"/>
      <point x="1679" y="753"/>
      <point x="1912" y="560"/>
      <point x="1912" y="380" type="qcurve" smooth="yes"/>
      <point x="1912" y="258"/>
      <point x="1806" y="89"/>
      <point x="1613" y="0"/>
    </contour>
    <contour>
      <point x="1484" y="97" type="line" smooth="yes"/>
      <point x="1629" y="97"/>
      <point x="1802" y="244"/>
      <point x="1802" y="380" type="qcurve" smooth="yes"/>
      <point x="1802" y="515"/>
      <point x="1629" y="657"/>
      <point x="1484" y="657" type="qcurve" smooth="yes"/>
      <point x="1219" y="657" type="line"/>
      <point x="1219" y="97" type="line"/>
    </contour>
  </outline>
</glyph>
<glyph name="afii10060" format="2">
  <advance width="1667"/>
  <unicode hex="040B"/>
  <outline>
    <contour>
      <point x="1520" y="0" type="line"/>
      <point x="1405" y="0" type="line"/>
      <point x="1405" y="400" type="line" smooth="yes"/>
      <point x="1405" y="547"/>
      <point x="1336" y="769"/>
      <point x="1179" y="893"/>
      <point x="1044" y="893" type="qcurve" smooth="yes"/>
      <point x="943" y="893"/>
      <point x="747" y="808"/>
      <point x="688" y="732" type="qcurve"/>
      <point x="688" y="0" type="line"/>
      <point x="574" y="0" type="line"/>
      <point x="574" y="1331" type="line"/>
      <point x="79" y="1331" type="line"/>
      <point x="79" y="1413" type="line"/>
      <point x="1182" y="1413" type="line"/>
      <point x="1182" y="1331" type="line"/>
      <point x="688" y="1331" type="line"/>
      <point x="688" y="845" type="line"/>
      <point x="811" y="999"/>
      <point x="1044" y="999" type="qcurve" smooth="yes"/>
      <point x="1275" y="999"/>
      <point x="1520" y="673"/>
      <point x="1520" y="381" type="qcurve" smooth="yes"/>
    </contour>
  </outline>
</glyph>
<glyph name="afii10024" format="2">
  <advance width="1904"/>
  <unicode hex="0416"/>
  <outline>
    <contour>
      <point x="1809" y="0" type="line"/>
      <point x="1676" y="0" type="line"/>
      <point x="1462" y="601" type="line"/>
      <point x="1443" y="650"/>
      <point x="1338" y="724"/>
      <point x="1266" y="724" type="qcurve" smooth="yes"/>
      <point x="1008" y="724" type="line"/>
      <point x="1008" y="0" type="line"/>
      <point x="896" y="0" type="line"/>
      <point x="896" y="724" type="line"/>
      <point x="639" y="724" type="line" smooth="yes"/>
      <point x="487" y="724"/>
      <point x="445" y="601" type="qcurve"/>
      <point x="228" y="0" type="line"/>
      <point x="95" y="0" type="line"/>
      <point x="330" y="665" type="line"/>
      <point x="336" y="688"/>
      <point x="403" y="754"/>
      <point x="511" y="806"/>
      <point x="583" y="806" type="qcurve"/>
      <point x="176" y="1413" type="line"/>
      <point x="311" y="1413" type="line"/>
      <point x="716" y="811" type="line"/>
      <point x="896" y="811" type="line"/>
      <point x="896" y="1413" type="line"/>
      <point x="1008" y="1413" type="line"/>
      <point x="1008" y="811" type="line"/>
      <point x="1188" y="811" type="line"/>
      <point x="1591" y="1413" type="line"/>
      <point x="1728" y="1413" type="line"/>
      <point x="1322" y="806" type="line"/>
      <point x="1387" y="806"/>
      <point x="1493" y="758"/>
      <point x="1565" y="693"/>
      <point x="1575" y="665" type="qcurve" smooth="yes"/>
    </contour>
  </outline>
</glyph>
<glyph name="afii10025" format="2">
  <advance width="1117"/>
  <unicode hex="0417"/>
  <outline>
    <contour>
      <point x="526" y="-20" type="qcurve" smooth="yes"/>
      <point x="376" y="-20"/>
      <point x="152" y="100"/>
      <point x="104" y="212" type="qcurve"/>
      <point x="201" y="276" type="line"/>
      <point x="231" y="181"/>
      <point x="326" y="123" type="qcurve" smooth="yes"/>
      <point x="416" y="67"/>
      <point x="526" y="67" type="qcurve" smooth="yes"/>
      <point x="664" y="67"/>
      <point x="761" y="147" type="qcurve" smooth="yes"/>
      <point x="869" y="236"/>
      <point x="869" y="392" type="qcurve" smooth="yes"/>
      <point x="869" y="467"/>
      <point x="842" y="524" type="qcurve" smooth="yes"/>
      <point x="789" y="636"/>
      <point x="658" y="679" type="qcurve" smooth="yes"/>
      <point x="596" y="699"/>
      <point x="526" y="699" type="qcurve" smooth="yes"/>
      <point x="346" y="699" type="line"/>
      <point x="346" y="778"/>
      <point x="347" y="803" type="qcurve"/>
      <point x="532" y="803" type="line" smooth="yes"/>
      <point x="647" y="803"/>
      <point x="725" y="868" type="qcurve" smooth="yes"/>
      <point x="808" y="938"/>
      <point x="808" y="1063" type="qcurve" smooth="yes"/>
      <point x="808" y="1187"/>
      <point x="727" y="1267" type="qcurve"/>
      <point x="647" y="1342"/>
      <point x="530" y="1342" type="qcurve" smooth="yes"/>
      <point x="478" y="1342"/>
      <point x="428" y="1324" type="qcurve" smooth="yes"/>
      <point x="321" y="1285"/>
      <point x="276" y="1188" type="qcurve" smooth="yes"/>
      <point x="254" y="1140"/>
      <point x="254" y="1078" type="qcurve"/>
      <point x="145" y="1078" type="line"/>
      <point x="145" y="1084" type="line" smooth="yes"/>
      <point x="145" y="1238"/>
      <point x="356" y="1434"/>
      <point x="528" y="1434" type="qcurve" smooth="yes"/>
      <point x="690" y="1434"/>
      <point x="796" y="1341" type="qcurve" smooth="yes"/>
      <point x="907" y="1242"/>
      <point x="907" y="1080" type="qcurve" smooth="yes"/>
      <point x="907" y="980"/>
      <point x="811" y="814"/>
      <point x="716" y="762" type="qcurve"/>
      <point x="849" y="704"/>
      <point x="980" y="505"/>
      <point x="980" y="381" type="qcurve" smooth="yes"/>
      <point x="980" y="189"/>
      <point x="851" y="83" type="qcurve"/>
      <point x="728" y="-20"/>
    </contour>
  </outline>
</glyph>
<glyph name="afii10033" format="2">
  <advance width="1444"/>
  <unicode hex="041F"/>
  <outline>
    <contour>
      <point x="1216" y="0" type="line"/>
      <point x="1105" y="0" type="line"/>
      <point x="1105" y="1325" type="line"/>
      <point x="339" y="1325" type="line"/>
      <point x="339" y="0" type="line"/>
      <point x="228" y="0" type="line"/>
      <point x="228" y="1413" type="line"/>
      <point x="1216" y="1413" type="line"/>
    </contour>
  </outline>
</glyph>
<glyph name="afii10037" format="2">
  <advance width="1121"/>
  <unicode hex="0423"/>
  <outline>
    <contour>
      <point x="409" y="0" type="line"/>
      <point x="284" y="0" type="line"/>
      <point x="483" y="456" type="line"/>
      <point x="88" y="1413" type="line"/>
      <point x="216" y="1413" type="line"/>
      <point x="542" y="571" type="line"/>
      <point x="899" y="1413" type="line"/>
      <point x="1032" y="1413" type="line"/>
    </contour>
  </outline>
</glyph>
<glyph name="afii10038" format="2">
  <advance width="1661"/>
  <unicode hex="0424"/>
  <outline>
    <contour>
      <point x="887" y="0" type="line"/>
      <point x="773" y="0" type="line"/>
      <point x="773" y="122" type="line"/>
      <point x="451" y="122"/>
      <point x="143" y="401"/>
      <point x="143" y="707" type="qcurve" smooth="yes"/>
      <point x="143" y="1010"/>
      <point x="452" y="1313"/>
      <point x="773" y="1313" type="qcurve"/>
      <point x="773" y="1413" type="line"/>
      <point x="887" y="1413" type="line"/>
      <point x="887" y="1313" type="line"/>
      <point x="1209" y="1313"/>
      <point x="1517" y="1010"/>
      <point x="1517" y="707" type="qcurve" smooth="yes"/>
      <point x="1517" y="403"/>
      <point x="1211" y="122"/>
      <point x="887" y="122" type="qcurve"/>
    </contour>
    <contour>
      <point x="773" y="228" type="qcurve"/>
      <point x="773" y="1206" type="line"/>
      <point x="497" y="1206"/>
      <point x="247" y="959"/>
      <point x="247" y="707" type="qcurve" smooth="yes"/>
      <point x="247" y="454"/>
      <point x="497" y="228"/>
    </contour>
    <contour>
      <point x="887" y="228" type="line"/>
      <point x="1163" y="228"/>
      <point x="1413" y="456"/>
      <point x="1413" y="707" type="qcurve" smooth="yes"/>
      <point x="1413" y="883"/>
      <point x="1294" y="1103"/>
      <point x="1062" y="1206"/>
      <point x="887" y="1206" type="qcurve"/>
    </contour>
  </outline>
</glyph>
<glyph name="afii10040" format="2">
  <advance width="1464"/>
  <unicode hex="0426"/>
  <outline>
    <contour>
      <point x="1357" y="-233" type="line"/>
      <point x="1248" y="-233" type="line"/>
      <point x="1248" y="0" type="line"/>
      <point x="228" y="0" type="line"/>
      <point x="228" y="1413" type="line"/>
      <point x="340" y="1413" type="line"/>
      <point x="340" y="92" type="line"/>
      <point x="1105" y="92" type="line"/>
      <point x="1105" y="1413" type="line"/>
      <point x="1216" y="1413" type="line"/>
      <point x="1216" y="92" type="line"/>
      <point x="1357" y="92" type="line"/>
    </contour>
  </outline>
</glyph>
<glyph name="afii10041" format="2">
  <advance width="1321"/>
  <unicode hex="0427"/>
  <outline>
    <contour>
      <point x="1093" y="0" type="line"/>
      <point x="978" y="0" type="line"/>
      <point x="978" y="568" type="line"/>
      <point x="856" y="414"/>
      <point x="620" y="414" type="qcurve" smooth="yes"/>
      <point x="462" y="414"/>
      <point x="252" y="563"/>
      <point x="147" y="841"/>
      <point x="147" y="1034" type="qcurve" smooth="yes"/>
      <point x="147" y="1413" type="line"/>
      <point x="261" y="1413" type="line"/>
      <point x="261" y="1013" type="line" smooth="yes"/>
      <point x="261" y="867"/>
      <point x="328" y="645"/>
      <point x="485" y="520"/>
      <point x="620" y="520" type="qcurve" smooth="yes"/>
      <point x="727" y="520"/>
      <point x="918" y="608"/>
      <point x="978" y="681" type="qcurve"/>
      <point x="978" y="1413" type="line"/>
      <point x="1093" y="1413" type="line"/>
    </contour>
  </outline>
</glyph>
<glyph name="afii10042" format="2">
  <advance width="1729"/>
  <unicode hex="0428"/>
  <outline>
    <contour>
      <point x="1500" y="0" type="line"/>
      <point x="228" y="0" type="line"/>
      <point x="228" y="1413" type="line"/>
      <point x="339" y="1413" type="line"/>
      <point x="339" y="92" type="line"/>
      <point x="804" y="92" type="line"/>
      <point x="804" y="1413" type="line"/>
      <point x="919" y="1413" type="line"/>
      <point x="919" y="92" type="line"/>
      <point x="1388" y="92" type="line"/>
      <point x="1388" y="1413" type="line"/>
      <point x="1500" y="1413" type="line"/>
    </contour>
  </outline>
</glyph>
<glyph name="afii10044" format="2">
  <advance width="1359"/>
  <unicode hex="042A"/>
  <outline>
    <contour>
      <point x="819" y="0" type="qcurve" smooth="yes"/>
      <point x="442" y="0" type="line"/>
      <point x="442" y="1333" type="line"/>
      <point x="79" y="1333" type="line"/>
      <point x="79" y="1413" type="line"/>
      <point x="555" y="1413" type="line"/>
      <point x="555" y="753" type="line"/>
      <point x="819" y="753" type="line" smooth="yes"/>
      <point x="1016" y="753"/>
      <point x="1249" y="559"/>
      <point x="1249" y="380" type="qcurve" smooth="yes"/>
      <point x="1249" y="201"/>
      <point x="1018" y="0"/>
    </contour>
    <contour>
      <point x="819" y="97" type="line" smooth="yes"/>
      <point x="967" y="97"/>
      <point x="1139" y="245"/>
      <point x="1139" y="380" type="qcurve" smooth="yes"/>
      <point x="1139" y="473"/>
      <point x="1059" y="596"/>
      <point x="915" y="657"/>
      <point x="819" y="657" type="qcurve" smooth="yes"/>
      <point x="555" y="657" type="line"/>
      <point x="555" y="97" type="line"/>
    </contour>
  </outline>
</glyph>
<glyph name="afii10045" format="2">
  <advance width="1585"/>
  <unicode hex="042B"/>
  <outline>
    <contour>
      <point x="604" y="0" type="qcurve" smooth="yes"/>
      <point x="228" y="0" type="line"/>
      <point x="228" y="1413" type="line"/>
      <point x="342" y="1413" type="line"/>
      <point x="342" y="753" type="line"/>
      <point x="604" y="753" type="line" smooth="yes"/>
      <point x="735" y="753"/>
      <point x="929" y="668"/>
      <point x="1035" y="501"/>
      <point x="1035" y="380" type="qcurve" smooth="yes"/>
      <point x="1035" y="201"/>
      <point x="805" y="0"/>
    </contour>
    <contour>
      <point x="1358" y="0" type="line"/>
      <point x="1245" y="0" type="line"/>
      <point x="1245" y="1413" type="line"/>
      <point x="1358" y="1413" type="line"/>
    </contour>
    <contour>
      <point x="604" y="97" type="line" smooth="yes"/>
      <point x="750" y="97"/>
      <point x="925" y="244"/>
      <point x="925" y="380" type="qcurve" smooth="yes"/>
      <point x="925" y="519"/>
      <point x="748" y="657"/>
      <point x="604" y="657" type="qcurve" smooth="yes"/>
      <point x="342" y="657" type="line"/>
      <point x="342" y="97" type="line"/>
    </contour>
  </outline>
</glyph>
<glyph name="afii10047" format="2">
  <advance width="1421"/>
  <unicode hex="042D"/>
  <outline>
    <contour>
      <point x="660" y="-20" type="qcurve" smooth="yes"/>
      <point x="474" y="-20"/>
      <point x="187" y="157"/>
      <point x="106" y="342" type="qcurve"/>
      <point x="212" y="386" type="line"/>
      <point x="323" y="81"/>
      <point x="660" y="81" type="qcurve" smooth="yes"/>
      <point x="824" y="81"/>
      <point x="1046" y="238"/>
      <point x="1160" y="508"/>
      <point x="1165" y="683" type="qcurve"/>
      <point x="504" y="683" type="line"/>
      <point x="504" y="767" type="line"/>
      <point x="1162" y="767" type="line"/>
      <point x="1155" y="994"/>
      <point x="1039" y="1153" type="qcurve" smooth="yes"/>
      <point x="907" y="1334"/>
      <point x="665" y="1334" type="qcurve" smooth="yes"/>
      <point x="559" y="1334"/>
      <point x="375" y="1271"/>
      <point x="242" y="1137"/>
      <point x="211" y="1032" type="qcurve"/>
      <point x="158" y="1052"/>
      <point x="108" y="1075" type="qcurve"/>
      <point x="188" y="1254"/>
      <point x="473" y="1436"/>
      <point x="663" y="1436" type="qcurve" smooth="yes"/>
      <point x="959" y="1436"/>
      <point x="1121" y="1226" type="qcurve" smooth="yes"/>
      <point x="1275" y="1028"/>
      <point x="1275" y="707" type="qcurve" smooth="yes"/>
      <point x="1275" y="398"/>
      <point x="1128" y="198" type="qcurve" smooth="yes"/>
      <point x="968" y="-20"/>
    </contour>
  </outline>
</glyph>
<glyph name="afii10048" format="2">
  <advance width="1855"/>
  <unicode hex="042E"/>
  <outline>
    <contour>
      <point x="1092" y="-20" type="qcurve" smooth="yes"/>
      <point x="896" y="-20"/>
      <point x="629" y="155"/>
      <point x="486" y="460"/>
      <point x="478" y="662" type="qcurve"/>
      <point x="340" y="662" type="line"/>
      <point x="340" y="0" type="line"/>
      <point x="228" y="0" type="line"/>
      <point x="228" y="1413" type="line"/>
      <point x="340" y="1413" type="line"/>
      <point x="340" y="751" type="line"/>
      <point x="478" y="751" type="line"/>
      <point x="489" y="1046"/>
      <point x="636" y="1230" type="qcurve" smooth="yes"/>
      <point x="799" y="1434"/>
      <point x="1092" y="1434" type="qcurve" smooth="yes"/>
      <point x="1388" y="1434"/>
      <point x="1553" y="1226" type="qcurve" smooth="yes"/>
      <point x="1710" y="1028"/>
      <point x="1710" y="707" type="qcurve" smooth="yes"/>
      <point x="1710" y="564"/>
      <point x="1639" y="304"/>
      <point x="1488" y="100"/>
      <point x="1365" y="38" type="qcurve" smooth="yes"/>
      <point x="1249" y="-20"/>
    </contour>
    <contour>
      <point x="1092" y="88" type="qcurve" smooth="yes"/>
      <point x="1341" y="88"/>
      <point x="1476" y="272" type="qcurve" smooth="yes"/>
      <point x="1602" y="442"/>
      <point x="1602" y="707" type="qcurve" smooth="yes"/>
      <point x="1602" y="964"/>
      <point x="1482" y="1132" type="qcurve"/>
      <point x="1346" y="1325"/>
      <point x="1092" y="1325" type="qcurve" smooth="yes"/>
      <point x="843" y="1325"/>
      <point x="707" y="1141" type="qcurve" smooth="yes"/>
      <point x="583" y="971"/>
      <point x="583" y="707" type="qcurve" smooth="yes"/>
      <point x="583" y="450"/>
      <point x="700" y="281" type="qcurve" smooth="yes"/>
      <point x="834" y="88"/>
    </contour>
  </outline>
</glyph>
<glyph name="afii10049" format="2">
  <advance width="1204"/>
  <unicode hex="042F"/>
  <outline>
    <contour>
      <point x="977" y="-2" type="line"/>
      <point x="863" y="-2" type="line"/>
      <point x="863" y="646" type="line"/>
      <point x="599" y="646" type="line"/>
      <point x="243" y="-2" type="line"/>
      <point x="106" y="-2" type="line"/>
      <point x="486" y="665" type="line"/>
      <point x="341" y="687"/>
      <point x="172" y="879"/>
      <point x="172" y="1028" type="qcurve" smooth="yes"/>
      <point x="172" y="1139"/>
      <point x="276" y="1311"/>
      <point x="466" y="1411"/>
      <point x="596" y="1411" type="qcurve" smooth="yes"/>
      <point x="977" y="1411" type="line"/>
    </contour>
    <contour>
      <point x="861" y="762" type="line"/>
      <point x="861" y="1311" type="line"/>
      <point x="594" y="1311" type="line" smooth="yes"/>
      <point x="505" y="1311"/>
      <point x="364" y="1247"/>
      <point x="282" y="1122"/>
      <point x="282" y="1032" type="qcurve" smooth="yes"/>
      <point x="282" y="907"/>
      <point x="439" y="769"/>
      <point x="569" y="762" type="qcurve"/>
    </contour>
  </outline>
</glyph>
<glyph name="afii10067" format="2">
  <advance width="1134"/>
  <unicode hex="0432"/>
  <outline>
    <contour>
      <point x="579" y="-20" type="qcurve" smooth="yes"/>
      <point x="461" y="-20"/>
      <point x="379" y="7" type="qcurve" smooth="yes"/>
      <point x="220" y="61"/>
      <point x="178" y="258" type="qcurve" smooth="yes"/>
      <point x="156" y="358"/>
      <point x="156" y="503" type="qcurve" smooth="yes"/>
      <point x="156" y="986" type="line" smooth="yes"/>
      <point x="156" y="1434"/>
      <point x="551" y="1434" type="qcurve" smooth="yes"/>
      <point x="738" y="1434"/>
      <point x="837" y="1355" type="qcurve" smooth="yes"/>
      <point x="942" y="1270"/>
      <point x="942" y="1102" type="qcurve" smooth="yes"/>
      <point x="942" y="1072"/>
      <point x="916" y="990"/>
      <point x="858" y="910"/>
      <point x="773" y="846"/>
      <point x="690" y="828" type="qcurve"/>
      <point x="724" y="828" type="line" smooth="yes"/>
      <point x="782" y="828"/>
      <point x="881" y="767"/>
      <point x="955" y="664"/>
      <point x="997" y="528"/>
      <point x="997" y="457" type="qcurve" smooth="yes"/>
      <point x="997" y="237"/>
      <point x="883" y="111" type="qcurve"/>
      <point x="767" y="-20"/>
    </contour>
    <contour>
      <point x="562" y="67" type="qcurve" smooth="yes"/>
      <point x="678" y="67"/>
      <point x="816" y="157"/>
      <point x="876" y="329"/>
      <point x="876" y="451" type="qcurve" smooth="yes"/>
      <point x="876" y="563"/>
      <point x="793" y="709"/>
      <point x="662" y="780"/>
      <point x="590" y="780" type="qcurve" smooth="yes"/>
      <point x="443" y="780"/>
      <point x="378" y="722" type="qcurve"/>
      <point x="378" y="809" type="line"/>
      <point x="428" y="836"/>
      <point x="584" y="863"/>
      <point x="649" y="865" type="qcurve"/>
      <point x="732" y="872"/>
      <point x="819" y="1026"/>
      <point x="819" y="1106" type="qcurve" smooth="yes"/>
      <point x="819" y="1229"/>
      <point x="683" y="1342"/>
      <point x="550" y="1342" type="qcurve" smooth="yes"/>
      <point x="456" y="1342"/>
      <point x="337" y="1291"/>
      <point x="276" y="1201"/>
      <point x="262" y="1086"/>
      <point x="262" y="1025" type="qcurve" smooth="yes"/>
      <point x="262" y="482" type="line" smooth="yes"/>
      <point x="262" y="350"/>
      <point x="297" y="188"/>
      <point x="369" y="99"/>
      <point x="483" y="67"/>
    </contour>
  </outline>
</glyph>
<glyph name="afii10068" format="2">
  <advance width="855"/>
  <unicode hex="0433"/>
  <outline>
    <contour>
      <point x="412" y="-20" type="qcurve" smooth="yes"/>
      <point x="264" y="-20"/>
      <point x="179" y="41" type="qcurve" smooth="yes"/>
      <point x="85" y="109"/>
      <point x="85" y="229" type="qcurve" smooth="yes"/>
      <point x="85" y="306"/>
      <point x="135" y="406"/>
      <point x="219" y="476"/>
      <point x="331" y="524"/>
      <point x="391" y="545" type="qcurve" smooth="yes"/>
      <point x="451" y="566"/>
      <point x="540" y="605"/>
      <point x="603" y="653"/>
      <point x="634" y="715"/>
      <point x="634" y="758" type="qcurve" smooth="yes"/>
      <point x="634" y="838"/>
      <point x="584" y="874" type="qcurve" smooth="yes"/>
      <point x="541" y="906"/>
      <point x="454" y="906" type="qcurve" smooth="yes"/>
      <point x="297" y="906"/>
      <point x="228" y="777" type="qcurve"/>
      <point x="140" y="828" type="line"/>
      <point x="185" y="912"/>
      <point x="262" y="960" type="qcurve" smooth="yes"/>
      <point x="346" y="1012"/>
      <point x="454" y="1012" type="qcurve" smooth="yes"/>
      <point x="574" y="1012"/>
      <point x="744" y="872"/>
      <point x="744" y="764" type="qcurve"/>
      <point x="742" y="727" type="line"/>
      <point x="724" y="574"/>
      <point x="580" y="512" type="qcurve"/>
      <point x="522" y="486"/>
      <point x="404" y="444" type="qcurve" smooth="yes"/>
      <point x="356" y="427"/>
      <point x="309" y="402" type="qcurve" smooth="yes"/>
      <point x="269" y="381"/>
      <point x="229" y="344" type="qcurve"/>
      <point x="190" y="299"/>
      <point x="190" y="228" type="qcurve" smooth="yes"/>
      <point x="190" y="144"/>
      <point x="248" y="108" type="qcurve" smooth="yes"/>
      <point x="296" y="77"/>
      <point x="404" y="77" type="qcurve" smooth="yes"/>
      <point x="491" y="77"/>
      <point x="565" y="132" type="qcurve" smooth="yes"/>
      <point x="643" y="190"/>
      <point x="668" y="267" type="qcurve"/>
      <point x="758" y="209" type="line"/>
      <point x="728" y="113"/>
      <point x="635" y="48" type="qcurve" smooth="yes"/>
      <point x="537" y="-20"/>
    </contour>
  </outline>
</glyph>
<glyph name="afii10070" format="2">
  <advance width="1029"/>
  <unicode hex="0435"/>
  <outline>
    <contour>
      <point x="537" y="-12" type="qcurve" smooth="yes"/>
      <point x="334" y="-12"/>
      <point x="218" y="133" type="qcurve" smooth="yes"/>
      <point x="109" y="269"/>
      <point x="109" y="493" type="qcurve" smooth="yes"/>
      <point x="109" y="707"/>
      <point x="212" y="852" type="qcurve" smooth="yes"/>
      <point x="326" y="1010"/>
      <point x="520" y="1010" type="qcurve" smooth="yes"/>
      <point x="743" y="1010"/>
      <point x="836" y="858" type="qcurve" smooth="yes"/>
      <point x="926" y="709"/>
      <point x="926" y="489" type="qcurve" smooth="yes"/>
      <point x="926" y="473"/>
      <point x="924" y="470" type="qcurve" smooth="yes"/>
      <point x="921" y="466"/>
      <point x="921" y="464" type="qcurve"/>
      <point x="218" y="464" type="line"/>
      <point x="218" y="439" type="line" smooth="yes"/>
      <point x="218" y="289"/>
      <point x="293" y="191" type="qcurve" smooth="yes"/>
      <point x="381" y="75"/>
      <point x="535" y="75" type="qcurve" smooth="yes"/>
      <point x="639" y="75"/>
      <point x="704" y="100" type="qcurve"/>
      <point x="777" y="124"/>
      <point x="831" y="184" type="qcurve"/>
      <point x="902" y="131" type="line"/>
      <point x="818" y="52"/>
      <point x="739" y="22" type="qcurve"/>
      <point x="656" y="-12"/>
    </contour>
    <contour>
      <point x="827" y="557" type="line"/>
      <point x="827" y="582" type="line" smooth="yes"/>
      <point x="827" y="724"/>
      <point x="757" y="813" type="qcurve"/>
      <point x="677" y="912"/>
      <point x="520" y="912" type="qcurve" smooth="yes"/>
      <point x="378" y="912"/>
      <point x="296" y="809" type="qcurve" smooth="yes"/>
      <point x="221" y="715"/>
      <point x="218" y="557" type="qcurve"/>
    </contour>
  </outline>
</glyph>
<glyph name="afii10073" format="2">
  <advance width="890"/>
  <unicode hex="0437"/>
  <outline>
    <contour>
      <point x="395" y="-465" type="qcurve" smooth="yes"/>
      <point x="319" y="-465"/>
      <point x="218" y="-443"/>
      <point x="138" y="-401"/>
      <point x="103" y="-370" type="qcurve"/>
      <point x="24" y="-304" type="line"/>
      <point x="40" y="-289"/>
      <point x="59" y="-274" type="qcurve"/>
      <point x="77" y="-258"/>
      <point x="93" y="-244" type="qcurve"/>
      <point x="147" y="-313"/>
      <point x="279" y="-377"/>
      <point x="377" y="-377" type="qcurve" smooth="yes"/>
      <point x="532" y="-377"/>
      <point x="609" y="-264" type="qcurve" smooth="yes"/>
      <point x="680" y="-162"/>
      <point x="680" y="27" type="qcurve" smooth="yes"/>
      <point x="680" y="188"/>
      <point x="590" y="276" type="qcurve"/>
      <point x="511" y="357"/>
      <point x="385" y="357" type="qcurve" smooth="yes"/>
      <point x="177" y="357" type="line"/>
      <point x="177" y="449" type="line"/>
      <point x="446" y="449" type="line"/>
      <point x="491" y="463"/>
      <point x="531" y="499" type="qcurve" smooth="yes"/>
      <point x="622" y="582"/>
      <point x="622" y="685" type="qcurve" smooth="yes"/>
      <point x="622" y="816"/>
      <point x="502" y="916"/>
      <point x="356" y="916" type="qcurve" smooth="yes"/>
      <point x="275" y="916"/>
      <point x="205" y="872" type="qcurve" smooth="yes"/>
      <point x="139" y="831"/>
      <point x="109" y="773" type="qcurve"/>
      <point x="44" y="833" type="line"/>
      <point x="87" y="909"/>
      <point x="255" y="1010"/>
      <point x="356" y="1010" type="qcurve" smooth="yes"/>
      <point x="539" y="1010"/>
      <point x="727" y="850"/>
      <point x="727" y="678" type="qcurve" smooth="yes"/>
      <point x="727" y="648"/>
      <point x="715" y="608" type="qcurve"/>
      <point x="670" y="447"/>
      <point x="507" y="404" type="qcurve"/>
      <point x="535" y="404" type="line" smooth="yes"/>
      <point x="591" y="404"/>
      <point x="685" y="340"/>
      <point x="754" y="237"/>
      <point x="792" y="102"/>
      <point x="792" y="33" type="qcurve" smooth="yes"/>
      <point x="792" y="-187"/>
      <point x="689" y="-323" type="qcurve" smooth="yes"/>
      <point x="581" y="-465"/>
    </contour>
  </outline>
</glyph>
<glyph name="afii10075" format="2">
  <advance width="1124"/>
  <unicode hex="0439"/>
  <outline>
    <contour>
      <point x="543" y="1148" type="qcurve" smooth="yes"/>
      <point x="473" y="1148"/>
      <point x="337" y="1208"/>
      <point x="247" y="1327"/>
      <point x="247" y="1413" type="qcurve"/>
      <point x="344" y="1413" type="line"/>
      <point x="344" y="1337"/>
      <point x="460" y="1232"/>
      <point x="543" y="1232" type="qcurve" smooth="yes"/>
      <point x="589" y="1232"/>
      <point x="680" y="1278"/>
      <point x="739" y="1361"/>
      <point x="739" y="1413" type="qcurve"/>
      <point x="837" y="1413" type="line"/>
      <point x="837" y="1335"/>
      <point x="755" y="1215"/>
      <point x="621" y="1148"/>
    </contour>
    <contour>
      <point x="513" y="-23" type="qcurve" smooth="yes"/>
      <point x="397" y="-23"/>
      <point x="251" y="84"/>
      <point x="182" y="276"/>
      <point x="182" y="401" type="qcurve" smooth="yes"/>
      <point x="182" y="997" type="line"/>
      <point x="285" y="997" type="line"/>
      <point x="285" y="393" type="line" smooth="yes"/>
      <point x="285" y="253"/>
      <point x="331" y="166" type="qcurve" smooth="yes"/>
      <point x="388" y="58"/>
      <point x="516" y="58" type="qcurve" smooth="yes"/>
      <point x="603" y="58"/>
      <point x="751" y="159"/>
      <point x="841" y="322"/>
      <point x="841" y="418" type="qcurve" smooth="yes"/>
      <point x="841" y="997" type="line"/>
      <point x="943" y="997" type="line"/>
      <point x="943" y="0" type="line"/>
      <point x="841" y="0" type="line"/>
      <point x="841" y="204" type="line"/>
      <point x="820" y="144"/>
      <point x="732" y="48"/>
      <point x="596" y="-23"/>
    </contour>
  </outline>
</glyph>
<glyph name="afii10077" format="2">
  <advance width="927"/>
  <unicode hex="043B"/>
  <outline>
    <contour>
      <point x="871" y="0" type="line"/>
      <point x="756" y="0" type="line"/>
      <point x="463" y="865" type="line"/>
      <point x="168" y="0" type="line"/>
      <point x="56" y="0" type="line"/>
      <point x="413" y="997" type="line"/>
      <point x="514" y="997" type="line"/>
    </contour>
  </outline>
</glyph>
<glyph name="afii10079" format="2">
  <advance width="1124"/>
  <unicode hex="043D"/>
  <outline>
    <contour>
      <point x="943" y="0" type="line"/>
      <point x="839" y="0" type="line"/>
      <point x="839" y="504" type="line"/>
      <point x="287" y="504" type="line"/>
      <point x="287" y="0" type="line"/>
      <point x="182" y="0" type="line"/>
      <point x="182" y="997" type="line"/>
      <point x="287" y="997" type="line"/>
      <point x="287" y="591" type="line"/>
      <point x="839" y="591" type="line"/>
      <point x="839" y="997" type="line"/>
      <point x="943" y="997" type="line"/>
    </contour>
  </outline>
</glyph>
<glyph name="afii10084" format="2">
  <advance width="1689"/>
  <unicode hex="0442"/>
  <outline>
    <contour>
      <point x="1529" y="0" type="line"/>
      <point x="1422" y="0" type="line"/>
      <point x="1422" y="599" type="line" smooth="yes"/>
      <point x="1422" y="738"/>
      <point x="1372" y="827" type="qcurve" smooth="yes"/>
      <point x="1313" y="934"/>
      <point x="1185" y="934" type="qcurve" smooth="yes"/>
      <point x="1096" y="934"/>
      <point x="972" y="827"/>
      <point x="908" y="663"/>
      <point x="908" y="576" type="qcurve" smooth="yes"/>
      <point x="908" y="0" type="line"/>
      <point x="802" y="0" type="line"/>
      <point x="802" y="603" type="line" smooth="yes"/>
      <point x="802" y="686"/>
      <point x="759" y="837"/>
      <point x="656" y="934"/>
      <point x="566" y="934" type="qcurve" smooth="yes"/>
      <point x="477" y="934"/>
      <point x="353" y="830"/>
      <point x="289" y="667"/>
      <point x="289" y="576" type="qcurve" smooth="yes"/>
      <point x="289" y="0" type="line"/>
      <point x="182" y="0" type="line"/>
      <point x="182" y="997" type="line"/>
      <point x="289" y="997" type="line"/>
      <point x="289" y="780" type="line"/>
      <point x="323" y="894"/>
      <point x="471" y="1016"/>
      <point x="573" y="1016" type="qcurve" smooth="yes"/>
      <point x="680" y="1016"/>
      <point x="850" y="908"/>
      <point x="891" y="786" type="qcurve"/>
      <point x="974" y="1014"/>
      <point x="1191" y="1014" type="qcurve" smooth="yes"/>
      <point x="1309" y="1014"/>
      <point x="1458" y="910"/>
      <point x="1529" y="729"/>
      <point x="1529" y="613" type="qcurve" smooth="yes"/>
    </contour>
  </outline>
</glyph>
<glyph name="afii10089" format="2">
  <advance width="1065"/>
  <unicode hex="0447"/>
  <outline>
    <contour>
      <point x="883" y="0" type="line"/>
      <point x="777" y="0" type="line"/>
      <point x="777" y="470" type="line"/>
      <point x="756" y="413"/>
      <point x="668" y="317"/>
      <point x="533" y="245"/>
      <point x="448" y="245" type="qcurve" smooth="yes"/>
      <point x="330" y="245"/>
      <point x="182" y="356"/>
      <point x="114" y="549"/>
      <point x="114" y="669" type="qcurve" smooth="yes"/>
      <point x="114" y="997" type="line"/>
      <point x="220" y="997" type="line"/>
      <point x="220" y="661" type="line" smooth="yes"/>
      <point x="220" y="572"/>
      <point x="263" y="419"/>
      <point x="364" y="325"/>
      <point x="452" y="325" type="qcurve" smooth="yes"/>
      <point x="539" y="325"/>
      <point x="687" y="426"/>
      <point x="777" y="589"/>
      <point x="777" y="685" type="qcurve" smooth="yes"/>
      <point x="777" y="997" type="line"/>
      <point x="883" y="997" type="line"/>
    </contour>
  </outline>
</glyph>
<glyph name="afii10090" format="2">
  <advance width="1710"/>
  <unicode hex="0448"/>
  <outline>
    <contour>
      <point x="1138" y="-18" type="qcurve" smooth="yes"/>
      <point x="893" y="-18"/>
      <point x="820" y="212" type="qcurve"/>
      <point x="730" y="-16"/>
      <point x="518" y="-16" type="qcurve" smooth="yes"/>
      <point x="400" y="-16"/>
      <point x="252" y="86"/>
      <point x="182" y="268"/>
      <point x="182" y="387" type="qcurve" smooth="yes"/>
      <point x="182" y="997" type="line"/>
      <point x="287" y="997" type="line"/>
      <point x="287" y="399" type="line" smooth="yes"/>
      <point x="287" y="259"/>
      <point x="337" y="170" type="qcurve" smooth="yes"/>
      <point x="396" y="62"/>
      <point x="522" y="62" type="qcurve" smooth="yes"/>
      <point x="611" y="62"/>
      <point x="737" y="166"/>
      <point x="804" y="331"/>
      <point x="804" y="422" type="qcurve" smooth="yes"/>
      <point x="804" y="997" type="line"/>
      <point x="909" y="997" type="line"/>
      <point x="909" y="395" type="line" smooth="yes"/>
      <point x="909" y="308"/>
      <point x="951" y="156"/>
      <point x="1053" y="62"/>
      <point x="1142" y="62" type="qcurve" smooth="yes"/>
      <point x="1225" y="62"/>
      <point x="1352" y="161"/>
      <point x="1422" y="325"/>
      <point x="1422" y="422" type="qcurve" smooth="yes"/>
      <point x="1422" y="997" type="line"/>
      <point x="1529" y="997" type="line"/>
      <point x="1529" y="0" type="line"/>
      <point x="1422" y="0" type="line"/>
      <point x="1422" y="216" type="line"/>
      <point x="1389" y="106"/>
      <point x="1239" y="-18"/>
    </contour>
  </outline>
</glyph>
<glyph name="afii10092" format="2">
  <advance width="1139"/>
  <unicode hex="044A"/>
  <outline>
    <contour>
      <point x="611" y="-20" type="qcurve" smooth="yes"/>
      <point x="505" y="-20"/>
      <point x="312" y="75"/>
      <point x="258" y="182" type="qcurve"/>
      <point x="226" y="251"/>
      <point x="226" y="346" type="qcurve" smooth="yes"/>
      <point x="226" y="904" type="line"/>
      <point x="45" y="904" type="line"/>
      <point x="45" y="997" type="line"/>
      <point x="337" y="997" type="line"/>
      <point x="337" y="627" type="line"/>
      <point x="362" y="675"/>
      <point x="453" y="749"/>
      <point x="584" y="800"/>
      <point x="660" y="800" type="qcurve" smooth="yes"/>
      <point x="813" y="800"/>
      <point x="918" y="706" type="qcurve" smooth="yes"/>
      <point x="1037" y="600"/>
      <point x="1037" y="391" type="qcurve" smooth="yes"/>
      <point x="1037" y="248"/>
      <point x="921" y="67"/>
      <point x="727" y="-20"/>
    </contour>
    <contour>
      <point x="637" y="74" type="qcurve" smooth="yes"/>
      <point x="762" y="74"/>
      <point x="914" y="249"/>
      <point x="914" y="391" type="qcurve" smooth="yes"/>
      <point x="914" y="474"/>
      <point x="847" y="617"/>
      <point x="719" y="704"/>
      <point x="626" y="704" type="qcurve" smooth="yes"/>
      <point x="550" y="704"/>
      <point x="418" y="639"/>
      <point x="337" y="517"/>
      <point x="337" y="433" type="qcurve" smooth="yes"/>
      <point x="337" y="390" type="line" smooth="yes"/>
      <point x="337" y="326"/>
      <point x="361" y="221"/>
      <point x="425" y="137"/>
      <point x="481" y="109" type="qcurve" smooth="yes"/>
      <point x="548" y="74"/>
    </contour>
  </outline>
</glyph>
<glyph name="afii10093" format="2">
  <advance width="1392"/>
  <unicode hex="044B"/>
  <outline>
    <contour>
      <point x="599" y="-20" type="qcurve" smooth="yes"/>
      <point x="491" y="-20"/>
      <point x="294" y="74"/>
      <point x="237" y="182" type="qcurve"/>
      <point x="202" y="251"/>
      <point x="202" y="346" type="qcurve" smooth="yes"/>
      <point x="202" y="997" type="line"/>
      <point x="314" y="997" type="line"/>
      <point x="314" y="626" type="line"/>
      <point x="338" y="679"/>
      <point x="412" y="752"/>
      <point x="520" y="800"/>
      <point x="593" y="800" type="qcurve" smooth="yes"/>
      <point x="757" y="800"/>
      <point x="875" y="704" type="qcurve" smooth="yes"/>
      <point x="1013" y="592"/>
      <point x="1013" y="391" type="qcurve" smooth="yes"/>
      <point x="1013" y="190"/>
      <point x="883" y="79" type="qcurve" smooth="yes"/>
      <point x="767" y="-20"/>
    </contour>
    <contour>
      <point x="1290" y="0" type="line"/>
      <point x="1180" y="0" type="line"/>
      <point x="1180" y="997" type="line"/>
      <point x="1290" y="997" type="line"/>
    </contour>
    <contour>
      <point x="599" y="74" type="qcurve" smooth="yes"/>
      <point x="726" y="74"/>
      <point x="889" y="252"/>
      <point x="889" y="391" type="qcurve" smooth="yes"/>
      <point x="889" y="479"/>
      <point x="818" y="621"/>
      <point x="688" y="704"/>
      <point x="599" y="704" type="qcurve" smooth="yes"/>
      <point x="483" y="704"/>
      <point x="326" y="551"/>
      <point x="314" y="433" type="qcurve"/>
      <point x="314" y="390" type="line" smooth="yes"/>
      <point x="314" y="301"/>
      <point x="380" y="158"/>
      <point x="508" y="74"/>
    </contour>
  </outline>
</glyph>
<glyph name="afii10094" format="2">
  <advance width="1104"/>
  <unicode hex="044C"/>
  <outline>
    <contour>
      <point x="577" y="-20" type="qcurve" smooth="yes"/>
      <point x="419" y="-20"/>
      <point x="310" y="65" type="qcurve" smooth="yes"/>
      <point x="180" y="165"/>
      <point x="180" y="346" type="qcurve" smooth="yes"/>
      <point x="180" y="997" type="line"/>
      <point x="292" y="997" type="line"/>
      <point x="292" y="626" type="line"/>
      <point x="316" y="681"/>
      <point x="392" y="754"/>
      <point x="501" y="800"/>
      <point x="571" y="800" type="qcurve" smooth="yes"/>
      <point x="735" y="800"/>
      <point x="852" y="705" type="qcurve" smooth="yes"/>
      <point x="991" y="592"/>
      <point x="991" y="391" type="qcurve" smooth="yes"/>
      <point x="991" y="190"/>
      <point x="861" y="79" type="qcurve" smooth="yes"/>
      <point x="745" y="-20"/>
    </contour>
    <contour>
      <point x="577" y="74" type="qcurve" smooth="yes"/>
      <point x="701" y="74"/>
      <point x="868" y="249"/>
      <point x="868" y="391" type="qcurve" smooth="yes"/>
      <point x="868" y="476"/>
      <point x="799" y="619"/>
      <point x="668" y="704"/>
      <point x="577" y="704" type="qcurve" smooth="yes"/>
      <point x="459" y="704"/>
      <point x="304" y="551"/>
      <point x="292" y="433" type="qcurve"/>
      <point x="292" y="390" type="line" smooth="yes"/>
      <point x="292" y="304"/>
      <point x="357" y="161"/>
      <point x="484" y="74"/>
    </contour>
  </outline>
</glyph>
<glyph name="afii10095" format="2">
  <advance width="959"/>
  <unicode hex="044D"/>
  <outline>
    <contour>
      <point x="444" y="-20" type="qcurve" smooth="yes"/>
      <point x="319" y="-20"/>
      <point x="132" y="102"/>
      <point x="89" y="230" type="qcurve"/>
      <point x="174" y="272" type="line"/>
      <point x="199" y="179"/>
      <point x="346" y="60"/>
      <point x="446" y="60" type="qcurve" smooth="yes"/>
      <point x="544" y="60"/>
      <point x="673" y="169"/>
      <point x="741" y="343"/>
      <point x="749" y="447" type="qcurve"/>
      <point x="324" y="447" type="line"/>
      <point x="324" y="525" type="line"/>
      <point x="749" y="525" type="line"/>
      <point x="737" y="791"/>
      <point x="579" y="897" type="qcurve"/>
      <point x="523" y="933"/>
      <point x="446" y="933" type="qcurve" smooth="yes"/>
      <point x="346" y="933"/>
      <point x="199" y="813"/>
      <point x="174" y="723" type="qcurve"/>
      <point x="152" y="734"/>
      <point x="126" y="746" type="qcurve"/>
      <point x="99" y="757"/>
      <point x="76" y="769" type="qcurve"/>
      <point x="124" y="880"/>
      <point x="309" y="1014"/>
      <point x="446" y="1014" type="qcurve" smooth="yes"/>
      <point x="641" y="1014"/>
      <point x="752" y="860" type="qcurve" smooth="yes"/>
      <point x="856" y="716"/>
      <point x="856" y="497" type="qcurve" smooth="yes"/>
      <point x="856" y="282"/>
      <point x="755" y="137" type="qcurve" smooth="yes"/>
      <point x="645" y="-20"/>
    </contour>
  </outline>
</glyph>
<glyph name="afii10096" format="2">
  <advance width="1386"/>
  <unicode hex="044E"/>
  <outline>
    <contour>
      <point x="832" y="-20" type="qcurve" smooth="yes"/>
      <point x="733" y="-20"/>
      <point x="649" y="20" type="qcurve" smooth="yes"/>
      <point x="477" y="102"/>
      <point x="411" y="294" type="qcurve" smooth="yes"/>
      <point x="380" y="384"/>
      <point x="380" y="504" type="qcurve"/>
      <point x="288" y="504" type="line"/>
      <point x="288" y="0" type="line"/>
      <point x="182" y="0" type="line"/>
      <point x="182" y="1413" type="line"/>
      <point x="288" y="1413" type="line"/>
      <point x="288" y="591" type="line"/>
      <point x="384" y="591" type="line"/>
      <point x="415" y="774"/>
      <point x="533" y="888" type="qcurve" smooth="yes"/>
      <point x="658" y="1010"/>
      <point x="832" y="1010" type="qcurve" smooth="yes"/>
      <point x="928" y="1010"/>
      <point x="1093" y="932"/>
      <point x="1214" y="794"/>
      <point x="1284" y="605"/>
      <point x="1284" y="495" type="qcurve" smooth="yes"/>
      <point x="1284" y="389"/>
      <point x="1217" y="200"/>
      <point x="1097" y="62"/>
      <point x="933" y="-20"/>
    </contour>
    <contour>
      <point x="832" y="74" type="qcurve" smooth="yes"/>
      <point x="985" y="74"/>
      <point x="1163" y="295"/>
      <point x="1163" y="495" type="qcurve" smooth="yes"/>
      <point x="1163" y="668"/>
      <point x="1090" y="782" type="qcurve"/>
      <point x="1003" y="915"/>
      <point x="832" y="915" type="qcurve" smooth="yes"/>
      <point x="712" y="915"/>
      <point x="566" y="796"/>
      <point x="500" y="605"/>
      <point x="500" y="495" type="qcurve" smooth="yes"/>
      <point x="500" y="377"/>
      <point x="568" y="186"/>
      <point x="715" y="74"/>
    </contour>
  </outline>
</glyph>
<glyph name="afii10101" format="2">
  <advance width="959"/>
  <unicode hex="0454"/>
  <outline>
    <contour>
      <point x="516" y="-20" type="qcurve" smooth="yes"/>
      <point x="383" y="-20"/>
      <point x="198" y="116"/>
      <point x="102" y="350"/>
      <point x="102" y="497" type="qcurve" smooth="yes"/>
      <point x="102" y="649"/>
      <point x="213" y="903"/>
      <point x="334" y="972" type="qcurve"/>
      <point x="410" y="1014"/>
      <point x="514" y="1014" type="qcurve" smooth="yes"/>
      <point x="648" y="1014"/>
      <point x="834" y="880"/>
      <point x="883" y="769" type="qcurve"/>
      <point x="784" y="722" type="line"/>
      <point x="756" y="819"/>
      <point x="608" y="933"/>
      <point x="514" y="933" type="qcurve" smooth="yes"/>
      <point x="366" y="933"/>
      <point x="285" y="805" type="qcurve"/>
      <point x="216" y="693"/>
      <point x="209" y="525" type="qcurve"/>
      <point x="636" y="525" type="line"/>
      <point x="636" y="447" type="line"/>
      <point x="209" y="447" type="line"/>
      <point x="220" y="286"/>
      <point x="288" y="182" type="qcurve" smooth="yes"/>
      <point x="369" y="60"/>
      <point x="514" y="60" type="qcurve" smooth="yes"/>
      <point x="612" y="60"/>
      <point x="757" y="179"/>
      <point x="784" y="272" type="qcurve"/>
      <point x="872" y="230" type="line"/>
      <point x="826" y="102"/>
      <point x="637" y="-20"/>
    </contour>
  </outline>
</glyph>
<glyph name="afii10104" format="2">
  <advance width="476"/>
  <unicode hex="0457"/>
  <outline>
    <contour>
      <point x="138" y="1202" type="line"/>
      <point x="8" y="1202" type="line"/>
      <point x="8" y="1352" type="line"/>
      <point x="138" y="1352" type="line"/>
    </contour>
    <contour>
      <point x="462" y="1202" type="line"/>
      <point x="331" y="1202" type="line"/>
      <point x="331" y="1352" type="line"/>
      <point x="462" y="1352" type="line"/>
    </contour>
    <contour>
      <point x="301" y="0" type="line"/>
      <point x="170" y="0" type="line"/>
      <point x="170" y="997" type="line"/>
      <point x="301" y="997" type="line"/>
    </contour>
  </outline>
</glyph>
<glyph name="afii10105" format="2">
  <advance width="474"/>
  <unicode hex="0458"/>
  <outline>
    <contour>
      <point x="300" y="1253" type="line"/>
      <point x="164" y="1253" type="line"/>
      <point x="164" y="1424" type="line"/>
      <point x="300" y="1424" type="line"/>
    </contour>
    <contour>
      <point x="53" y="-440" type="qcurve" smooth="yes"/>
      <point x="-2" y="-440"/>
      <point x="-82" y="-413" type="qcurve"/>
      <point x="-89" y="-411" type="line"/>
      <point x="-70" y="-342" type="line"/>
      <point x="-56" y="-345" type="line" smooth="yes"/>
      <point x="8" y="-359"/>
      <point x="49" y="-359" type="qcurve" smooth="yes"/>
      <point x="95" y="-359"/>
      <point x="155" y="-317"/>
      <point x="184" y="-253"/>
      <point x="184" y="-217" type="qcurve" smooth="yes"/>
      <point x="184" y="997" type="line"/>
      <point x="290" y="997" type="line"/>
      <point x="290" y="-178" type="line" smooth="yes"/>
      <point x="290" y="-298"/>
      <point x="172" y="-440"/>
    </contour>
  </outline>
</glyph>
<glyph name="afii10108" format="2">
  <advance width="1105"/>
  <unicode hex="045B"/>
  <outline>
    <contour>
      <point x="950" y="0" type="line"/>
      <point x="844" y="0" type="line"/>
      <point x="844" y="602" type="line" smooth="yes"/>
      <point x="844" y="680"/>
      <point x="803" y="823"/>
      <point x="702" y="915"/>
      <point x="612" y="915" type="qcurve" smooth="yes"/>
      <point x="518" y="915"/>
      <point x="370" y="813"/>
      <point x="285" y="645"/>
      <point x="285" y="546" type="qcurve" smooth="yes"/>
      <point x="285" y="0" type="line"/>
      <point x="183" y="0" type="line"/>
      <point x="183" y="1140" type="line"/>
      <point x="-13" y="1140" type="line"/>
      <point x="-13" y="1232" type="line"/>
      <point x="183" y="1232" type="line"/>
      <point x="183" y="1413" type="line"/>
      <point x="285" y="1413" type="line"/>
      <point x="285" y="1232" type="line"/>
      <point x="618" y="1232" type="line"/>
      <point x="618" y="1140" type="line"/>
      <point x="285" y="1140" type="line"/>
      <point x="285" y="804" type="line"/>
      <point x="337" y="900"/>
      <point x="523" y="1014"/>
      <point x="629" y="1014" type="qcurve" smooth="yes"/>
      <point x="738" y="1014"/>
      <point x="879" y="913"/>
      <point x="950" y="736"/>
      <point x="950" y="624" type="qcurve" smooth="yes"/>
    </contour>
  </outline>
</glyph>
<glyph name="eiotifiedcyrillic" format="2">
  <advance width="1282"/>
  <unicode hex="0465"/>
  <outline>
    <contour>
      <point x="838" y="-20" type="qcurve" smooth="yes"/>
      <point x="735" y="-20"/>
      <point x="657" y="20" type="qcurve" smooth="yes"/>
      <point x="422" y="141"/>
      <point x="422" y="519" type="qcurve"/>
      <point x="286" y="519" type="line"/>
      <point x="286" y="0" type="line"/>
      <point x="182" y="0" type="line"/>
      <point x="182" y="997" type="line"/>
      <point x="286" y="997" type="line"/>
      <point x="286" y="606" type="line"/>
      <point x="433" y="606" type="line"/>
      <point x="458" y="786"/>
      <point x="559" y="896" type="qcurve" smooth="yes"/>
      <point x="666" y="1014"/>
      <point x="836" y="1014" type="qcurve" smooth="yes"/>
      <point x="967" y="1014"/>
      <point x="1153" y="884"/>
      <point x="1206" y="769" type="qcurve"/>
      <point x="1182" y="757"/>
      <point x="1156" y="746" type="qcurve" smooth="yes"/>
      <point x="1130" y="734"/>
      <point x="1106" y="722" type="qcurve"/>
      <point x="1080" y="815"/>
      <point x="1007" y="875" type="qcurve"/>
      <point x="932" y="933"/>
      <point x="836" y="933" type="qcurve" smooth="yes"/>
      <point x="787" y="933"/>
      <point x="746" y="916" type="qcurve" smooth="yes"/>
      <point x="666" y="884"/>
      <point x="610" y="810" type="qcurve" smooth="yes"/>
      <point x="533" y="710"/>
      <point x="533" y="606" type="qcurve"/>
      <point x="959" y="606" type="line"/>
      <point x="959" y="528" type="line"/>
      <point x="532" y="528" type="line"/>
      <point x="532" y="508" type="line" smooth="yes"/>
      <point x="532" y="307"/>
      <point x="605" y="191" type="qcurve" smooth="yes"/>
      <point x="686" y="60"/>
      <point x="836" y="60" type="qcurve" smooth="yes"/>
      <point x="930" y="60"/>
      <point x="1081" y="179"/>
      <point x="1106" y="272" type="qcurve"/>
      <point x="1192" y="230" type="line"/>
      <point x="1151" y="109"/>
      <point x="967" y="-20"/>
    </contour>
  </outline>
</glyph>
<glyph name="Yuslittlecyrillic" format="2">
  <advance width="1293"/>
  <unicode hex="0466"/>
  <outline>
    <contour>
      <point x="1206" y="0" type="line"/>
      <point x="1083" y="0" type="line"/>
      <point x="827" y="730" type="line"/>
      <point x="702" y="730" type="line"/>
      <point x="702" y="0" type="line"/>
      <point x="591" y="0" type="line"/>
      <point x="591" y="730" type="line"/>
      <point x="469" y="730" type="line"/>
      <point x="210" y="0" type="line"/>
      <point x="88" y="0" type="line"/>
      <point x="602" y="1413" type="line"/>
      <point x="691" y="1413" type="line"/>
    </contour>
    <contour>
      <point x="796" y="825" type="line"/>
      <point x="648" y="1251" type="line"/>
      <point x="500" y="825" type="line"/>
    </contour>
  </outline>
</glyph>
<glyph name="yuslittlecyrillic" format="2">
  <advance width="1024"/>
  <unicode hex="0467"/>
  <outline>
    <contour>
      <point x="936" y="0" type="line"/>
      <point x="806" y="0" type="line"/>
      <point x="661" y="447" type="line"/>
      <point x="569" y="447" type="line"/>
      <point x="569" y="0" type="line"/>
      <point x="454" y="0" type="line"/>
      <point x="454" y="447" type="line"/>
      <point x="369" y="447" type="line"/>
      <point x="195" y="0" type="line"/>
      <point x="88" y="0" type="line"/>
      <point x="469" y="997" type="line"/>
      <point x="558" y="997" type="line"/>
    </contour>
    <contour>
      <point x="634" y="532" type="line"/>
      <point x="515" y="866" type="line"/>
      <point x="400" y="532" type="line"/>
    </contour>
  </outline>
</glyph>
<glyph name="yuslittleiotifiedcyrillic" format="2">
  <advance width="1309"/>
  <unicode hex="0469"/>
  <outline>
    <contour>
      <point x="1221" y="0" type="line"/>
      <point x="1089" y="0" type="line"/>
      <point x="947" y="447" type="line"/>
      <point x="854" y="447" type="line"/>
      <point x="854" y="0" type="line"/>
      <point x="737" y="0" type="line"/>
      <point x="737" y="447" type="line"/>
      <point x="655" y="447" type="line"/>
      <point x="480" y="0" type="line"/>
      <point x="371" y="0" type="line"/>
      <point x="520" y="392" type="line"/>
      <point x="286" y="392" type="line"/>
      <point x="286" y="0" type="line"/>
      <point x="182" y="0" type="line"/>
      <point x="182" y="997" type="line"/>
      <point x="286" y="997" type="line"/>
      <point x="286" y="479" type="line"/>
      <point x="554" y="479" type="line"/>
      <point x="752" y="997" type="line"/>
      <point x="843" y="997" type="line"/>
    </contour>
    <contour>
      <point x="919" y="532" type="line"/>
      <point x="800" y="866" type="line"/>
      <point x="685" y="532" type="line"/>
    </contour>
  </outline>
</glyph>
<glyph name="Yusbigcyrillic" format="2">
  <advance width="1556"/>
  <unicode hex="046A"/>
  <outline>
    <contour>
      <point x="1460" y="0" type="line"/>
      <point x="1323" y="0" type="line"/>
      <point x="1106" y="515" type="line"/>
      <point x="1093" y="548"/>
      <point x="1061" y="604"/>
      <point x="1008" y="639"/>
      <point x="962" y="639" type="qcurve" smooth="yes"/>
      <point x="832" y="639" type="line"/>
      <point x="832" y="0" type="line"/>
      <point x="720" y="0" type="line"/>
      <point x="720" y="639" type="line"/>
      <point x="591" y="639" type="line" smooth="yes"/>
      <point x="547" y="639"/>
      <point x="492" y="603"/>
      <point x="458" y="547"/>
      <point x="448" y="515" type="qcurve"/>
      <point x="232" y="0" type="line"/>
      <point x="85" y="0" type="line"/>
      <point x="332" y="579" type="line"/>
      <point x="358" y="643"/>
      <point x="448" y="712"/>
      <point x="584" y="739"/>
      <point x="685" y="739" type="qcurve"/>
      <point x="262" y="1323" type="line"/>
      <point x="262" y="1413" type="line"/>
      <point x="1290" y="1413" type="line"/>
      <point x="1290" y="1323" type="line"/>
      <point x="863" y="739" type="line"/>
      <point x="1014" y="739"/>
      <point x="1182" y="672"/>
      <point x="1221" y="579" type="qcurve" smooth="yes"/>
    </contour>
    <contour>
      <point x="774" y="791" type="qcurve"/>
      <point x="1169" y="1325" type="line"/>
      <point x="382" y="1325" type="line"/>
      <point x="485" y="1186"/>
      <point x="579" y="1057" type="qcurve" smooth="yes"/>
      <point x="672" y="928"/>
    </contour>
  </outline>
</glyph>
<glyph name="yusbigcyrillic" format="2">
  <advance width="1249"/>
  <unicode hex="046B"/>
  <outline>
    <contour>
      <point x="1162" y="0" type="line"/>
      <point x="1040" y="0" type="line"/>
      <point x="912" y="376" type="line" smooth="yes"/>
      <point x="883" y="460"/>
      <point x="830" y="487" type="qcurve" smooth="yes"/>
      <point x="787" y="509"/>
      <point x="683" y="509" type="qcurve"/>
      <point x="683" y="0" type="line"/>
      <point x="567" y="0" type="line"/>
      <point x="567" y="509" type="line"/>
      <point x="504" y="509"/>
      <point x="473" y="504" type="qcurve" smooth="yes"/>
      <point x="400" y="492"/>
      <point x="367" y="442" type="qcurve" smooth="yes"/>
      <point x="350" y="415"/>
      <point x="337" y="376" type="qcurve" smooth="yes"/>
      <point x="209" y="0" type="line"/>
      <point x="88" y="0" type="line"/>
      <point x="245" y="425" type="line" smooth="yes"/>
      <point x="257" y="458"/>
      <point x="277" y="487" type="qcurve" smooth="yes"/>
      <point x="344" y="586"/>
      <point x="505" y="586" type="qcurve"/>
      <point x="335" y="795"/>
      <point x="240" y="909" type="qcurve"/>
      <point x="240" y="997" type="line"/>
      <point x="1010" y="997" type="line"/>
      <point x="1010" y="909" type="line"/>
      <point x="747" y="586" type="line"/>
      <point x="809" y="586"/>
      <point x="849" y="573" type="qcurve" smooth="yes"/>
      <point x="964" y="537"/>
      <point x="1005" y="425" type="qcurve" smooth="yes"/>
    </contour>
    <contour>
      <point x="624" y="584" type="line"/>
      <point x="881" y="911" type="line"/>
      <point x="365" y="911" type="line"/>
    </contour>
  </outline>
</glyph>
<glyph name="yusbigiotifiedcyrillic" format="2">
  <advance width="1521"/>
  <unicode hex="046D"/>
  <outline>
    <contour>
      <point x="1433" y="0" type="line"/>
      <point x="1314" y="0" type="line"/>
      <point x="1188" y="370" type="line" smooth="yes"/>
      <point x="1164" y="440"/>
      <point x="1106" y="506"/>
      <point x="1021" y="524"/>
      <point x="952" y="524" type="qcurve"/>
      <point x="952" y="0" type="line"/>
      <point x="839" y="0" type="line"/>
      <point x="839" y="524" type="line"/>
      <point x="762" y="524"/>
      <point x="681" y="507"/>
      <point x="631" y="443"/>
      <point x="610" y="379" type="qcurve"/>
      <point x="481" y="0" type="line"/>
      <point x="360" y="0" type="line"/>
      <point x="507" y="397"/>
      <point x="528" y="450" type="qcurve"/>
      <point x="538" y="492"/>
      <point x="575" y="535" type="qcurve"/>
      <point x="286" y="535" type="line"/>
      <point x="286" y="0" type="line"/>
      <point x="182" y="0" type="line"/>
      <point x="182" y="997" type="line"/>
      <point x="286" y="997" type="line"/>
      <point x="286" y="625" type="line"/>
      <point x="744" y="625" type="line"/>
      <point x="512" y="909" type="line"/>
      <point x="512" y="997" type="line"/>
      <point x="1282" y="997" type="line"/>
      <point x="1282" y="909" type="line"/>
      <point x="1034" y="609" type="line"/>
      <point x="1120" y="609"/>
      <point x="1211" y="550"/>
      <point x="1260" y="470"/>
      <point x="1274" y="433" type="qcurve" smooth="yes"/>
    </contour>
    <contour>
      <point x="895" y="584" type="line"/>
      <point x="1153" y="911" type="line"/>
      <point x="635" y="911" type="line"/>
    </contour>
  </outline>
</glyph>
<glyph name="afii10147" format="2">
  <advance width="1516"/>
  <unicode hex="0472"/>
  <outline>
    <contour>
      <point x="757" y="-20" type="qcurve" smooth="yes"/>
      <point x="456" y="-20"/>
      <point x="295" y="191" type="qcurve" smooth="yes"/>
      <point x="143" y="390"/>
      <point x="143" y="707" type="qcurve" smooth="yes"/>
      <point x="143" y="1016"/>
      <point x="287" y="1212" type="qcurve" smooth="yes"/>
      <point x="451" y="1434"/>
      <point x="757" y="1434" type="qcurve" smooth="yes"/>
      <point x="959" y="1434"/>
      <point x="1232" y="1244"/>
      <point x="1372" y="915"/>
      <point x="1372" y="707" type="qcurve" smooth="yes"/>
      <point x="1372" y="391"/>
      <point x="1221" y="192" type="qcurve"/>
      <point x="1057" y="-20"/>
    </contour>
    <contour>
      <point x="1265" y="768" type="line"/>
      <point x="1256" y="934"/>
      <point x="1117" y="1204"/>
      <point x="975" y="1279" type="qcurve"/>
      <point x="882" y="1325"/>
      <point x="757" y="1325" type="qcurve" smooth="yes"/>
      <point x="600" y="1325"/>
      <point x="381" y="1181"/>
      <point x="259" y="933"/>
      <point x="248" y="768" type="qcurve"/>
    </contour>
    <contour>
      <point x="757" y="88" type="qcurve" smooth="yes"/>
      <point x="914" y="88"/>
      <point x="1140" y="236"/>
      <point x="1263" y="505"/>
      <point x="1267" y="691" type="qcurve"/>
      <point x="246" y="691" type="line"/>
      <point x="249" y="436"/>
      <point x="370" y="271" type="qcurve" smooth="yes"/>
      <point x="504" y="88"/>
    </contour>
  </outline>
</glyph>
<glyph name="ukcyrillic" format="2">
  <advance width="2067"/>
  <unicode hex="0479"/>
  <outline>
    <contour>
      <point x="101" y="495" type="qcurve" smooth="yes"/>
      <point x="101" y="639"/>
      <point x="221" y="873"/>
      <point x="427" y="1010"/>
      <point x="558" y="1010" type="qcurve" smooth="yes"/>
      <point x="689" y="1010"/>
      <point x="895" y="873"/>
      <point x="1015" y="639"/>
      <point x="1015" y="495" type="qcurve" smooth="yes"/>
      <point x="1015" y="351"/>
      <point x="895" y="117"/>
      <point x="689" y="-20"/>
      <point x="558" y="-20" type="qcurve" smooth="yes"/>
      <point x="427" y="-20"/>
      <point x="221" y="117"/>
      <point x="101" y="351"/>
    </contour>
    <contour>
      <point x="1497" y="-432" type="line"/>
      <point x="1386" y="-432" type="line"/>
      <point x="1552" y="-6" type="line"/>
      <point x="1169" y="997" type="line"/>
      <point x="1291" y="997" type="line"/>
      <point x="1600" y="127" type="line"/>
      <point x="1898" y="997" type="line"/>
      <point x="2018" y="997" type="line"/>
    </contour>
    <contour>
      <point x="902" y="495" type="qcurve" smooth="yes"/>
      <point x="902" y="678"/>
      <point x="811" y="789" type="qcurve" smooth="yes"/>
      <point x="714" y="908"/>
      <point x="558" y="908" type="qcurve" smooth="yes"/>
      <point x="412" y="908"/>
      <point x="308" y="788" type="qcurve" smooth="yes"/>
      <point x="214" y="678"/>
      <point x="214" y="495" type="qcurve" smooth="yes"/>
      <point x="214" y="312"/>
      <point x="308" y="202" type="qcurve" smooth="yes"/>
      <point x="412" y="82"/>
      <point x="558" y="82" type="qcurve" smooth="yes"/>
      <point x="714" y="82"/>
      <point x="811" y="201" type="qcurve" smooth="yes"/>
      <point x="902" y="312"/>
    </contour>
  </outline>
</glyph>
<glyph name="titlocyrilliccmb" format="2">
  <unicode hex="0483"/>
  <outline>
    <contour>
      <point x="-849" y="1542" type="line"/>
      <point x="-916" y="1542" type="line"/>
      <point x="-916" y="1761" type="line"/>
      <point x="-210" y="1761" type="line"/>
      <point x="-210" y="1902" type="line"/>
      <point x="-134" y="1902" type="line"/>
      <point x="-134" y="1707" type="line"/>
      <point x="-849" y="1707" type="line"/>
    </contour>
  </outline>
</glyph>
<glyph name="afii10050" format="2">
  <advance width="1074"/>
  <unicode hex="0490"/>
  <outline>
    <contour>
      <point x="340" y="0" type="line"/>
      <point x="228" y="0" type="line"/>
      <point x="228" y="1413" type="line"/>
      <point x="885" y="1413" type="line"/>
      <point x="885" y="1721" type="line"/>
      <point x="995" y="1721" type="line"/>
      <point x="995" y="1325" type="line"/>
      <point x="340" y="1325" type="line"/>
    </contour>
  </outline>
</glyph>
<glyph name="Ghestrokecyrillic" format="2">
  <advance width="1107"/>
  <unicode hex="0492"/>
  <outline>
    <contour>
      <point x="374" y="0" type="line"/>
      <point x="261" y="0" type="line"/>
      <point x="261" y="717" type="line"/>
      <point x="-23" y="717" type="line"/>
      <point x="-23" y="809" type="line"/>
      <point x="261" y="809" type="line"/>
      <point x="261" y="1413" type="line"/>
      <point x="1029" y="1413" type="line"/>
      <point x="1029" y="1325" type="line"/>
      <point x="374" y="1325" type="line"/>
      <point x="374" y="809" type="line"/>
      <point x="686" y="809" type="line"/>
      <point x="686" y="717" type="line"/>
      <point x="374" y="717" type="line"/>
    </contour>
  </outline>
</glyph>
<glyph name="ghestrokecyrillic" format="2">
  <advance width="757"/>
  <unicode hex="0493"/>
  <outline>
    <contour>
      <point x="286" y="0" type="line"/>
      <point x="182" y="0" type="line"/>
      <point x="182" y="997" type="line"/>
      <point x="714" y="997" type="line"/>
      <point x="714" y="911" type="line"/>
      <point x="286" y="911" type="line"/>
    </contour>
  </outline>
</glyph>
<glyph name="Zhedescendercyrillic" format="2">
  <advance width="1905"/>
  <unicode hex="0496"/>
  <outline>
    <contour>
      <point x="1871" y="-239" type="line"/>
      <point x="1763" y="-239" type="line"/>
      <point x="1763" y="0" type="line"/>
      <point x="1676" y="0" type="line"/>
      <point x="1462" y="601" type="line"/>
      <point x="1443" y="650"/>
      <point x="1338" y="724"/>
      <point x="1266" y="724" type="qcurve" smooth="yes"/>
      <point x="1008" y="724" type="line"/>
      <point x="1008" y="0" type="line"/>
      <point x="897" y="0" type="line"/>
      <point x="897" y="724" type="line"/>
      <point x="639" y="724" type="line" smooth="yes"/>
      <point x="487" y="724"/>
      <point x="445" y="601" type="qcurve"/>
      <point x="229" y="0" type="line"/>
      <point x="95" y="0" type="line"/>
      <point x="330" y="665" type="line"/>
      <point x="336" y="686"/>
      <point x="400" y="752"/>
      <point x="508" y="806"/>
      <point x="583" y="806" type="qcurve"/>
      <point x="176" y="1413" type="line"/>
      <point x="311" y="1413" type="line"/>
      <point x="716" y="811" type="line"/>
      <point x="897" y="811" type="line"/>
      <point x="897" y="1413" type="line"/>
      <point x="1008" y="1413" type="line"/>
      <point x="1008" y="811" type="line"/>
      <point x="1188" y="811" type="line"/>
      <point x="1591" y="1413" type="line"/>
      <point x="1729" y="1413" type="line"/>
      <point x="1322" y="806" type="line"/>
      <point x="1389" y="806"/>
      <point x="1495" y="756"/>
      <point x="1565" y="690"/>
      <point x="1575" y="665" type="qcurve"/>
      <point x="1752" y="163" type="line"/>
      <point x="1871" y="163" type="line"/>
    </contour>
  </outline>
</glyph>
<glyph name="zhedescendercyrillic" format="2">
  <advance width="1400"/>
  <unicode hex="0497"/>
  <outline>
    <contour>
      <point x="1392" y="-239" type="line"/>
      <point x="1284" y="-239" type="line"/>
      <point x="1284" y="0" type="line"/>
      <point x="1212" y="0" type="line"/>
      <point x="1123" y="258"/>
      <point x="1086" y="370" type="qcurve" smooth="yes"/>
      <point x="1060" y="450"/>
      <point x="977" y="520"/>
      <point x="911" y="520" type="qcurve" smooth="yes"/>
      <point x="753" y="520" type="line"/>
      <point x="753" y="0" type="line"/>
      <point x="647" y="0" type="line"/>
      <point x="647" y="520" type="line"/>
      <point x="489" y="520" type="line" smooth="yes"/>
      <point x="424" y="520"/>
      <point x="340" y="450"/>
      <point x="313" y="370" type="qcurve" smooth="yes"/>
      <point x="187" y="0" type="line"/>
      <point x="65" y="0" type="line"/>
      <point x="223" y="425" type="line"/>
      <point x="236" y="465"/>
      <point x="278" y="537"/>
      <point x="335" y="586"/>
      <point x="376" y="586" type="qcurve"/>
      <point x="134" y="997" type="line"/>
      <point x="270" y="997" type="line"/>
      <point x="488" y="620" type="line"/>
      <point x="647" y="620" type="line"/>
      <point x="647" y="997" type="line"/>
      <point x="753" y="997" type="line"/>
      <point x="753" y="620" type="line"/>
      <point x="911" y="620" type="line"/>
      <point x="1129" y="997" type="line"/>
      <point x="1265" y="997" type="line"/>
      <point x="1024" y="586" type="line"/>
      <point x="1074" y="586"/>
      <point x="1139" y="512"/>
      <point x="1164" y="454" type="qcurve" smooth="yes"/>
      <point x="1187" y="402"/>
      <point x="1273" y="163" type="qcurve"/>
      <point x="1392" y="163" type="line"/>
    </contour>
  </outline>
</glyph>
<glyph name="Kadescendercyrillic" format="2">
  <advance width="1238"/>
  <unicode hex="049A"/>
  <outline>
    <contour>
      <point x="1203" y="-239" type="line"/>
      <point x="1096" y="-239" type="line"/>
      <point x="1096" y="0" type="line"/>
      <point x="1009" y="0" type="line"/>
      <point x="902" y="299"/>
      <point x="793" y="601" type="qcurve"/>
      <point x="785" y="619"/>
      <point x="732" y="676"/>
      <point x="653" y="724"/>
      <point x="607" y="724" type="qcurve" smooth="yes"/>
      <point x="340" y="724" type="line"/>
      <point x="340" y="0" type="line"/>
      <point x="228" y="0" type="line"/>
      <point x="228" y="1413" type="line"/>
      <point x="340" y="1413" type="line"/>
      <point x="340" y="811" type="line"/>
      <point x="520" y="811" type="line"/>
      <point x="722" y="1112"/>
      <point x="924" y="1413" type="qcurve"/>
      <point x="1060" y="1413" type="line"/>
      <point x="654" y="806" type="line"/>
      <point x="721" y="806"/>
      <point x="825" y="757"/>
      <point x="896" y="692"/>
      <point x="908" y="665" type="qcurve"/>
      <point x="1083" y="163" type="line"/>
      <point x="1203" y="163" type="line"/>
    </contour>
  </outline>
</glyph>
<glyph name="kadescendercyrillic" format="2">
  <advance width="937"/>
  <unicode hex="049B"/>
  <outline>
    <contour>
      <point x="928" y="-239" type="line"/>
      <point x="820" y="-239" type="line"/>
      <point x="820" y="0" type="line"/>
      <point x="748" y="0" type="line"/>
      <point x="625" y="361" type="line"/>
      <point x="598" y="444"/>
      <point x="516" y="520"/>
      <point x="448" y="520" type="qcurve" smooth="yes"/>
      <point x="289" y="520" type="line"/>
      <point x="289" y="0" type="line"/>
      <point x="182" y="0" type="line"/>
      <point x="182" y="1413" type="line"/>
      <point x="289" y="1413" type="line"/>
      <point x="289" y="620" type="line"/>
      <point x="447" y="620" type="line"/>
      <point x="495" y="704"/>
      <point x="545" y="786" type="qcurve"/>
      <point x="666" y="997" type="line"/>
      <point x="801" y="997" type="line"/>
      <point x="560" y="586" type="line"/>
      <point x="611" y="586"/>
      <point x="680" y="503"/>
      <point x="706" y="440" type="qcurve" smooth="yes"/>
      <point x="720" y="407"/>
      <point x="809" y="163" type="qcurve"/>
      <point x="928" y="163" type="line"/>
    </contour>
  </outline>
</glyph>
<glyph name="endescendercyrillic" format="2">
  <advance width="1124"/>
  <unicode hex="04A3"/>
  <outline>
    <contour>
      <point x="1056" y="-239" type="line"/>
      <point x="949" y="-239" type="line"/>
      <point x="949" y="0" type="line"/>
      <point x="839" y="0" type="line"/>
      <point x="839" y="504" type="line"/>
      <point x="288" y="504" type="line"/>
      <point x="288" y="0" type="line"/>
      <point x="182" y="0" type="line"/>
      <point x="182" y="997" type="line"/>
      <point x="288" y="997" type="line"/>
      <point x="288" y="591" type="line"/>
      <point x="839" y="591" type="line"/>
      <point x="839" y="997" type="line"/>
      <point x="944" y="997" type="line"/>
      <point x="944" y="163" type="line"/>
      <point x="1056" y="163" type="line"/>
    </contour>
  </outline>
</glyph>
<glyph name="Ustraightstrokecyrillic" format="2">
  <advance width="1324"/>
  <unicode hex="04B0"/>
  <outline>
    <contour>
      <point x="714" y="0" type="line"/>
      <point x="607" y="0" type="line"/>
      <point x="607" y="347" type="line"/>
      <point x="220" y="347" type="line"/>
      <point x="220" y="438" type="line"/>
      <point x="607" y="438" type="line"/>
      <point x="607" y="553" type="line"/>
      <point x="79" y="1413" type="line"/>
      <point x="209" y="1413" type="line"/>
      <point x="659" y="675" type="line"/>
      <point x="1112" y="1413" type="line"/>
      <point x="1240" y="1413" type="line"/>
      <point x="714" y="553" type="line"/>
      <point x="714" y="438" type="line"/>
      <point x="929" y="438" type="line"/>
      <point x="929" y="347" type="line"/>
      <point x="714" y="347" type="line"/>
    </contour>
  </outline>
</glyph>
<glyph name="ustraightstrokecyrillic" format="2">
  <advance width="954"/>
  <unicode hex="04B1"/>
  <outline>
    <contour>
      <point x="525" y="0" type="line"/>
      <point x="415" y="0" type="line"/>
      <point x="415" y="242" type="line"/>
      <point x="64" y="242" type="line"/>
      <point x="64" y="334" type="line"/>
      <point x="415" y="334" type="line"/>
      <point x="415" y="448" type="line"/>
      <point x="79" y="997" type="line"/>
      <point x="212" y="997" type="line"/>
      <point x="469" y="575" type="line"/>
      <point x="726" y="997" type="line"/>
      <point x="858" y="997" type="line"/>
      <point x="525" y="448" type="line"/>
      <point x="525" y="334" type="line"/>
      <point x="773" y="334" type="line"/>
      <point x="773" y="242" type="line"/>
      <point x="525" y="242" type="line"/>
    </contour>
  </outline>
</glyph>
<glyph name="hadescendercyrillic" format="2">
  <advance width="882"/>
  <unicode hex="04B3"/>
  <outline>
    <contour>
      <point x="812" y="-239" type="line"/>
      <point x="706" y="-239" type="line"/>
      <point x="706" y="0" type="line"/>
      <point x="690" y="0" type="line"/>
      <point x="443" y="401" type="line"/>
      <point x="196" y="0" type="line"/>
      <point x="67" y="0" type="line"/>
      <point x="399" y="503" type="line"/>
      <point x="67" y="997" type="line"/>
      <point x="196" y="997" type="line"/>
      <point x="443" y="603" type="line"/>
      <point x="690" y="997" type="line"/>
      <point x="815" y="997" type="line"/>
      <point x="487" y="503" type="line"/>
      <point x="709" y="163" type="line"/>
      <point x="812" y="163" type="line"/>
    </contour>
  </outline>
</glyph>
<glyph name="endash" format="2">
  <advance width="1012"/>
  <unicode hex="2013"/>
  <outline>
    <contour>
      <point x="839" y="610" type="line"/>
      <point x="173" y="610" type="line"/>
      <point x="173" y="689" type="line"/>
      <point x="839" y="689" type="line"/>
    </contour>
  </outline>
</glyph>
<glyph name="afii00208" format="2">
  <advance width="1505"/>
  <unicode hex="2015"/>
  <outline>
    <contour>
      <point x="1332" y="610" type="line"/>
      <point x="173" y="610" type="line"/>
      <point x="173" y="689" type="line"/>
      <point x="1332" y="689" type="line"/>
    </contour>
  </outline>
</glyph>
<glyph name="quoteright" format="2">
  <advance width="557"/>
  <unicode hex="2019"/>
  <outline>
    <contour>
      <point x="221" y="959" type="line"/>
      <point x="163" y="959" type="line"/>
      <point x="275" y="1413" type="line"/>
      <point x="430" y="1413" type="line"/>
    </contour>
  </outline>
</glyph>
<glyph name="quotesinglbase" format="2">
  <advance width="568"/>
  <unicode hex="201A"/>
  <outline>
    <contour>
      <point x="233" y="-226" type="line"/>
      <point x="160" y="-226" type="line"/>
      <point x="275" y="259" type="line"/>
      <point x="444" y="259" type="line"/>
    </contour>
  </outline>
</glyph>
<glyph name="quotedblleft" format="2">
  <advance width="833"/>
  <unicode hex="201C"/>
  <outline>
    <contour>
      <point x="393" y="959" type="line"/>
      <point x="332" y="959" type="line"/>
      <point x="126" y="1413" type="line"/>
      <point x="283" y="1413" type="line"/>
    </contour>
    <contour>
      <point x="670" y="959" type="line"/>
      <point x="611" y="959" type="line"/>
      <point x="403" y="1413" type="line"/>
      <point x="557" y="1413" type="line"/>
    </contour>
  </outline>
</glyph>
<glyph name="quotedblright" format="2">
  <advance width="834"/>
  <unicode hex="201D"/>
  <outline>
    <contour>
      <point x="221" y="959" type="line"/>
      <point x="163" y="959" type="line"/>
      <point x="275" y="1413" type="line"/>
      <point x="430" y="1413" type="line"/>
    </contour>
    <contour>
      <point x="502" y="959" type="line"/>
      <point x="439" y="959" type="line"/>
      <point x="555" y="1413" type="line"/>
      <point x="708" y="1413" type="line"/>
    </contour>
  </outline>
</glyph>
<glyph name="quotedblbase" format="2">
  <advance width="871"/>
  <unicode hex="201E"/>
  <outline>
    <contour>
      <point x="233" y="-226" type="line"/>
      <point x="160" y="-226" type="line"/>
      <point x="275" y="259" type="line"/>
      <point x="444" y="259" type="line"/>
    </contour>
    <contour>
      <point x="537" y="-226" type="line"/>
      <point x="463" y="-226" type="line"/>
      <point x="578" y="259" type="line"/>
      <point x="746" y="259" type="line"/>
    </contour>
  </outline>
</glyph>
<glyph name="dagger" format="2">
  <advance width="821"/>
  <unicode hex="2020"/>
  <outline>
    <contour>
      <point x="469" y="-206" type="line"/>
      <point x="353" y="-206" type="line"/>
      <point x="353" y="864" type="line"/>
      <point x="131" y="864" type="line"/>
      <point x="131" y="977" type="line"/>
      <point x="353" y="977" type="line"/>
      <point x="353" y="1413" type="line"/>
      <point x="469" y="1413" type="line"/>
      <point x="469" y="977" type="line"/>
      <point x="691" y="977" type="line"/>
      <point x="691" y="864" type="line"/>
      <point x="469" y="864" type="line"/>
    </contour>
  </outline>
</glyph>
<glyph name="uni2023" format="2">
  <advance width="753"/>
  <unicode hex="2023"/>
  <outline>
    <contour>
      <point x="253" y="278" type="line"/>
      <point x="253" y="663" type="line"/>
      <point x="602" y="471" type="line"/>
    </contour>
  </outline>
</glyph>
<glyph name="twodotenleader" format="2">
  <advance width="1086"/>
  <unicode hex="2025"/>
  <outline>
    <contour>
      <point x="422" y="0" type="line"/>
      <point x="249" y="0" type="line"/>
      <point x="249" y="160" type="line"/>
      <point x="422" y="160" type="line"/>
    </contour>
    <contour>
      <point x="838" y="0" type="line"/>
      <point x="664" y="0" type="line"/>
      <point x="664" y="160" type="line"/>
      <point x="838" y="160" type="line"/>
    </contour>
  </outline>
</glyph>
